<mxfile host="65bd71144e">
    <diagram id="LFn79le9neMliiZhfDl3" name="StableDiffusionMdodel">
        <mxGraphModel dx="2926" dy="993" grid="1" gridSize="10" guides="1" tooltips="1" connect="1" arrows="1" fold="1" page="0" pageScale="1" pageWidth="827" pageHeight="1169" math="0" shadow="0">
            <root>
                <mxCell id="0"/>
                <mxCell id="1" parent="0"/>
                <mxCell id="UrZrE4dEw9ymg7tauEkW-112" style="edgeStyle=none;html=1;exitX=1;exitY=0.5;exitDx=0;exitDy=0;entryX=0.5;entryY=1;entryDx=0;entryDy=0;" parent="1" source="UrZrE4dEw9ymg7tauEkW-98" target="UrZrE4dEw9ymg7tauEkW-104" edge="1">
                    <mxGeometry relative="1" as="geometry">
                        <Array as="points">
                            <mxPoint x="40" y="1518"/>
                        </Array>
                    </mxGeometry>
                </mxCell>
                <mxCell id="UrZrE4dEw9ymg7tauEkW-98" value="" style="rounded=0;whiteSpace=wrap;html=1;" parent="1" vertex="1">
                    <mxGeometry x="-440" y="1425" width="320" height="185" as="geometry"/>
                </mxCell>
                <mxCell id="UrZrE4dEw9ymg7tauEkW-35" value="" style="rounded=0;whiteSpace=wrap;html=1;" parent="1" vertex="1">
                    <mxGeometry x="-810" y="-120" width="1690" height="780" as="geometry"/>
                </mxCell>
                <mxCell id="UrZrE4dEw9ymg7tauEkW-11" style="edgeStyle=none;html=1;exitX=0.5;exitY=0;exitDx=0;exitDy=0;entryX=0.5;entryY=1;entryDx=0;entryDy=0;" parent="1" source="UrZrE4dEw9ymg7tauEkW-1" target="UrZrE4dEw9ymg7tauEkW-2" edge="1">
                    <mxGeometry relative="1" as="geometry"/>
                </mxCell>
                <mxCell id="UrZrE4dEw9ymg7tauEkW-28" value="＋" style="edgeLabel;html=1;align=center;verticalAlign=middle;resizable=0;points=[];fontSize=20;" parent="UrZrE4dEw9ymg7tauEkW-11" vertex="1" connectable="0">
                    <mxGeometry x="0.06" y="-1" relative="1" as="geometry">
                        <mxPoint x="-1" y="-16" as="offset"/>
                    </mxGeometry>
                </mxCell>
                <mxCell id="UrZrE4dEw9ymg7tauEkW-1" value="Conv1" style="rounded=0;whiteSpace=wrap;html=1;fontSize=15;" parent="1" vertex="1">
                    <mxGeometry x="120" y="280" width="200" height="40" as="geometry"/>
                </mxCell>
                <mxCell id="UrZrE4dEw9ymg7tauEkW-31" style="edgeStyle=none;html=1;exitX=0.5;exitY=0;exitDx=0;exitDy=0;" parent="1" source="UrZrE4dEw9ymg7tauEkW-2" edge="1">
                    <mxGeometry relative="1" as="geometry">
                        <mxPoint x="220" as="targetPoint"/>
                    </mxGeometry>
                </mxCell>
                <mxCell id="UrZrE4dEw9ymg7tauEkW-2" value="Conv2" style="rounded=0;whiteSpace=wrap;html=1;fontSize=15;" parent="1" vertex="1">
                    <mxGeometry x="120" y="120" width="200" height="40" as="geometry"/>
                </mxCell>
                <mxCell id="UrZrE4dEw9ymg7tauEkW-9" style="edgeStyle=none;html=1;exitX=0.5;exitY=0;exitDx=0;exitDy=0;entryX=0.5;entryY=1;entryDx=0;entryDy=0;fontSize=14;" parent="1" source="UrZrE4dEw9ymg7tauEkW-3" target="UrZrE4dEw9ymg7tauEkW-4" edge="1">
                    <mxGeometry relative="1" as="geometry"/>
                </mxCell>
                <mxCell id="UrZrE4dEw9ymg7tauEkW-3" value="&lt;div style=&quot;color: rgb(59, 59, 59); font-family: &amp;quot;JetBrains Mono&amp;quot;, &amp;quot;HarmonyOS Sans SC&amp;quot;, Consolas, &amp;quot;Courier New&amp;quot;, monospace, Consolas, &amp;quot;Courier New&amp;quot;, monospace; line-height: 16px; white-space: pre;&quot;&gt;&lt;span style=&quot;color: #267f99;&quot;&gt;GroupNorm&lt;/span&gt;&lt;/div&gt;" style="rounded=0;whiteSpace=wrap;html=1;fontSize=14;" parent="1" vertex="1">
                    <mxGeometry x="370" y="335" width="280" height="30" as="geometry"/>
                </mxCell>
                <mxCell id="UrZrE4dEw9ymg7tauEkW-8" style="edgeStyle=none;html=1;exitX=0.5;exitY=0;exitDx=0;exitDy=0;entryX=0.5;entryY=1;entryDx=0;entryDy=0;fontSize=14;" parent="1" source="UrZrE4dEw9ymg7tauEkW-4" target="UrZrE4dEw9ymg7tauEkW-6" edge="1">
                    <mxGeometry relative="1" as="geometry"/>
                </mxCell>
                <mxCell id="UrZrE4dEw9ymg7tauEkW-4" value="&lt;div style=&quot;color: rgb(59, 59, 59); font-family: &amp;quot;JetBrains Mono&amp;quot;, &amp;quot;HarmonyOS Sans SC&amp;quot;, Consolas, &amp;quot;Courier New&amp;quot;, monospace, Consolas, &amp;quot;Courier New&amp;quot;, monospace; line-height: 16px; white-space: pre;&quot;&gt;&lt;span style=&quot;color: rgb(121, 94, 38);&quot;&gt;nonlinearity=x*torch.sigmoid(x)&lt;/span&gt;&lt;/div&gt;" style="rounded=0;whiteSpace=wrap;html=1;fontSize=14;" parent="1" vertex="1">
                    <mxGeometry x="370" y="285" width="280" height="30" as="geometry"/>
                </mxCell>
                <mxCell id="UrZrE4dEw9ymg7tauEkW-10" style="edgeStyle=none;html=1;exitX=0.5;exitY=0;exitDx=0;exitDy=0;entryX=0.5;entryY=1;entryDx=0;entryDy=0;fontSize=15;" parent="1" source="UrZrE4dEw9ymg7tauEkW-5" target="UrZrE4dEw9ymg7tauEkW-1" edge="1">
                    <mxGeometry relative="1" as="geometry"/>
                </mxCell>
                <mxCell id="UrZrE4dEw9ymg7tauEkW-30" style="edgeStyle=none;html=1;exitX=0;exitY=0.5;exitDx=0;exitDy=0;" parent="1" source="UrZrE4dEw9ymg7tauEkW-5" edge="1">
                    <mxGeometry relative="1" as="geometry">
                        <mxPoint x="200" y="-10" as="targetPoint"/>
                        <Array as="points">
                            <mxPoint x="-160" y="560"/>
                            <mxPoint x="-160" y="-10"/>
                        </Array>
                    </mxGeometry>
                </mxCell>
                <mxCell id="UrZrE4dEw9ymg7tauEkW-5" value="&lt;font&gt;x:(batch_size, c, h, w)&lt;/font&gt;" style="rounded=0;whiteSpace=wrap;html=1;fontSize=15;" parent="1" vertex="1">
                    <mxGeometry x="121" y="540" width="199" height="40" as="geometry"/>
                </mxCell>
                <mxCell id="UrZrE4dEw9ymg7tauEkW-6" value="&lt;div style=&quot;color: rgb(59, 59, 59); font-family: &amp;quot;JetBrains Mono&amp;quot;, &amp;quot;HarmonyOS Sans SC&amp;quot;, Consolas, &amp;quot;Courier New&amp;quot;, monospace, Consolas, &amp;quot;Courier New&amp;quot;, monospace; line-height: 16px; white-space: pre;&quot;&gt;&lt;span style=&quot;color: rgb(0, 16, 128);&quot;&gt;conv:in_c, out_c,3,1,1&lt;/span&gt;&lt;/div&gt;" style="rounded=0;whiteSpace=wrap;html=1;fontSize=14;" parent="1" vertex="1">
                    <mxGeometry x="370" y="235" width="280" height="30" as="geometry"/>
                </mxCell>
                <mxCell id="UrZrE4dEw9ymg7tauEkW-12" value="" style="shape=curlyBracket;whiteSpace=wrap;html=1;rounded=1;labelPosition=left;verticalLabelPosition=middle;align=right;verticalAlign=middle;fontSize=14;" parent="1" vertex="1">
                    <mxGeometry x="350" y="235" width="20" height="130" as="geometry"/>
                </mxCell>
                <mxCell id="UrZrE4dEw9ymg7tauEkW-14" style="edgeStyle=none;html=1;exitX=1;exitY=0.5;exitDx=0;exitDy=0;entryX=0.1;entryY=0.5;entryDx=0;entryDy=0;entryPerimeter=0;fontSize=15;" parent="1" source="UrZrE4dEw9ymg7tauEkW-1" target="UrZrE4dEw9ymg7tauEkW-12" edge="1">
                    <mxGeometry relative="1" as="geometry"/>
                </mxCell>
                <mxCell id="UrZrE4dEw9ymg7tauEkW-15" style="edgeStyle=none;html=1;exitX=0.5;exitY=0;exitDx=0;exitDy=0;entryX=0.5;entryY=1;entryDx=0;entryDy=0;fontSize=14;" parent="1" source="UrZrE4dEw9ymg7tauEkW-16" target="UrZrE4dEw9ymg7tauEkW-18" edge="1">
                    <mxGeometry relative="1" as="geometry"/>
                </mxCell>
                <mxCell id="UrZrE4dEw9ymg7tauEkW-16" value="&lt;div style=&quot;color: rgb(59, 59, 59); font-family: &amp;quot;JetBrains Mono&amp;quot;, &amp;quot;HarmonyOS Sans SC&amp;quot;, Consolas, &amp;quot;Courier New&amp;quot;, monospace, Consolas, &amp;quot;Courier New&amp;quot;, monospace; line-height: 16px; white-space: pre;&quot;&gt;&lt;span style=&quot;color: #267f99;&quot;&gt;GroupNorm&lt;/span&gt;&lt;/div&gt;" style="rounded=0;whiteSpace=wrap;html=1;fontSize=14;" parent="1" vertex="1">
                    <mxGeometry x="370" y="175" width="280" height="30" as="geometry"/>
                </mxCell>
                <mxCell id="UrZrE4dEw9ymg7tauEkW-17" style="edgeStyle=none;html=1;exitX=0.5;exitY=0;exitDx=0;exitDy=0;entryX=0.5;entryY=1;entryDx=0;entryDy=0;fontSize=14;" parent="1" source="UrZrE4dEw9ymg7tauEkW-18" target="UrZrE4dEw9ymg7tauEkW-19" edge="1">
                    <mxGeometry relative="1" as="geometry"/>
                </mxCell>
                <mxCell id="UrZrE4dEw9ymg7tauEkW-18" value="&lt;div style=&quot;color: rgb(59, 59, 59); font-family: &amp;quot;JetBrains Mono&amp;quot;, &amp;quot;HarmonyOS Sans SC&amp;quot;, Consolas, &amp;quot;Courier New&amp;quot;, monospace, Consolas, &amp;quot;Courier New&amp;quot;, monospace; line-height: 16px; white-space: pre;&quot;&gt;&lt;span style=&quot;color: rgb(121, 94, 38);&quot;&gt;nonlinearity=x*torch.sigmoid(x)&lt;/span&gt;&lt;/div&gt;" style="rounded=0;whiteSpace=wrap;html=1;fontSize=14;" parent="1" vertex="1">
                    <mxGeometry x="370" y="125" width="280" height="30" as="geometry"/>
                </mxCell>
                <mxCell id="UrZrE4dEw9ymg7tauEkW-19" value="&lt;div style=&quot;color: rgb(59, 59, 59); font-family: &amp;quot;JetBrains Mono&amp;quot;, &amp;quot;HarmonyOS Sans SC&amp;quot;, Consolas, &amp;quot;Courier New&amp;quot;, monospace, Consolas, &amp;quot;Courier New&amp;quot;, monospace; line-height: 16px; white-space: pre;&quot;&gt;&lt;span style=&quot;color: rgb(0, 16, 128);&quot;&gt;conv:out_c, out_c,3,1,1&lt;/span&gt;&lt;/div&gt;" style="rounded=0;whiteSpace=wrap;html=1;fontSize=14;" parent="1" vertex="1">
                    <mxGeometry x="370" y="75" width="280" height="30" as="geometry"/>
                </mxCell>
                <mxCell id="UrZrE4dEw9ymg7tauEkW-20" value="" style="shape=curlyBracket;whiteSpace=wrap;html=1;rounded=1;labelPosition=left;verticalLabelPosition=middle;align=right;verticalAlign=middle;fontSize=14;" parent="1" vertex="1">
                    <mxGeometry x="350" y="75" width="20" height="130" as="geometry"/>
                </mxCell>
                <mxCell id="UrZrE4dEw9ymg7tauEkW-21" style="edgeStyle=none;html=1;exitX=1;exitY=0.5;exitDx=0;exitDy=0;entryX=0.1;entryY=0.5;entryDx=0;entryDy=0;entryPerimeter=0;" parent="1" source="UrZrE4dEw9ymg7tauEkW-2" target="UrZrE4dEw9ymg7tauEkW-20" edge="1">
                    <mxGeometry relative="1" as="geometry"/>
                </mxCell>
                <mxCell id="UrZrE4dEw9ymg7tauEkW-25" style="edgeStyle=none;html=1;exitX=0.5;exitY=0;exitDx=0;exitDy=0;entryX=0.5;entryY=1;entryDx=0;entryDy=0;fontSize=15;" parent="1" source="UrZrE4dEw9ymg7tauEkW-22" target="UrZrE4dEw9ymg7tauEkW-23" edge="1">
                    <mxGeometry relative="1" as="geometry"/>
                </mxCell>
                <mxCell id="UrZrE4dEw9ymg7tauEkW-22" value="&lt;font&gt;time_emb: (batch_size,)&lt;/font&gt;" style="rounded=0;whiteSpace=wrap;html=1;fontSize=15;" parent="1" vertex="1">
                    <mxGeometry x="-120" y="440" width="199" height="40" as="geometry"/>
                </mxCell>
                <mxCell id="UrZrE4dEw9ymg7tauEkW-26" style="edgeStyle=none;html=1;exitX=0.5;exitY=0;exitDx=0;exitDy=0;entryX=0.5;entryY=1;entryDx=0;entryDy=0;fontSize=15;" parent="1" source="UrZrE4dEw9ymg7tauEkW-23" target="UrZrE4dEw9ymg7tauEkW-24" edge="1">
                    <mxGeometry relative="1" as="geometry"/>
                </mxCell>
                <mxCell id="UrZrE4dEw9ymg7tauEkW-33" style="edgeStyle=none;html=1;exitX=0;exitY=0.5;exitDx=0;exitDy=0;entryX=1;entryY=0.5;entryDx=0;entryDy=0;" parent="1" source="UrZrE4dEw9ymg7tauEkW-23" target="UrZrE4dEw9ymg7tauEkW-34" edge="1">
                    <mxGeometry relative="1" as="geometry">
                        <mxPoint x="-210" y="380" as="targetPoint"/>
                    </mxGeometry>
                </mxCell>
                <mxCell id="UrZrE4dEw9ymg7tauEkW-23" value="&lt;font&gt;Time_embedding&lt;/font&gt;" style="rounded=0;whiteSpace=wrap;html=1;fontSize=15;" parent="1" vertex="1">
                    <mxGeometry x="-120" y="360" width="199" height="40" as="geometry"/>
                </mxCell>
                <mxCell id="UrZrE4dEw9ymg7tauEkW-27" style="edgeStyle=none;html=1;exitX=0.5;exitY=0;exitDx=0;exitDy=0;" parent="1" source="UrZrE4dEw9ymg7tauEkW-24" edge="1">
                    <mxGeometry relative="1" as="geometry">
                        <mxPoint x="200" y="200" as="targetPoint"/>
                        <Array as="points">
                            <mxPoint x="-20" y="200"/>
                        </Array>
                    </mxGeometry>
                </mxCell>
                <mxCell id="UrZrE4dEw9ymg7tauEkW-24" value="&lt;font&gt;time_emb: (batch_size,ch*4)&lt;/font&gt;" style="rounded=0;whiteSpace=wrap;html=1;fontSize=15;" parent="1" vertex="1">
                    <mxGeometry x="-120" y="280" width="199" height="40" as="geometry"/>
                </mxCell>
                <mxCell id="UrZrE4dEw9ymg7tauEkW-29" value="&lt;font style=&quot;font-size: 14px;&quot;&gt;&lt;b style=&quot;&quot;&gt;&lt;font style=&quot;color: rgb(204, 0, 0);&quot;&gt;in_c, out_c全部通过 ch_mult, num_res_blocks，ch计算：&lt;/font&gt;&lt;/b&gt;&lt;/font&gt;&lt;div&gt;&lt;font style=&quot;font-size: 14px; color: rgb(204, 0, 0);&quot;&gt;&lt;b style=&quot;&quot;&gt;ch=64，num_res_blocks=2，ch_mult=(1,2,3,4)&lt;br&gt;得到通道变化为：64，64，128，128，192，192，256，256&lt;/b&gt;&lt;/font&gt;&lt;/div&gt;" style="text;html=1;align=center;verticalAlign=middle;resizable=0;points=[];autosize=1;strokeColor=none;fillColor=none;" parent="1" vertex="1">
                    <mxGeometry x="330" y="380" width="400" height="60" as="geometry"/>
                </mxCell>
                <mxCell id="UrZrE4dEw9ymg7tauEkW-32" value="＋" style="edgeLabel;html=1;align=center;verticalAlign=middle;resizable=0;points=[];fontSize=20;" parent="1" vertex="1" connectable="0">
                    <mxGeometry x="230" y="210" as="geometry">
                        <mxPoint x="-13" y="-222" as="offset"/>
                    </mxGeometry>
                </mxCell>
                <mxCell id="UrZrE4dEw9ymg7tauEkW-34" value="" style="shape=image;verticalLabelPosition=bottom;labelBackgroundColor=default;verticalAlign=top;aspect=fixed;imageAspect=0;image=data:image/png,iVBORw0KGgoAAAANSUhEUgAAAtIAAAF/CAYAAABkAC4HAAAAAXNSR0IArs4c6QAAAARnQU1BAACxjwv8YQUAAAAJcEhZcwAADsMAAA7DAcdvqGQAAK85SURBVHhe7Z0JfBVFtv9/0eE5PmQESYIJSwwuCAaEF0dAdhR8BBIBdQQ1Mv4HxoBxfAIGF3QYxIUIzDjEwAj/UYgK6gghgfAXFNkXh0wCCSAuYFgSSILgA2UUtf9V1dV9u/v2vbfvkuTe5Hz5FLm1dHV1VXX16VOnqqMUBgiCIAiiEXHhwgX5iwiGZs2ayV8EQdhxkfxLEES4sPc7dFnwvfQQBOGZ7/G3/t+hVPoIgiDqm+AE6dIf0OmaH1Aivf5QW/g9O9blCk/IiMZE+VxMe6Ab8sqln/CTPcgLef35yrMWG2Z2w9z1tdKvoYZPm7kC1TKkTuBCdKaC7LsukQH+8cm8Z9DyytfxifQT9U0V3pvwDNJXVkl/KPCd58mV89BywmqclH6NsOoPxa/bl0WEP4M5xdLvF5fgzicU3Jt1nt2hYcinRVi8eLG9W3tQJiIIIpJpGI00E8D7PAbM2XoJDn6hutQrZVy9ELyAVr3+4boXqoKldgXmPvAwNoTlE4Zw53v8LfNnPJrTHCNiZJABIRTNC0jaqDc8CXQEUVdEp/wHsvET+ofjLM71KRg/frxwo25oAVzWBaOkf/ywTjIRQRCRTIMI0rVHFWDYRehdr8JzA5A0BbOX7kV6kvQTEUw0Bj+7F7OfHY1YGRJqaot+xCu9Lsad3WRAANw8+TmcOfEgbpZ+omkTEf0h+UFWxucwNVn6/aYZRjx+MYYs+xGra2RQyDiF7csX450dp6SfIAjCjN+LDUtyvseYv0iPIArLv/gP9JA+Ye5xlyvL//nHJZjYXXok3Kyjz7qLsG1+Myae+AufYh+MD76QXo1b8zB73I3qb25Skb1E/c1IytKEWa6JToetItp4vBe4Jnpu3hbpM9IPt897FYP5BXFN8OQZurbadX6OWv7jvVl8Hk8zDulZQB4v7zUzMEUX1CzXaYpTKV/SDXkfSQ8jNn0DpgxhBbCc34iehmNJZ4oTdfUa2s77PY5PdtWZ+Voc4LEtnNSD2l7IygOyPZfBXA8sn6VTYCqipQwcUx429WWsC1P+bu0gr2P0BrRd4Wovaxnt+42xrBewOut7HL//MjxkEaS5JnpotvSY6Ih1UkjimuBOE0+rwYZwlWLMuXITEha0woSJh4DUnliX8hmG8vRZI3FmspRgqlYjvccuFKo+pC6YhLxRcdLH4SYGuZigJWBMX6MKQObzG2mFRSWTcbeWDZ/GH87KINGOF/C4hTE4mFGDTnoa67V4LkPI8FIP4joPX4dFB3aJMkxfMxIYno9Z+nWq5StIGYm0ony9nG516a0eOJYycMx5uNcDb9eDi0agDfvpvT9o1zEABxM3udIZ+wLHUkYVS3v6wL3vGspiuUZzHajXV5HSE3sm8jTsuDXAUF4ew3W6UO+f9QMvwSsp6uK40C02PIiixVtQ2bZfUFrkUzvewcqK9hg15ha0lmE63ARka6X0APF9xyPleunhcaUtMar7GazU0nDNtikfLvCvxP5z0ssw5eEW3wJdRt6DW7ThvnY73sk/g+7jr8aX/FpFYDz6jU9BknGx4d4c9J20HL2fLMDLw6+QgQTRxOGCtFP+Nf/fynWZPyg10q+UfK9cd/X3yr+kV/X/Wymokv6qH5RM5s8t4Z4flYJMdjzzu7n5F0RyJ5S90VXJ+tP7ykmj/41S6WOUzVGy0icpH2mFrHlfmZPeVVlaJv2CUmWpW5h/nFw3yVQOe+zOU6N89CdW5vQ5SpmMF/mIcmrllmkM12W9bkfnN+Vpwa1e1LLMWacllmUzHC/OKcrtEK9t4aQefJfBtl6MZbSWQeapX7dbPajlctWDC/s6167DlYfPMgi/pR6rv1P+0O+cUlgt/TbsmjtduXzubunzwO6/K5e3+buyS3pVdisvt2HHji9UTlQWKvfz3zwfY1oZ/rKevXrM/Ssqpd/Z+U+smKueR/pNiPPNVd7VsrSeU8TLcoqASuXd8eZzOqqDYPBRD+L6ZLwoi7getZxqGllmt+syXLevenArgzF/l99YDx7r3djGBrTr0PPwVQbhN5TZAaJ+jGXyUBatjl3Xy9Hqkae39l/7ctSsOad0zv239CnKDz/8EEJXpWxcmqvk5uYrZbbxvl3Vpjwld+lG9li0xO3NZ/nmKRsrpb9yo5KXm6vk7zXGs3Prx5Yp+cyft6lKz6NsFYtfVab7zU6W3Rjv4Zz8PNp5tTxN7Jmv9OnTR5m6+pQMIAjCD9OOH7HzL8Ccpz1rkUu2Khj651+47J2vbIb/8z/AX7b+yDwXI3W+ag+97c/MO+wibJP20QczfyGS+6YW1RVA0miXRjApeRxQ8aWuTSwvXoLY9D+pmmFO9GjcfisP3yMDwoPY9HG61lRcT/TVLi1n7WaUfDEO6QYNedLwGYj94iOUG+2drX4/qC75CNW35hm0pjfi9vR+qN6x2aSZTcqSWnZG7JDfszIfQrXDczppC6/1IPFchj0o+agfbp/k6g9q/BKUSPW1WxksuNdDYHANtpZHbI9bWXlc9VRddQi49feuMiTd5l6PVQrWIwrtbGyjQ8X0DE2L1wqLxiYD8TFIFX7g5M7PUJg10qARTEb6glYoLCo22ztn7w144donmw4hdcFYlzYzbgQeyQJmbTLafXfEOl3bGIe7MzoCB6pCVgZfOKqH1J5I1+KzBrDriUNCZ+mXcO2xnkfyf2NR6mlUSGWir3pwL4OFqmIUFLJ6MmqPA4FrdrU84pKRxjrDniNyQWNlDQqN1yniXdfgm2Jszmb9bKZVc+wfqQv+W9eki/7L6trrvOHhn9lToi5ojVvGjEe/tpXYsvgdbA/hSQ4erkSLG25zaYejb0H3tqwJDhsXI8ajn66B7oSrWfzZM5ZCHP8StssXaw/i6LkW6PJrgzb9+p7octlZHP3cbLJi1GJHt2wBfHPKXJ/dMrF161bSRhOEAeeC9AkF++VPe37CMXYXr3vsR9NuHGYzkGCJRmwCE45WaIv8arFhxRIgQRO+VEG7Om+w2C1Dc0bzh4jgxGF2fUvEgkj9OqymB0NexZR04IPJWpq59iYrHqiu3AJ8lO7Knzl7kxUrW3Dc0Q4rddkWsgy1/AVqi6EOuDOa7qhl8IaohzomNo4Jgx+9pi/6rF7/GitjR/bSoPrDgYrDp5mAmi92T9Cc1VSD29uuyzqEoVoavxYVVqHiAFA4Mdd0DnuTFQuFNdCaMbgy+MZJPQSKKqT6rgdRBm9wIVf+rDP4S1bhLuRp7zjF/w8TClshIV76fVFVxV5zI4ODa53vpiGES5zF/n+GaseNUzj1Dctx30pTGbYcl9EO6TRME/JlHsu3s5wltWdYiVugtWm8aY3Wl1uF8RZoaUjTuvc9GM+E9zAapggiLAnhYsOL0Y698HKNtLYTh+4ca5wd8sUMzBVC02B8gBmYomtuVUGbawf5Ij+Tc2D/HDZcmcheDLj9rOUalro0sxwuTGtx6bcywduPXURi4/upduGm/JnztphOCK790NbRItE6agtjGYT2mtumW/JnLlgNc+hxCfxz88DKbLHjjovCECg4FvLFUs5ISGyl2sie4IvTDM5ii6ouXuNuEhZhFzo53kVE1dpyTa3bObxoVk8eYUJlagxYV9IJvAy+cVoP/lGJCib53tiBq6ADq4eGYtZwKewPP4Tpa5zbRjcYiRf5LfhxIVTbWcPzbhrqosOV+1qgX0h33FAF2hY3jDKXIYBzuK5jFLpgP1ZqLwTRLZmIfBanTKplVYBvYZScCYIICOeC9JUXYegwYN0/f1L9lkWFnB59o4RGuu72hJZT+UbBySL4cVOP6rw/+tjyrS3aXhOcuYfQMgZhWuGV6P7ocQ0TjJc4L58QjK0IQXMLSkrcCynMDz5K92sLwPI1M1B9za1Icjj2OmsL/zCX4Ub0uJUJqLmeXiCikdTbaK7ivthUmAZ99KEMUxcOui1kDRLVvMT4QmF+IRLE/AJDeilY/0/PC6SEkFdHZg1tel2H1Ox8P/bydTdn4LTpwMpY+Bk222x5fPOAjiicuAzvOd5iuRh5E08jNSXZgxBrXwZW48jp2xd9++aY2toJ/teDb06u3IRZ6Ij+Uk72VQ883tXONosKk7thOg5hsyyj54WegaOZlxgFfY+mJnZIU5CCnfIibRcuhpIL2LlRwZCEutiIii82XIn9l/djQmoKQiVCa3RKjMfZfR+G0FxEFc51ojuh/WVmLfqpHR9i/7l4dO/ttuzRO3yxIbu3Hl/ztQwgCMK/XTtOXMAjfX/GOuGJwvKtUfh7XwX/x8uuHRzrzh3B7Nrhe/cDhq9dGjjWnRoc7tphxLxbhGvXDk87e6g7QUAIayW9+e/jclcKXjZtlwxNyLIR6gw7Rlh37LDdrYJjqQu1DLLWve5WYbPDSQB15Lkt1OvzXg82dWBTBu91Yc4jKUvdXeP4aFd/MB7Pr//2SpY+3ks9CLRzGK/DWK8foYeHXVw0rH2ytuhb9N94ETZnX+rhvrAKVdoOCDbClkDbYYHv2pEP8F0R4vlOCZ8hjYeD/67BIx52UeC4dorwvkuEEfNODZZdHmwEKn23Bm9xAudlKM/ti4y3EdjuAl7qQQitRdeJc1bw64S60wW/5vmJahq3nSrsyujjWo158HM/cjhXz19gPJ7nz3c64TueiPP46g9S+JbXoZZLPaYgRTuH2mdmiTgXrv7gAFM9sr5aEoP5hv7m6QVAPQcM5al09d9kuQONdeeQmvN49M6fMeR91x7sodm1Q93t4mjCKNzjr9BpwZ9dOzi6vbKIY08YgxDPzVG2sGeOqrV237HDfVcPufOI9Amba+NLgdi14yjaG3fykJg+EU67dhCEG35vf9egWAUUgRSUEgIQ8ggvqAKkKtzKICIAbARthvqy1dHy8sM/d3wB+59wbeHVpBDCIdy2agsI+cAfk7sVmUHsy91UEYK8fEnQEe1z2q/t7+oH963vOKHb/q5pYxKkCYJwoy7mweoOsQjPynEc/wKIjW8r/QQRTqj904pY5HgNt4U3cgkeyrkI61/6oQ4+LNGU+Bqrly5nf8dgIAnRAaAuiLQi7NXRCglhJUTzmZwfkIWL8UxTfPkkCKLBiSyNNMPObMJkrhAMHqbgXRg+utLo8aaR9mTu4MLNlKYpY9evbD6wo7P3O3TZdjH2T7xEBjQRQqGRlppo9HoCBXNGgCafA8XOtEOaEtmYvpixmPPUKXwW5yf03PyfsHz3izTSIYI00gThnYgTpAmCIAjCFyRIhwYSpAnCOyRIEwRBEARBEEQAOLaRLi8vx7fffit9BEEQBEEQBNG0iazFhgRBEARBEAQRJpAgTRAEQRAEQRABQII0QRAEQRAEQQQACdIEQRAEQRAEEQCRJ0hX5uOt2HZ4a0WN+bdODT4e3w6Lx+ej0vTbRelcFhb7V5RafhMEQRAEQRCEUyJWI90iIUb+Mv/W6dwe8fKn6bdGWgfXxzCMvwmCIAiCIAjCAZEnSMe3Rwv50/RbJwatOsufpt8uYhOHyV/m3wRBEARBEAThFMcfZOH7SCcmJqJ58+YyhCAIgiAIgiCaLrTYkCAIgiAIgiACgARpgiAIgiAIgggAEqQJgiAIgiAIIgBIkCYIgiAIgiCIACBBmiAIgiAIgiACgARpgiAIgiAIgggAEqQJgiAIgiAIIgBIkCYIgiAIgiCIACBBmiAIgiAIgiACgARpgiAIgiAIgggAEqQJgiAIgiAIIgBIkCYIgiAIgiCIACBBmiAIgiAIgiACgARpgiAIgiAIgggAEqQJgiAIgiAIIgBIkCYIgiAIgiCIAIgsQbr4r1gc287ezS0WSSpXTMDi8fmoFD4vVObjLXbcWytqZEDjwnE9NCSiPf+KUumtU2TfKVC7SUgRda33xXq6njCmdG7D10OdlcFmDGqwMSQEY1iDtZUsu6ku5RjuhoN713wPTsDH1oHPcr6Qt1lDPk/snoue6jJAgn+eFKOAlcvJ+OuxT1ra0GNe9dEWdfU8sSu7PFfg11ODj8f7dzw90/wjsgTp5D9gfPUx4VIWDgPScpAi/eOnJMtEjQcxoIR4QKx3xMBg82BrRMSPXqT2wbVZMiRMCUFbNIo+GTRZuEkbd6pXoUVGD6qTgBiGq0u1eizB1QfuCExYY4JGUQYMeS3CoHgZJ2BCXPdMYGGJjD+G+0bHyLjGgrlPxs5mddnY+mT8SNynXZ8MqgvCQQl1vmibfv7KijL5q/6ImGdamNB0TTvkTdn4BlTCFvkSltb43rfCju5T+MPuD+gu/Q1B/ZUhGWmlObiUCS51MdvhlRCMYeHQVioxGLSYCUgFmfjYqjnzce8KQSNtODqZhGcDlUdxlgnt8b3qcKwPq+cJ65NcAJq9LSI1iUH3yfpoi7p6nlQdwfm0LPaisAYHhSRdg4NFXXH1wmE4f/iISEKEH41WkK42Tk2Y3szVKSYtzn66Q50K0Y9nzvlDkuc/gT0M5HQbe7Mt1cpiLIdlmsr4BqxObbXD7tnMwzULejrLFIs1D5spGM/1wLAc714XQdSDlnf3TJzHWnzZ3ZWH23mMU5NumgBLGfzVFFiu0Vx+Ne+CFVoaVn9aWfTzyPasNPcbv4Um4zWajndSBo63epB5FJvT6Odw2hbW/mQ4h5M+6WQ60JzGcn5+3fycXvuDd3yVQcSz+8CULljNXXwfxKcBZytc16LVl105HJXB0l/M8cGPYSGpJ2sZhQtmxiMZHabBJTB4vXdDgVpH7veA5Rqs12nqk07awpzGXN8+7t0AsWoxeX/kZTO2p7ms1v5i346m54n13vQyfrjwPI766pO+Ce6+0M5flLEWYC90RXoaQ1047JPm+99TWTzQuQ9uSmHjSRX7XbkNlczfSY3RMdeVTf6mcvbAlwUyXMdSD36OswKv94VEpvHr+iMRxSFlZWXKuXPnpK/hOf7+eGXR71Yqx6VfQ4THtFUWzdktA1YqbzL/Kul1Ua1s+F1b5c33q6XfRckcw/F+s1tZxc/PyybPLfLa/Qor1ytKiUjDzj3HWHb1GGtZvJbD43Wp+KwHt+PdyxBcPUjEecYrG6wNxRF1IutKDbCUQW0jYxlEmWza3Tdq3ub6kvmLdrG2m1ZmGW64BrVutbY0YGpjAyLcUAemundSBl/1oOXhuj7bMnprC55HsH1Sw0M9uJfJcg6f/cEPvJbBcA2mtnCAbb7m9rH2Uet1+yyDtb/YtL+KGm5XP47v3UDrydbvqW/Z4CG9/f2t9gNzG7n6vJuTZdavwc1p12tTf9ZyOb4uT23h3ofN/cF1Hdr1WfuLT9za0P2col75tWt1a7ouWQZjf7H0Qbf+4HYOlofX8UP1BzWO6qh5mfuDEU9t4ey+EOVy64NWPJfBvg87hF87Lx9vH/aXl4WfQ5RJltu93ix1LdrWWDZrfbi3t8cye2oLp/eFON6+LRoTjVMjzW2nNZtpG22RI4KcFoudOBLqTOMwXD2WlSWuAy4Vfk4MBk3R4jkWTYwDSpdl4vy0Vd6nlrzUQ+XONZbjk3ETnz4y2GYJ6nx6MAs3LdbqwqqRYmUpYPEG+/fuY3NwaYE27RUaLl04Vp9GFO0W3x4tpF8jdq3L7jJ+dAZiUYbTDstQujGbneMFl91m/EjcwK6zeqNLneG1DA7r4dKFJXp7xvcazvqb8zKGok96h09RrjVdp32f89IfQkUoxgePFOPIbHbPz3TVpdpfsnHEqL3yUgbeXzAtw2Dny9pmYgBT9cHeu97qSUxB5+AmrUuK+LWqFq1e4KYg3ATA83oZ3c6Tm96Y7LH9NRtYy8bLAPtH8TZUsz59g8HMwK4/BHfvcrKxW9cO3sGKbGPawOtIu7fE+CLbS4wv8jmlkTwWV7P2NF23sT9o965+bzobP4IZR0NGXT7TKvOxz3L/+4M+k8DvpwML8XFRV3QwNIuTcdT92W4hZM9VB/eFNIFp7Ca0TddG2gvcRuumaYaBKZBpDx9Yp2bElLljanD6ABt8EztIv/9UH17LBhTjFL2c0jJQH/XgFf6wNj0gmBPmCeGAU6FBbavzfEGa4Tr8au96qofg+qQvjuBsAdAiwTygxid0BQqOMGEjklGvTdyPwh7XbD7DBRvn1+fh3hYv4s6Fjjq/d3l5CjKxWxMGi5fhSyaMtYiT/oBQrx2d2wckhNQJ3N6WCeIw3L/+mF2o9tsdmMBopANahPTljcMEI+1FgjlbIcpUr8lI09KJ8aUrWpkqPQatOjt4iT1wVO9XgY0f9fnyVQ/3hW1dBkIMOqWw+u/cxyUwi7r2PY6KZ7s3QvE8CfK+aGyQIO0BdcEDdyW4GpkostoHBkOxdZU5v7llnCMcDnJeiE0cBrC3Vu38utO1gSp1Wg++EMKD+QGhOuuq/HpGLl5yJjSobcU1TuZrYM6gEfBKfdRD0H3SF/bCg72gEWEIraNczCY0fUbtp8t51BCZ8HBvB/CAro97t3qYfBAPyzZpGwNCaMrY2DTQ4X1RX8jFa6Iu12axa3ZuB27/omgvDDUYti9pvpU1QmDThPNAxg+/xtHQUaf3hZ8vvN4QMyra7ArvR4IQjKOhep4EcV80NkiQ9on6YAsl6vSN4aHIBiG7t3ch7HqYhuo+kE/1Br5TgJg+9Ov4AOtBTiEGNDUqpovZm3N9Cu8OEGY13nYJsMDb6nzGU4EPMqGqBy9tEYo+6R2uYRnG6mGZ69jKfHycsdZgBhWB8EU9TIh0me7wKe21+PLZwDVd6r290NBfilEgzmGczvWHOhjD5PSx8UHs7EXBE+wauVbMl7laSLG+tMgySJ8tQgjxg+Q+woxjn2GxVencO1BtNItpaKRZzpfLXONL5Yqn8GWB2STFhDBhcL30OB0/jPg7joYe+/tCffkJ0HxQq8sg7n/v+B5H1fFDG6P5okLLYsO6eK56ui9YP+Av2o19sWHTE6Rlw2orWfUpd71Tua/q3X3AaBsWPPGjX8DVvCNr51jQQdg4WXFLZ1zJzG2PxFugFmeJ94WcmjlrOt7Y4UNVD+pWTEbTBuc3FbeDlPvLGsrhz3Sca7pRnV7X6svfG9tYz7vBBAhdc2+oJybsuGwVDW/noq26Wqb7/ZkKC74eVDy3RfB90nc9cA2LaVqVCS0t1oZyCykHbRES3K/BaAMopo87G1f9c+fHvcn6S8pCGPrLHTi7sMR1jqDHsODrSdi3WkzDuPPvvjKawKjXaJylCdW96w1hG6pfx0K0KLXsUazXtXSivQ2aO59toW6PaJwCF21hmflrWPj4IveelmUsyuiKmwy25KpwaejT3dcgvtR17/oeP1RNajDjqM/+EKpnO7v/buIvw3rf9KMM2ljNNd3yHOZ47/g0y2D4HEdF+bX4HqhMKbHMDvh6njgYH3zdF02MKL7iUP72Snl5ORITE9G8eXMZQhBNAb6lkrp4p/40ZQQR3vDtvYQgZBRC+MN1WBmuLm26D1SCIJoeZNpBEARB+IFcFGjBbXqfIAiiCUAaaYLwCmmkCcId9b4wL6LjC5jC4SuJBEEQ9QcJ0gRBEARBEAQRAGTaQRAEQRAEQRABQII0QRAEQRAEQQQACdIEQRAEQRAEEQAkSBMEQRAEQRBEAJAgTRAEQRAEQRABQII0QRAEQRAEQQRAxG1/xz/RWZRh+YxmWph9crUyH291z8R56VUZFsAXv/inOnvgS4TbJ2UJgiAIgiCIyNRIc8G5+hjGay4shUwuOBvKWE2fzSUIgiAIgmhMkGlHWBODQYvD9UWBIAiCIAiiadP4BGluVhH7V5SKT9i2w2LhuN9A8V9luHRzi2WEajqyeG4+Ph6vxhUUa/lMwMeVMlEoEOU0lGF8PozZl871HMdRy8nKbbwWw3UIrNdpzcdShrdW1MgIDW5aYjieO5uyEARBEARBNEUaqUY6G7tj7wDWqmYVN01jfk3I5MLlsDKD2UUJrj5wh1kInZ2JsxP5cUD1sIVoUcrSpK1F5U6roBkoTEBdBgzSzT5WIbYgEx8bBNnuU9S4lIXDZIgNs1m5WfRNWh7MX6BdBheSTdfJnFGzLe24W8g64se3yOhhEKalfXbnVfrxXstCEARBEATRxIhMQZoJnUVGLalVE8uIZQJiWrL8ncgEwANHhSa1dGM2MC3DYK8cg0ETs5hQus2ltU7LwU3yWDVtDFp1ln7HrMWX3Q1lNGnF2TmnGM01ktGBCe3nDx+RfqdkMSH6D+gufndAizTgbIVR2Pcs/FfuXIPz01bpdcTLcBMTlM8XbVM1zpXsbwHLf4qegCAIgiAIgjDQOBYbugl7w9AiTv5kxI9eJLWxNTh9ALg0sYOMkcR1wKUow+mQ2ixYFxtqAq+KMM0wvAzsni0j/CGtA2LlT82e+r7RMao3fiTuK80BMnro59C11Yzqw2tVjbahDKbdUKqOWHYdIQiCIAiCIIw0scWGqmbZTfMrhMauaFVfK/qK/8qEVpgEbW5GEnK4MK0J8muzUD3MZecttPTTXGYbuqOFjQRBEARBEI5oYoI00H0gN+NYaFg4WIyCYdm4dOFYk8a4LqmsKGP/GwR3JlgHpJH2B6F1dxHfazguNdpUW0nug1hk44iMt92/W1BHizEJgiAIgiDCnCYnSCP5D0hZCIP98h04u7DEZRJRD8SPfgFXp/EFkbIMCzoI+2QXrh1HhPCq24Rbdh/xhnXHDrGw0LCXtTT9ODvMkIY512LDZKQJLbYaXlQ0HCnMTxAEQRAEQahE3JcNiYZDaKW5QE3mHwRBEARBEE1QI00QBEEQBEEQIYAEaYIgCIIgCIIIADLtIAiCIAiCIIgAII00QRAEQRAEQQQACdIEQRAEQRAEEQAkSBMEQRAEQRBEAJAgTRAEQRAEQRABQII0QRAEQRAEQQQACdIEQRAEQRAEEQARJkjX4OPx5k9aL46dgI8rZbQ/VObjLdMnsV2UzjXkPz4fPrMXn+P24/PdjpHX66QMDYhaX06uX/30eUGx9DrA77YIOf6X2Te+8lTb3b1vRkZ/IAiCIIimQkRqpC9dWILx1ceES1kIfNk9tEJs9yla3sNkCNFQUFsQBEEQBBGuRLxpR3yv4bhU/vaL+JG4jwlo942OkQHhSAwGLWaC5OKRiJch4Ygq7P4B3aWfqCsioz8QBEEQRFMh4gXp0mWZOD+tjy7EVa6YYJn6tk6Tq9PqmrmAnWmHE0wmB8OyZagfSNMSPQ+LaYR3kwb1mgqK5VS/TGc0FfBdDwwfZbDWlTVenMPjsRJh9qKluQPVMljHWoa6MFswlcFYT7IeV2hlYNegpXUrh7kurGYZpvayqwu/6qEHviyQ4ZJg+wPH3F6aM5TVZ38gCIIgCMJIRArS5zN66A/73bOzcNOUZBnjhGSkCbOQElydJoP8hAs1uw/kIEXkw9zaLBnjFCaUdc9Ei7XyeOHMGl0nJg3Vw3rg7ERXuuph/gg+vsrABcc7cNZkRlOG3QbhKn70IjXO0/Vz4XFYGa4u1fJfhVgZpcIEv2XAIJm/iC/IxMcBvtzYYi1DaQ7ODjMLmdUZR3CDKFs2di/ogBSW5tKCNThokFarhy1EC5mHta6t/cFaTz7rgQuwprZw75tB9wdWhqIMuMog2ozdO3qb++6TBEEQBEGYaQQ20hahpc4pxpHZw3D1zOCn16s3WlSGfsLrIU2+Q6gmLmU47ac612MZirehmglaNxhMX+JHZwhh84jDYpduzGZlfAGDPFZUDAZNMdZjMjpMYy9Kh49If/C4lSF+JG5g5zBe96ULx+oCY+xEVp749mgh/Rqxaxfpeaj1oNW1e3+w1pOveqjcuQbnp63S2zJQvPWHyooyYFqGqwzJfQzX4CLYPkkQBEEQTYnIt5Ee/QKuTnMu3AVN5VGclT8Dh2vFVyF29h26Zj1QE5PA8V4GIXildTBrTtEBLdKAsxVOylqD0wfkTy9YzQ12z5YRIUEtg3EGI3TnWIuzVeyP6A9r8WV3V/5m0w3f9VB9eK38VXfEJ3QFZi/Ud7ipXLGQlbErWunCfTj0SYIgCIKILCJekAaO4KzFnjQy0ExMmCvNAZiwZ7VprXs8l0EIXgVHLLa8al23SAjRAk2ruQFzN02TcSEhBq06m2cwdOeXOZAFITwPQ4s49ltor4eZrkFzwWqYQ49L4Ffr3Wq6EQ59kiAIgiAih4gXpFXNWhY6aFPaFgGwdK77wq2giO+D+LS1qNwptXXC/jWAxYZGbEwJgsXverCWQUz9Z2OfQStZOvcOVKfl4CZHAmIMOqUMw/mibXJhnGpzbRTMhdbbqBVldRlajTTQfWAWzmc8Fdhe4x4QC1zThqOTKDc3R2EC6rOeFkn6rgdeRszeJs2T+ILBEPdZhmpeYnyhcJmq2OKpT+oLEuvTnIogCIIgwpMohSF/e6W8vByJiYlo3ry5DGkIbIQMJtilmLYDM6fhwsMNh3tgX2KJutWdJ8F32iqppXQXdFQMC7Pk4rDzWnhpB+zrzhesOVycZTpehZfTtRWfrzKo11iZYjhG5LkG8aWagOSjHnyWgWFNY6prTwIf187alyF2bQlaLFAXxKnaWkseXEhPWYPdhzOct4UTbNo8di0vg7Eej4hzQYTz8/LFhfw6bK5T7ysuxIJD00uAsYy+6sF8vFtbhaI/2LQ3R60H9sNJf+Do6fxsA4IgCIJohESYIE0QhP/YCNoMbp9elNGVBGKCIAiCCJBGYCNNEIR37NcRiEWObgtKCYIgCIJwCmmkCaIpYGfa4WYWRRAEQRCEP5AgTRAEQRAEQRABQKYdBEEQBEEQBBEAJEgTBEEQBEEQRACQIE0QBEEQBEEQAUCCNEEQBEEQBEEEAAnSBEEQBEEQBBEAJEgTBEEQBEEQRABEliDNP/Uc287ezS0WSfjX2haPz0el8HmB76vLjntrRY0MaFw4roeGRLTnX1EqvXWK7DsFajcJKaKu9b5YT9cTxvDPnTd0PYRDGcIb/tl5rc8yJ8dPwkx4jqNq27mNZU6eaTKN1u7uaSO5X5jL7rke+JdeWZoA2jUU/UEdm6QL92c04YjIEqST/4Dx1ceES1k4TP2ghPSPn5IsEzUexA0X6Q84MXBPwMeNeLSIH71I7YNrs2RImBKCtmgUfTIERHo9lM69A1grx87qVYidfYe74NEE7t36Ijz6CxM0u2cCC0tkux/DfaNjZByHC5h3oHraKj0+sp6ryUgT5S7B1WkyqEHw8KIj6T5FrVshwxCNgqZr2hE/Eve5DSREo0W+hKU1vvetsEN9UPwB3aW/IQiHMoQzvH5c90IybmIP9fNF20g7Fsn4eqZVHsVZDEN8L0/PvCM4WwDEDmzsg2QMBi1m4wN91ZUIEY1WkK42TrebNAFOpn/k1I8hnXOTAJ7/BHy8QpqhjM9HqVYWYzksU2zGKR5t6mf3bOaZfYcrjXWq2pqHzVS253pgWI53r4sg6kHLW3yWei2+7O7Kw+08RpMdt6kuSxn8nQqzXKO5/GreBSu0NKz+tLLo55HtWWnuN877g8RiluQ63kkZON7qQeZRbE6jn8NpW1j7k+EcTvqkExMXcxrL+fl183N67Q/e8VUGEc/uA1M6PzSFTu9NLZ1dnKMyWNvCei2W/mQ9np+f163xHO73twcC7C/m/O3uG3fttrme3MtoqiO3eO0cxn7vfo5QYBpHjX1StINN28v2cNpffGJq7ztQLYNVzGOT43b2F0ufM4+BTtrCMoa55eEAa7/3c3ww9TfbY93LKJzl/rJ/rmrtoLZP9TAZb3O8R8T12ddbnbUrETz8E+FOKCsrU86dOyd9Dc/x98cri363Ujku/RoiPKatsmjObhmwUnmT+VdJr4tqZcPv2ipvvl8t/S5K5hiO95vdyip+fl42eW6R1+5XWLleUUpEGnbuOcayq8dYy+K1HB6vS8VnPbgd716G4OpBIs4zXtlgbSiOqBNZV2qApQxqGxnLIMpk0+6+UfM215fMX7SLtd20MstwwzWodau1pQFTGxsQ4YY6MNW9kzL4qgctD9f12ZbRW1vwPILtkxoe6sG9TJZz+OwPfuC1DIZrMLWFc7zVg7WPWq/bdxnU6/ZYJmt/8tQ/+Dm0cnhtew/17O0YD2V25aH6jeW0rReD34rP/qKfwxXmK09/cWsraxls+pld3/DWX3zi1t5qGdz7h9oPrO2oX4Obk+XW7js3ZzintQwe2p8f56ktgqoDjtc+bMS+Hox46ifWPmots1t/cKsHjqf2MWNfBpuy2/QxIrxonBppbjut2XbF90F8GnC2ws+3udnb/NMYWIidqE0bDcPVY1lZ4jrgUuHnxGDQFOO0UjI6TAPOHz4i/b4pXZaJ89NWeTdV8FIPlTvXWI73ML0bZD34Jgs36VNslnqoZGUpYPEGO73uY3NwacEaHPRHDeGDSxeO1U0ARLvFt0cL6deIXbsIg2SDxY/OQCzKcNphGUo3ZrNzvKAfz6dgb2DXWb3RpaXwWgaH9XDpwhK9PeN7DWf9zXkZQ9EnvVODg0VrTddp3+e89IdQEYrxwSPFODKb3fMzXXWp9pdsHDEqpRyUwdg/jPD+hGkZrv7E225ilvu9ys+h1aXoT2txtkrEmOD20tWs3m/ww8zN6fhhvG+6D2RlLDhi1qZ6vJed9he132vmDPEJXd3PESzGttLKEOo+6QW38cNP9DUcpWzM4M+jUtVGVzd90tcerWL9lLeZFu9qOydjGMdnWwT9PFnL+l5daWZrcPqAHH9liOizB46an4l1On7EoFOKuY+r93sfw31AhBtN10baC9x+8KZp2ditTcv4OX3kBOuUpZj6c4x6w1+a2EH6/af68FrLVGM7FGWwMAP1UQ9eqTqC80wA0c/PnZhuDgfshRJ31LY6n9HDdQ3M+dXe9VQPwfVJX6j2ly0SzMJanQg+DYmwQzWbQ7hPxfuCL5pSFwBqebimdT3c++JF3fLi1Lm96cWIL8Syvnjzqe7dXPAv9c+e3Mn44Qsu4KUshKGujOYOzvuLKY0QCuvBNt4qXNUZans3LM7HMG9tEfTzhNuAs5cBGMrht2mIV2LQqjPr2wu0ctXg4wVMiDXdR3WPePHWXzDlizlXxhFhCwnSHlAXK3FXgquRiSKnNk5OKP4re+jAoBngA4yMc4R6wwejFYlNHMbecg2rszVnWYBRp/XgCyEcZOEmaxkNmpIGQS7aaREn/V5R24praszXwJxBw+yV+qiHoPukLzqghY3mprKiDEjrIDRhjQKh+TVq/VzO6+yRG9oOBMxJ4UEVGjzc++Jlqyta+dEf+IuTKkT734+cjh++0LWlzAkhSxeuwre/iJeIehauGpYQjGGSoJ8nckGlyGNtFqqH1YFNfAErlxDUe+BLGGcj6gs+Eyc178XbUG2afSLCERKkfaIOIqFEPAyMDz0mxNi93YuHlYepMDHlNPuOgN/IxdS/X8cHWA9ySjmg6TgxbcYervUpvDtAmNWkDUcnh4Mbb6vzGU8FPuCHqh68tEUo+qR35JRlxjLXsZX5+DhjrWkqNVLwXA/qQ/DLZ0M4e2M082Go9/5CQ38qRsEwPvVuNIPwgXhxYnVvML1ww0t/8X/88I2oU50Q9hdtUWQoZtRYXvvYfaHvbGGZCVBfTtTfRoK+b/Spfr6gzd8ZjuAJegxzIwTPVZO5ZCiQ2l/jS7CfL4Yq6kugJ9MsJ3DTPbD6fmtBGWmjI4CmJ0izB4g6LcTeNgsM01W6kOK+anf3gdC+lcaPfgFXc8FIO8eCDsLuzopbOuPUJ582E2/kWpwl3hdymuys6XjzFHJo6iEZaaycxmlB56uP+TZFJbj6gHkK2Z8HostcwbyS2t8V0MZ63o1VhgHWUE9MmIFugmHQlIi26mqZ7vdnWjL4elDx3BbB90nf9cC1j6ap3e6ZaLE2lFsSOmiLEOHt3hRT2J01rZZ7vE8su2HwvnvWYP/O+5PZJEKNd76Vpyp4c8zjh7VPerl3fY4fvrHu2FGU0dVgHx/C/iLtWLmmcbefso1qSmJoy+5rEM8ELb0MwlbYZcpTdDjDdn9gr2O5D8SxXHsrjuP7f7OxgF+Phs9nWggIegwLwfNEv07pRH8wvAj6rAdtVw1phqS3q9YW3P7deF9pzo97V8DG65k54kVTz8NxGSSiz67FeThX2BANRxRfcSh/e6W8vByJiYlo3ry5DCGIpoCqAeIfrwidwEcQRH3CX6hV06UGNgsjwhf+AitelIx9hL8AMMG886p6/jiNet7KFH9ekImGgkw7CIIgiEZMMXZz7Z8f5lhEE0SsM7CiLnoNZmF/IFSueErYZw8iIToiIEGaIAiCaJSopl13qJ+9DsjelWgyuJlMceev2VRwaOZOVjMnIrwh0w6CIAiCIAiCCADSSBMEQRAEQRBEAJAgTRAEQRAEQRABQII0QRAEQRAEQQQACdIEQRAEQRAEEQAkSBMEQRAEQRBEAJAgTRAEQRAEQRABEMGCtOtTm8KF8nOodY34lKm/nx0NFrW+nH/StR6Rn0T297PdfiE/H9ug11/HZbB+crmh7gm1HPXdv1Vcn4SXzu/PqFvGFeFC/4lxDXObOa8zYx17rm/tWhqmLUJGQ967+menzS70ZdE+oW3T1yyfjHc/t7nP+jeOyvPa3CfqvVR3fd+Edo2mcqhlq8t2F9doPKfxWVQfzyWiURChgjS/weQm+9XHVFevn+90gLgJ62kQauK4DYZNDvWBs/tADlK0+6GO7gkhtIXxS2v86EWu668uwdXIxMd+PwiH4epSQz1W181npXm/3T07Czfp5/kDuss4R6R1QKz8afqtUbyNjZE5uDotG0dsmsznfVMPY1jY37vJf1DbpjQHlxr6RVqob63KbawOWFtNW4vKnZb+Gj8S94n+scq9jQXJSBPxrL+nySDHxGDQTHZtBZnYbeoj6tcgY9fW5yfVh7E6XoODYdAZWiS4PsBi/E0QdkSoIK1+tjN2YJgJz0RgyAdFnX49Sj4QQ/4A9Ic6K4O8HyaGx5ewuk8JQCisE2LQqjNw/vAR6Q8vqg+vBab1CaieYhOHyV/m30ZKN2azMXIkOqUMQ/XG8H358Uk43Lt1TOXONUBKHwwamIXzRVyorkfY+DtoIesjw1wzF5UrFqI6LQc31XOdx6d0xZfLGrCvxrdHC/nT9JsgvND4bKSFFoUPCMbpLsvUpnW6zqBhExqSuflymo1PK2n5ONTMyOmgxd0zcR5rTZ8bdZsiMpbDTSujTfV5ineA6TrvQLUM1tHKKp37FJalDMy5TbNZ8jDVtc+28DUlyeN5vZvTaWUQbcX8RRlMICnIRJGextBWlvLZThN66Q/2ZfBTS+erDPz8vH299gffVC/wcYzlOu3qwmxq4GoTLXz3bOaZfYchjas9tfawhhsxp7G0eYjqwUUxjrDy1v8Lt/W+8bO/OEBo3uUnhI2/XfBrH4YWcSw+oStrs21u7eTxvtH6q68xzNKvzfev9/smYu5dJ1jK6anve6YGB4vWqprPuA64tKD+tbLxozMQi2zs423Irudjro22vJj7vHct1x3Q7FWvPog19FU3fI1hXvskx3xviv5nQtXuqy9txt8E4QX+iXAnlJWVKefOnZO+BmL3K8qimLY2bryy4bhMc3yl8qYMX7VbDSqZw/xzpEfkYUivVCsbfueKP/7+eP1YcZxIq6Z58/1qkcYRohzG8xjQruN3KxU1ereyivld+ZvLxBFl0dM7wO061XNodaLVk+53K4Ol3uxwy8OCr7bQ8VS/apmM16G2zytKieoViDCfdWO5fg0f/cGuDH63hY63MhjzdG8Lnxjq2rZs1uu0aTsn1+WzT3DEucxtxHFvO8t1hqIeGKKMPJ8AjtXOqR3vfx7u96657t3zD+w8PuDntNSjtd/5vG9EHzHeGwbc+o+1rbTr9H7fRMy967EuPJTNH0Te2n3haSzk+DqXt2MdIO/bVTb3uLN713zPOxorNAz1y8+lXqN6Pfr1Wtvb2gd99kn3e9NZ/yMI70SWRlqzV5O2YrFrVXs1OxtGHqe9SYqpzwNHhWaLT3diWoYhfQwGTcwyaWxgnNISadUp4tCShZt0LVIyOkwzTEFze7kCFm+wce0+ltuxOddU8Ou8dOELHu3b+FTi+WmrDG/bybhp4TD3aUUv2oHSZZmWPOzx1BZOMdrpqZqTMpwOkcbGUX9gGMvQfSCLLzjiruEPCi/9wQmaHSW35ZQaPqM2xq0/sPQ3sHPoU/6V+dg3exiunmnVbIYKVet26cKxBlMGuz4XZD0wVNMS1d1wuIefWm3N3lQ6Vp/I6GGj2fKAuHdZPY413BTJY3F1mmb76sr/JnZtMKzzCKVpk2jvlD6megyleYfT8aMu75vwuXeDq1u1LjUTnxhhilPv5h0c0U+zUc3HAWP/dXzvhob4XsNx1mZ2zdcY5rNP2jxXCSIUND7TDoE6panhmvqswekDwKWJHWSMhE+nhVA4C5qqIziPbOyW00/CiWlWp6jX6Q1hn2maonef5uICyU3TDOUwCSQe6tINT20RDGtxtkr+DIoI6Q/+oAnUa7NwPuMpOY2tXud5JhAa21uYaWiIPtcVrYJrGC+odtzWhTvC7KAOBBsNf19A3ZAPa8fCvG091rettmrSYqzrQF5gveFk/KhbwuXe5S9GqxBrqAvHL10CKaQarqOu7wnPqEI80oajk6n/1vO9G89fAK33rO8xzGefFPcmQYSeRipIe8LDA63OhQg/EQ8D9uYsNVUu5655DxTxYDVow3RnEXJd2j11B4Qi3eatgRZyVR7FWYtwHjgR0h8CIbkPYvUXDvU6L11YYm5r7jTtTJ0LIB3QIg04W2EWMioryux3nAgpwbSl+gB3jG09ehD66gq+Wwf7Uz3MIlCE0PbW6fhRd4TTvWuYxZAzGLb23HYILalFQByWzSLsd1ppGOr73uUzC11RudPYtr7HsIbvk0RTpYkJ0nJqb/ZCw4KTYhSwgcs8bRUCxIpfm62MnMDfyNOysdvfhRo61ulBvtjGvNiQT59dyt7eHQ/4ciAzotalP3kEjzAnsWhMVM1IYEJCvfWHekasumcvYx2knMyv06WhtkH0ubX48lnvZhDiYeVtMZBHZJ/MWOY61sOiptBRg4+f5eZH7jtjaIsnfWkPK1c8hS+tphre0OrRsPOAmkcWbqjLXWkMqCYPVoGCb41mHo983jdexjD/xw97Gt296+dOD8IcIc2ybSVz3OwnfHZacXDvWl4g+cJE04yXvyT3QQv2/DorvRxfY5jPPimUC64XFF7GQGdRnI4fRNOgyQnS3M46ZSEMK9HvwFn2lhv6rdeSkSam112aBuc3HXsjX8wefAfM01T+2HrGj35B1SCLY+8A1lr2GOUmAKU5OGvQWnHnKqP7jh1in2KjfRm3WWfXaNR8+bViXV+B3YMJGgatjOUFwpj/bjABwaphYOW4aZpxdwH33QG0XUu0vPTrrIf+4LMMwWJZqc5dUUZX3GTcgk60VVfTDgzcuR46ss/pfUZ11jKKfsVf8vQ0Wnsb+ovUqKlpXG3BzXpMpkLdM9HCYD8fPNY+2wOVKSX+7adtqcuiouFMyPFnJojXo3mq360t6hRV++2+U4mN7a2X+0bFyxjmc/xwSJjfu/oYZdnBRL9v3O49tQxO+zQ3R3DZsrtQXxLUF1af9eBwHA0Gn/euMIFy1U/R4QzWNuylO2CScVNKGarZ9ej4GsN89km1P2v1J+5t5ieIYIniKw7lb6+Ul5cjMTERzZs3lyEEUdeomnSEVNgiCIIgCIIIDU1PI00QBEEQBEEQIYAEaYIgCIIgCIIIADLtIAiCIAiCIIgAII00QRAEQRAEQQQACdIEQRAEQRAEEQAkSBMEQRAEQRBEAJAgTRAEQRAEQRABQII0QRAEQRAEQQQACdIEQRAEQRAEEQCRJ0jLT7KKz34af+vIzwSLz2kbf7tQv5OvftrY+JsgCIIgCIIgnBKxGukWCTHyl/m3Tuf2iJc/Tb810jogVv40/SYIgiAIgiAIB0SeIB3fHi3kT9NvnRi06ix/mn67iE0cJn+ZfxMEQRAEQRCEU+jLhgRBEARBEAQRALTYkCAIgiAIgiACgARpgiAIgiAIgggAEqQJgiAIgiAIIgBIkCYIgiAIgiCIACBBmiAIgiAIgiACgARpgiAIgiAIgggAEqQJgiAIgiAIIgBIkCYIgiAIgiCIACBBmiAIgiAIgiACgARpgiAIgiAIgggAEqQJgiAIgiAIIgBIkCYIgiAIgiCIAIhSGPK3V8rLy5GYmIjmzZvLEKIxc+HCBfmr4WjWrJn8RRAEQRAEEX6QRpogCIIgCIIgAoAEaYIgCIIgCIIIABKkCZW936HLgu+lhyAaCOqHBEEQRARBgnSYUr6kG6Y9IN3MFaiW4XUCF14yFWTfdYkMcMIpbF++GO/sOCX9PqjdjncW+0rvZ54GPpn3DFpe+To+kX7CT/bmoG/fHJRLb4PRrRmyD1/Ao0UNb6Pvnf147YX70fWFJdgjQwiCIIimBwnSdUXVERS0P4idVdLvJ0nj9mL20r2Ykt5PhtQV3+NvmT/j0ZzmGBEjgxqK2oM4ei4e3Xu3lgEqQkieVyx94cnJlfPQcsJqnJR+IlCaYcTjFwMvsX65VwaFG6VLmAD9T7S76VoZQBAEQTRVSJBu4tQW/YhXel2MO7vJgLoi+hbcM3487rEIyUYO/nM/zra9Gp2k3x9unvwczpx4EDdLPxHBxFyKZ56IwitvnketDAof9uO1bfH4+Klx1NcIgiCIyNz+7sAr+1E2R3oYrVd1wa3/JT2cfx3Cu3f8W3oYIy7DwAUdECu9Qlt88zm4UvwSXY92RGfpA77BzonHcWS19FqOr151EBu/aonf9PvWdZ6prfGbR9vY5O3ilzltkXbH5dLnjOr1D2Pujlsx5dnRrvJLuPlH3kfSg3FIXzoFSdInjqv8PabEv4a5eVvUwFvzMHvcjepvwQWszvoex++/DA9ZBGl1+7uDKFq8BZVqECMe/canSEGXm2GsxNGEfmhfsQX7z4lAtLhhlC4sn9rxDlbuOyt+axjjzfBzlaLlyHtwS7QaUjJ/JoZmq7/NdMQ6KTRzTXCniafVYEO4SjHmXLkJCQtaYcLEQ0BqT6xL+QxDefqskTgzOVlNVrUa6T12oVD1IXXBJOSNipM+ThXem5CLCVoCxvQ1z2EqO9x8fiOtsKhkMu7Wsil+HS2HszJItOMFPG5hDA5m1KCTnsZ6LZ7L4BhuvjFpufQwej2BgjkjcAX/LeKAhblAhpbGGC/4GqunpuGlndKL3nhixcsYITqmGvfVAwW4aqkrTe8nC/DycFcO1jKMyd2KTLuXuJrzePTOnzHk/TCYKfFA7bo/YdDuq/AmE6qNdxVBEATRhOCCtBPKysqUc+fOSV8DUvyl8mGx/M04mf+p8k67L5X90q9UViir2n2q7KiUfjdOKB+222fKw8wZZUfGPuWdv5yQfkXZ/xfmz6hQTkq/ek4Wpp/XJk+f5XDGyXWTlKw/va+fW6Psja6mcJEufY5SZvKzNG+UqgE17ytzmH+ploBT/Z3yh37nlMJq6Tfwww9lSn5urpK3qYr9/kG4qk15Sm5uvlIm/FXKxqW5zJ+r5O9V43/Ym8/8ecrGSuk3OTW9MT+jE3kv3ahUGcI0ds2drlw+d7f0eWD335XL2/xd2SW9KruVl9uwY8cXKicqC5X7+W+ejzGtDH9Zz1495v4VroZzcv4TK+aq55F+E+J8c5V3tSyt5xTxspwioFJ5d7z5nI7qwBsnC5WpfaYqhdaOpLFnvtKnTx+lz5RC5ZQIKFPmM//U1aqPc2r1fNPxZa8a059SCqcwPztm/h4RIPM0nNPqF2UypDfxg1L4+FlloW2cJ7Yrs9iQxoc1q5u1Q6aYaR+PmdvVBH5Q88EMJen5NxR5hxEEQRBNkMgz7fivjibtc+zNl+KXuIBvTLbIP6H6k2/kb3tObfFgzVr1DapX/xJduXZZ0vk3l+GXq8/jkOkcRi32L9F8BPDtUe/nDB17UPJRP9w+yaWljh3yeyRhCUqMq8WumYEpmgY6uj96XANUVxkmy6sUrEcU2tlp/D79EpUw2yu37t2dhVTiy09lAINrmFOul57re6LLZWdxxu/5+FM4WHEW8d1vgWfDj8CZnjECamu2wqKxyUB8DFKFHzi58zMUZo00aHaTkb6gFQqLis32ztl7A17I+MmmQ0hdMNalnY4bgUeygFmbjHbfHbFukVbOONyd0RE4UBWyMqjswKZ/fi1/2zEGC3UNdBIG3suOqHDNR1wxPFNqn1WS+o4Bdn5lmLFQNdC6hrnbvXii1w58dUL1lm9dzuKfdOUROwLj2DmWb/W8xHH/MX8WHfbG04rClQNu7uleMsUz9vHKM73VBARBEAThBxFoI30SH7Xfj3c1ZzWjiOuAtE8uAzKP62k++peME7TBrUdbo/WcU3p8wSqDAFz1I8vv3yiTccLZmWqM+IVB6LscvRZ08dtsI2Bqv0Q1tuCDyYadPR5ID+mOC6dOnwUuawlpZSGJRktWtWdPe99Vw1e8G5/uwn50QU9NIK9HKg6fZgJqPlpeyXf9UJ3VVIPbX6/LOoShWhq/FhVWoeIAUDgx13QOe5MVC4U1qJA/gysDgwmtL694AngxDX379hUux9/FfNWr8bg8VjijmYgXKo5y4f1rfHWICeaG83OX8baaJjTswPNRUYiycc9LU5Mdz9nHRz23Q01AEARBEH4QYYI0t10+hVPcHvloF9UxofmXMlaHC9Na/Kpf4tQd1t0zuDDtOp4L3bqwHfcLlh/XNst43XVCL6PZbEMSfTVi0Q+3z1N39jC6dM1I2glxURgCBcdqpN9A61YtgHNnLIu9anHmHNCilSe9sa94ew4erkSLhE51oo32RUJiK9Ve+gRfrGhwunZYRV3MyN0kLMIudHK8i0gcEjqrdtdu59BstG04eYQJ86kxSJB+TuBlkHBheutWbOUudwyWT3ocqx3vq1iOnNEvAU8WqMfLPLxTia+YAJvQnuu4r8BVHVWNtX685iZ57rRd2vnzmXjSSBMEQRD1S4QJ0v/Gt6uBX16lic5MsJ5pv7BPRwjGXoi7BKblk3GXM3nj3yh7xS99nzsiX98mJoFxI3rcugUf5Aa5v3TMLzCkl4L1/7SZPr/+amHGUWrY0/ng2i2ovMyz5vjUjlJhDnK1P5rl2u0oPe6+5Z0RIewGbdZgT5te1yE1Ox9zHMukqmBspU0HVsbCz7DZZrvDmwd0ROHEZXjP8VaIxcibeBqpKckmYd6FfRmEsCs0vQ4E5CuvYmKnH1R/JbTjqlDMYefyoZH+es0SLMcYDJSmHtwUZMeLLzoT3mt+xPqdUWgbLi+vBEEQBGFD5O3aYdmRo/UqJoDdcQbNP5EaY+uOHQzTrh42u2q476Zh2bWDY9i5Q+za8f8uNe8EYoelLM537diDPFtTDfPOHOZdOziuePfdPmqxYeZglPTegClDXAYbtUXfov/Gi7A5+1KTGYfYtYN/RCV/P/R9N5gQPWqMy4754NrF2HJcejiWeDPaLh/mXTvEzh5numP8MPdN75o107SR1h0rtB0t3HeyUNF2zOC7duQDfHeLeL4zx2dI4+Hgv2vwiLYrhmXXDo5r5w6bc6T2xEGLxprD97t2mWx437WDo++64S1O4LQMXJDOYMKrcTcNiXXHDoZpxwxt146tma7+ldsXGVioa4y/XvM40l7UTCDYOXIHYNOkrzBOHGPd0YPhtusHw1c5JJ76ZcNTg6JXH8M0t/fjazH7wT8ihQR/giCIJkVEbn9HhJLv8bf+F7D/iUvwSoprGl3d/i6U2AnS7lveGXEJ0o0cIUjDst1dpKEK0psGWba7C4QI2PqOIAiCIDj0QZYmzyV4KOcirH/pB6y2sZUOhoM7tjPxWcIXFJ5rgfbXGrXRpai8rD06hZfKkWhQLmD1yz8BT/wHCdEEQRBE2EOCNAF0+0/sz4lC1j++lwGhodO1wIeLF2Mxd1vPootF89y69z0Y79EUhGiS7L2ArMRmptkRgiAIgghXyLSDsCX0ph3+02RMOwiCIAiCiEhIkCYIgiAIgiCIACDTDoIgCIIgCIIIABKkCYIgCIIgCCIASJAmCIIgCIIgiAAgQZogCIIgCIIgAoAEaYIgCIIgCIIIABKkCYIgCIIgCCIASJAmCIIgCIIgiAAgQZogCIIgCIIgAoAEaYIgCIIgCIIIABKkCYIgCIIgCCIASJAmCIIgCIIgiAAgQZogCIIgCIIgAoAEaYIgCIIgCIIIABKkCYIgCIIgCCIASJAmCIIgCIIgiAAgQZogCIIgCIIgAoAEaYIgCIIgCIIIABKkCYIgCIIgCCIASJAmCIIgCIIgiAAgQZogCIIgCIIgAoAEaYIgCIIgCIIIABKkCYIgCIIgCCIASJAmCIIgCIIgiAAgQZogCIIgCIIgAoAEaYIgCIIgCIIIgAgTpKvw3oRnkL6ySvoDoRhzrnwGLaXzmlfVaqQ7TesV9ZxziqVXQ+Yf3PWELydXzkPLCatxUvpDgc88i19nbfU6PpFeHRFu0wYNQjj0hx14PioKz++UXjdO4O3fROHOZSek3wn78doL96Or5pbtl+EEQRAE0ThpghrpZEw98RzOnJiERakyyBYm7PTYBSyYxNLy9M8hb1ScjCOICGfnBky/+y38rpf0Wzm2Ae+/NwtTx14pA3yzZ9kLQMqbKHuKu6fwyOEX8Ni6GhlLEARBEI0PMu3wRFUV9qAV0nrVofAcNwJ5JKDXD8kPipehqcnSH47UW384gbfnTcfoUYPhSUze8fp9WDFzMHpLvxNuHPsmft9detAFo2+6Fh9+XopaGUIQBEEQjY0IFaQrhYmHZnLhNkUup/F1N68B5vNNZcjHLBms4t28RJgvzFutX+OcYi39PLxXr1YgqimNfh1Gkwp+fcz/3jw1Ln1lsaG8Mo2kgl+PXR4cn+Yz5jJ0mnhahrv4RJZBuOGHZKjEkr9tX+FlMraXm+mIub0055cJRjj1B5/a5h3Y8OxovPWgP2I0QRAEQTQ9IlKQLpyYj4oM1dzi4IJWmDXcaBPLhIxN3XRzjDMlPZGane8uQHlACC1cSOmxC4U4jQk9NAHHxu7WE1xoGn4ai0pkGU6MxHQZpeLAvCR7l7jGdVlg17cJCSU87WkU7HQmOe14LgpRUTbuuR0yhS+4AJuLCZ1H6nW5rvMudDIKmYW7UJA4SbSB1iaivJsMlc3SDD08wFUPzD9VExS5kMvq+cY1rnq6cWKuQZB0LwM/lxEuRA890BMHZfyZNR1ljERqed3bwAArU6eFMTIPSxlFGZjgm6WVQW2z1AWTnGuOw6A/GPGlbT6xbA6m330nBreTAQGxHyt2f47bru2OaBlCEARBEI2NiBSkuRCjTdG36XUdUpnAW6HLE0womWyYv49LRhoTTvYccSZwtBk1WRV2uACOVgbh50HcLNP44pNNh1gZx+LuYGboU3siXbuMrAEsrzgkdJZ+B/R+RoGi2LhnHGoZq4pRUNgR6wx1efNYVieFn2GzXpUd8YgmTMryJiSaBV0eflDPIxnpXOg+XCl8J3d+hkImoLrMLWR8UbEqrNuUwUwxNmezNpo5Am1kSGCwcyzS8khGfyasamUEKlFRyM4xVitDHPqnuK7BCeHQH1z40jafwIaVKzBr8r0ezT6cwO2l52MIfjs0RoYQBEEQROOjUdpIm6b6r8zFhEIZUS9UoeKA/NmABK2RrqxBIQ5hqF6PzAktfQg4UCUE5YrDp4HsfENbWUw3RBm8IOzY65p4JKSexoRlmpa9GHmsjKmJ8dLvi/DoDxpC2zxzKu71pG3e+X9xH7wsQnTAnmX34/7D12L2g+NwowwjCIIgiMZIoxOkuWnG0OyOWCe0yD6myxsxQWuk42OQyjW1ej1qbnJQmlUhPHeOE9pfob3WTSYMTtcOhxG6wK+aeUTmAlGpbR7iuQ/sWO99EaIvatf9SQrRf0RKJFYRQRAEQfhBoxOkhaCWGoME6T+5clk9a6Tl1L9mniAWklkXl0UAwiTmEIaGcqFm1WrMzwamD1BtFIRZjjf79eRumI5D2Czj+UuSSWMtymiwExa2yJbFhsGimZcYBX2PpiZ2hFF/8KVtPvY25jzr35Z3JkqXYNDuz/FICgnRBEEQRNOg0QnSN09WF4t10kwFDg8QC7R09N0TVJOPwom5qj+EAmObUWOxCFoZ8oE1Fq14PZQheOJw9yJW7gNm0wv3HS0806ZDK3ZxrrZo2eMzpJUYtqDjCwFLemLPcEP+zLkWGyZj6pqOmCXjOxVdh4OmxYSsjDN7Alr9DQfWCdt2F/riUSm8ank53nGDlfGRLIuJC3f+1EOY9Adf2uYTW973e8s7F/vxWtF68Wt+keGjLMy9ViqCCYIgCKLREaXw+X4HlJeXIzExEc2bN5chBNEEEFpuJqCbFpuqWuU9/uzc0dAcext3tj+MqcrTHgRl/qXDOUg8+r5n+2mCIAiCIEw0ysWGBBEqTh4xmJJoyEWON3aIHPuF+tnyjiAIgiCaFqSR9gvf9q3T14T51/MIvxF7VWdLj0RtZ+oPBEEQBNGUIUGaIAiCIAiCIAKATDsIgiAIgiAIIgBIkCYIgiAIgiCIACBBmghbLly4EJQjCIIgCIKoS0iQJgiCIAiCIIgAIEGaIAiCIAiCIAKABGkifNj7Hbos+F56mhjhdu1NuS0igu/xt/7fgT4aSRAE0bA0PUFafI75dXwivY2VU5veQp+crTgl/YFQvqQbpj0g3cwVqJbhdQIX3DIVZN91iQwILbXr/iQ+V/3YuhoZYqBqPR4zfNLaPU0Nil41fPb61fWolTEae5YZ4l9YIj7YYqJ0iSHe5rPZ3Zoh+/AFPFoUItvunc8jKup57JBev7BtC75n9jOYE8xXy6tWI118Cl113vJyfdqdu3l4z+EX3d3wdL/Lz7IHdT11jdZnlu2XAUYuwZ1PKLg367xbXyQIgiDqD9JIRzChEJa9kTRuL2Yv3Ysp6f1kSF3xPf6W+TMezWmOETEyKGSoQvDzuAWPyBAz+/Ha60vQOeVNlD3F3IPjgN2PmQTdPcsew7QrnlLjn/ozZmMJBhmEGy6k3//1OHws4t/Em4nrcb9R2OaCetFXmP2gPEfKEMwv+hOKTMJhM4x4/GLgJVYXe2VQEOxYPx2j3/6dxy8ZeqYO2yJuBPJOPIczJ0ZiugyyhQm5nSYCi0p4Wu4m4+7I+YhkSBAvZgfiMftyGWBDdMp/IBs/oT/NHBAEQTQYJEgTDU5t0Y94pdfFuLObDAghtetycazPm/jz0LYyxEztuvcw//JxGN1dBsQNwW8TgfnbpCDMhOA3Dl+L2QO7iGggBil9hgCH35OC8H6s2P05HmFh0SIeuHHgONz2zRKskML4no1L8GHi3UjRhMHuKUxA+hzTNlo0jTGX4pknovDKm0FqGY+9jTnPjsad/a6UAc6py7Zwivgse+p16F+XwnPyg0JID8uvTpYuwRut/4yysVqn9IT68jVk2Y9YbTPRQhAEQdQ9ESlI8082u6Z9jdO2fPp5Ht5bqU7btpywGp9oU8TzLHO4cmrXPY+6pharcxYiZ9NWTJ2xEH1mFKL8QCH7y36btMtqOhEu3FtYLaUroYlmYWkfn2XJypFmk0ajSqYV7r1PZWioqMWGmQbzjwcexgbL+avXP2yI19xclMt44AJ2blTw6P2X6oKozqdFWLx4Md7ZYdC5y7Aih5cSPfSP+L1HeaQGn3z+OW67trvr3EJwZn+/qcRx9qe2bDs+vPwW3KwLdTUoYkI28DmOnWR/Sv+J+RiCnoZzCMGZ/T1QzaWb/djF8nuksyaIM0qLMO0b9vfr424Cc/SvL8KQnT9jZxCC0Ykt72PFzKm4t50McIyXttBRTTzU+8bd5MJ8bzaM6YSpDMMPyVCJV/OSKrw3gYWt1NKwcUEbJ9hYwpu7Xug+jr34OZwOiPkFhvRSsP6ftN0jQRBEQxBxgjR/SA490BMHxZTvczi44DSGmgTh05hQFIODJT2RWrgLQw8PwJk1HYHsvYY0hzB0IUsj8piERanMbxW0PbIDz0dFIcrGPb9TJnHAso9P47czBmIsE9ce+qgVCjKT0Lu2Ajt0YXkHMCYD22ao7m83nMWLy1VBu/WA+0RYwaAWTPJKQoFMs23GfRhhlICYkP1QdbIax/PftxE5B2Rc0HAhejA+SMgT5h/CZXXEB5MNwnT5XMzNA26fp8WPY4HjkL50CpLUFEwu/RHrd0ahrZ328foUjO8bj7P7PsR2nmftdryztRLxfccj5Xqe4CCKmFDNBWurcypoczrHqkKLsKN+vRK/fXAcbsNXOK4JiVe0VQVLYUv9GI71+bOYclcFZcbl8VD13fvx2gv3C23im4nAh6c0afhatGuj/hJT9tvi8XHKEF1YNyEFI/3cfrMD//feFZg1xH+jDq9tIZk1fBMSpMnFuix2rz1rEDCZ0Ll5gGaOwe/NViy905dUVYjlQmuniacBdu92ksKu20uwF6zjg7j3jTgwL5k1sQaPiHg5Toix5DNsDrhN6pJm6DUwCusrfpZ+giAIoj6JMEG6GJuzW2HRzBGQcgnajBogHnibDc/a6RlaPEs7NhmIj0Gq8Gt0xLpFWpo43J3BHrYHqhxqnHrjaUWBYuOe7iWTOKD3oN66MDn21r5oHR2Nq6Sf03pAqkkoTkpiolrtaSZu+AEXsu8WEif7fT0Gsvy+qrbqQAOkdjNKvuiH24ffKAMYSeNw+zVbUFKinqO66hBw6+8xWLuOpNvYNR+CqQhVCtYjCu08KeCYMD3qBiaifliEog/3AzeMkkI0pxNSxo/HeBvnSuME1Y560Km7UfbUOKhXdJVJoNSF7Kfe1DXcmgAuEAvD3kO7B7kZiRp+W2vjRbmE7LKHpRmILoC7s/9YgBrGnRsw/e638Ds/+qKOr7ZgTF/jsle+eQC7bwprUKF6hbmE0VSiTa/r2H13GhWOOi27Dxe5BHCkGoThyU7tL9zHh0BIXfDfuFn+FmNJXJzsE2HM4Z/dZjcIgiCIuieyBOmqKuzhGuceUlMlXD5myeigMAoEXgmNRtontZrph3TvuOkuG5YTh1HNXkhiDcI+k9YRm8AE6Eq1rLFxTND66DVdQ129/jWUux3jm9a9b0MXVLJ/XXBb79YylBMajfT8Iq5lfhNlY6X5xclKYZqhc/gFi5Bdg2PcNEPjmyUYxLXMT/1R2kHX4PjXIkbyOaa9bhaya6u/En9Dywm8PW86Zk2+F/5bR4cCo9kHcz12oVDG1AtifAgH3MeIkI4NBEEQRNgQWYK00Ay1Mqzmd7lgFg2pi5tiwGRAB4RGI+2dT5GTUw4MukuabDB3jyfdZQNxZSJirdpl1KKavY3ExhvLugUfTFZto1UzD4NZBycuCkOg4JgXm+CDa1di/+X90O/y/Vi59qAM5QSrkY7BzddeCxgXGzKEkJv4ayE0R3e9BbfBuNiQUXUcBzS76O6/FruBGBcbqoL2tRjSlQvNXdAzkf0xLjZkHD9lsc220KVdM/nLD45twPvvzcLgQPuhg7bwDDfNYC+1WSNd9yU3iZCxTQv3MSJ0Y4MHEi/y2JcIgiCIuiPCTDuS0d9qlxk0xcibeBqpKclBTQeHlNpacH3lVbrqlgnWNhrp1rG/YmlddtWB8PWax9G3b1/0zXUt/3NEdH/0uIYJyWtcOsDq9X/EB1+Mw+1D1HKXFy9BbPoGlw310lddZh4aPhZLndrxDrYcj0e/YZ3QaVg/xB/fYl58GCRCUP5mCZ7X9o6uWo/n+S4c2uLAuO4YwnfYWKFtZ1eDohV8Fw5V0NYE5flFrr2j9yx7AfMNCxRv7Mx3+XjBtaVe6RLcf1gTtC04sFP2xI7X7wMC2vJOEtTCtUpUFLL30cR46WeC9bP1rJGOS0Za6mkU7JS2JHyhoHWxYaNDXSA6JCHChnKCIIhGQsSNvjdPfg7rOhsWIgnnx64bwl76EIbqx+YDa55D3qgAJJe6IrovnhzUAsve0Uw7inHVPUnuAlLnVHURor67h/uuHYGzB3lyl425eVuAL2ZgrmnHjWgMfjYPSR+ly504eLqOpoWEScNnAHmD9XjN5ZlkdrlYauOPbjaeXIheue8s4vumoJMI6YQUsfhwpXNhWv8QChNumffD3Y+ZP3IRNwR/lntHi3C5p7Rrp48YpDws944W+cg9pTUzEMaNY+Xe0SL+fnVPac0OmtN9nNw7Wo3vKvaU1sxAzNT+82es73URenmxU7ZnBzYEuOWdC89t4ZtkTF3TEYUTc+V9lYuKDPOCPtdHVlRzrFnD1XswfWWoVvHF4e6ZPQGtDMOBdRateN2XIQSIRa2yr3ETIvYSJvqNzYeAtBevIb8OYAaDIAiCCJoohc87OqC8vByJiYlo3ry5DCEIb6i7epT03oApUkPN4dvhWQVu9XPHF7D/iUvwSopLILhwIbgtvZo1izDhouY8Hr3zZwx53/+PoZxYdifivpgK5ZmA9dES+7YgwpELWJ31PdYPpLYiCIJoKGg+kKgjjuP4F/KngerKLcA13L7ayCV4KOcirH/phyb8YQkmFL38E/DEfwTwRcEgtrxzg9oiUqgt+gFZuBjPkBBNEATRYJBGmqg7aldg7uQZqJZewTUzMOXZ0RZBWrL3O3TZdjH2T7xEeJuURtpy7Q1OuJWHf0jF6y4gfBFyU/qUOJ85+Ak9N/8nDOtkCYIgiHqGBGkibGlyph0EQRAEQUQUZNpBhC1cEA7GEQRBEARB1CUkSBMEQRAEQRBEAJBpBxGxBGv6EQ6Q5jyyCIc+R32GIAgifCCNNEEQBEEQBEEEAAnSBEEQBEEQBBEAJEgTEQTf8us7aF/aJog6Z9+rGJzv5+fzCYIgPPI1ipZkoci0L2xThH9Q6ttG8b2CpidIF78Ovz4p3lg5UIg+Mwrl574jAe2Le81s9809uHYxFi8uwkHpJ/wk4vpDPcCF6A0VmHqL6xucdcNBFC1ejKJPpdcnxZhz5TOYUyy9gcD35RafSledt7xcn1Xnbh7eC/Rr6p7GXhEe5PWEjBDUbZPkU+TMWIicA9IbJJ/Mc/VNV59R20YLb5jP+pvLwJ1bX7HcW+7lvAIpNyVgzjuvYr8MCQz+9eC5YTpmO7mPmmHE/VHIujPylWOkkW4wQjvwNHZKF1zAK2Obhe2nkE/teAeLl2/HKen3H+oP4UU5Fm5Yjt8MzkaK7deDIpy4Ecg78RzOnBiJ6TLIFibkdpoILCrhablrSh+90YgM4br8vYXo857jt7Gwhb+4Dc3uiHWiv3H3IG4WMcmYKvyTsChVBNQNQhD29MKolUG6NR0xa7jx5bAK7z37GdK0+6WkJzAx173v3PAwctovR+aS1fhaBjmGf+jsAbMAXb6kG/IiUQvS7T/x9tifcW/WefZaELmQIE2EPzXn8fqyKGTf5fkre52Gjcf48SnoJP0EEQxfb16Kd381Db+5QQY0UU4eOQ2kXof+dSk8Jz8ohI6pydJPNGkqDrM+l9VNCs9hTnwMUnEaFbrQHYe7FxleNtkL6yNZwKxN7m9hXUYuwG/+dzbe3ScDnBI9GlOW3oaSBwbjgy+WIO+BbihJ3ov0up44qyO6T2yGR3f+hPf3yoAIJCK3v+PTPkOzpQf8zVV7Y+Wag01IWNAKEyYeYg+AnliX8hmGTuQ35kicmcxGaj6NOBxYtwYYOpylERjzqGu45nEjlkmfiRsGYtvd10uPNV1b/G1GKrR75dSmt5BWnYxtSZ+jzzvH1UDT8ZxarM75B140vOqNvScDmZ3ZDz6V/w7wt3uAh7Tjo5NQkNkXrVWfI8Sb8EfSg3FIXzpFlpFPO/Eb3SYM8jPh5XMxbUUipow+jLnZS0QKcx4qtUXfon/FL9w+V823IuOa4JX7zsqQePSzCNMi/kx3jGpZ6krXth/GD5OpPi3C4tKWGNX9DFZurVTDTPnwafctQN/xSNGbhh2zFSJNtOn8RlqwgfIe3BItvR5o1uzLRtwfgKQswwAvPhl/GLeLh0C61KhY2tv6WXnTJ+X3sIfGa2g77/c4Plk7vh9un/cqBuv1rPU76dW4NQ+zx92o/ub9Tu9vljIKuA3jHThy0xZkWARpdfu7U9i+fCX2n1PDcFkXjBpzi6wnNe5M91FoWepKE2/sPxzRh7T+puKWxgPNmu1l41w+sGYkMDwfs0So+yfSzeMkMH2NnbDKx0yel70gy7WDnYquw8FFI9BGhvmDtQymsdby2Xdz+arw3oRcVKT0xJ6JPA07Thuz2bgeaHlsEc8E7VmgopZFrRu1fi3I54mon4mtLM8PY53K68iYhISFuZggLzZ1wSTkjTI0lqUM9m1lD9dEP2QrjBnHCOu93wJPZt6HEdp9U7sVU3NO47czrsVGfZwxjzEc67l6D7oLcwbwTNTxCfcMBN7RjrecwyGiz0A+r21R67QgxVKHAmubuT/bPd4Xlv5oxK29JE7uD2/Xsz+/HzKxABtGmgYgB/Cx0NMYGCI89kkn96Z2DxjHKM/9unTBOdyLZm7P+IiBC9JOKCsrU86dOyd9DceuudOVy8cXKiek/8SKucrlbf6u7BK+3crLbWR8ZaFyP/89dzcL/rsrjfhtzKNSeXe8TOeI7QrrFPzlw83N2iGTOOKAMv+PC5T5+6XXhBo3ZWON9CtK7cY3lVv+WKCUmfwLDGHW/GqUwvks/t0D0m9hf4F6/PwtSq0IcD+nL8re6Kpk/el95aT0n1w3SclKn6OXkZfhoz+xNG+UCp81vVI2h6U3hpnTq/ygFD5+VvnDmh+k38UPP/zgcnvzldzcfKXMGMZc1aY8Fp6r5K4qU8MqNyp5zJ+/V6YRx7H4pRuVKnFMlbJxqSH9D2VKvjG9foz5XOI8eh5mV7aK5cfPYXXsHC4ivz/w9lxquCS3/lDzvjKHtzdzWjrRJ/T2Zu3/hqF/KKXKUpZ2zjqtDKo/K32S8pEMsvYpW7+xP4k+5zpeK5Ox3MrJQuWJvz6urHEVRMe9f8j2tfYf1r5an1H7oKG/iP6Tp2yslH5LH9P7rNXJc+jjXJu5yruVarms4yIf5142DGnmcdKImpcxrT4minNYnONx0r5M/peBp7eO667rDhpRJmN+dmWxC9NwjxN1bX2+GNNYz2n1y2eXlr7q7dG2zxvc/ZZSpSYRlL3r6f62uffF/f6mUqjfB1uUKWL8cI0Z1vyEXx8frKjjhTFP7+mtyDa2cfevsDa2Wqfu4WoexnC3fu/kvvDVxzTZQji7/mzA0pZulOcog94oVE5JryPEmMXHVf681P5axrBg8donndybWnu68vA8BjH2fKt0fvw7diWRSYSZdhRjc3YrLJrpevtrM2oApuMQNhtmTqZnaPEs7Vj2+hPPp1+MsDco/Q0yDndndAQOVOGk8PuiN55WFP4C4uae7iWTBMuBz9kbfVv8Vrzpq7QekIyxOI6NJhtao8YgGlex5F9VS5XDgR14sZbFmzSSVli8rnG8HgNvAHZox/tkD0o+Ym/CkzRtIRA75PesLEtQottqRWPws3lI+igdeUvmIu+jcUjXtYsaxjCWfvQ4oOJLl0YSP+P4TqBLuyBso7nGUNNAR3dC+8uAs6eN1szx6KdrFFvjlu7xwDenELi9sxnV7MTGaWXyRUT0B0bSFJNmN7bHraxdD8GahVEDHBvfz9DerP3HGfvHjWBZoLpSasglSVku7UtSMusvXxyWx9eiuoKFjXblIeIN/am8eAli0//k0t5Ej8bt7BzlxXtkAKOmAruQgKvMHVWl9iCOnmP9xdB2nX7dBS3OHcVBw3W2uGGUrl1ufW17tMBZnJLxBw9XsvjbPM5WtO59j31/0fuoyvQ1Lg30zQPYGFZYA3b5KskPmjQ/bXpdZ5mC9gafnlZtPA8uaKVqmTSbUI9aQivuY3UgpC74b12bKMb1uDjWK0LHJ5sOsXOMDcLuOxn9TVP3VdhcdBqpKcmm6+YaTb09kv8bi1JZW8gJCbcyWMwBrhz7vu3zRnn3XlwpUvig9lNsrG2BJwcZ7v3OvfFk9Fls3Ge+OfUZKkZcbAvgZK06DtZuxRv7WB5jvM9Qjb3HpYFOSmrLjjvNasQJLtvjdezahcZf+u00wbYU78Us9mx/xJDeTT4I6r6QsPZR1xcwVxKD+R7t57m99C4Usvsn3dtt878VOCF/OkKYdhhnbflzNrSmHb76JMfJvWkco9S28FLXOxUckz8jjcgSpKuqmPh2GhN6GFfNeph68xfjQ8grO/B8VBSibNzzTOALBaeq/5fdG63Y48yIRTDimNJEY0Rmhpxm85RHCKnlwskWfDC5G6Y9oDltqsnIjUjPGofyj5YwAchssuERXTBqQM6dYWJZaFB3FLFxa53tMRIR/UHApxsN/cFooqHTD20NT//YIa9ituHlqnr9w4b+ZDYT8U00YhOYULxihS5Yb1ixBEi4WuavCtrVeYMDP0ftGSYSV2KLsR3z97Mwp7AXtG/kTw+IhavG/DXn12JWPrVqGCc9TFnXGWKsDneqUBGCxb03j+2J1Oy96oKzqmIUFJqFOU/sOcIlCrUMhRNzDc80s+nBiWV3uj1rhPvN284EsJrT7Kn1KzFeuGDjB5P0zS/KLXBVjPzJaD3gPmzTXqxt8wgvVHv+GPYKbCQeCalaXXNCfF/YCJgqqvnDBNYXXEq7UMMFaIfPVDfc5RiX/OK7TwaO6wWyMRFZgrR44+G2gPJt0ODs7G6cYn8DeqLuNdKtY39l8yZfi6/YmHdVrLORzD6PEBLNhRNum7UXs5eanenNmNu8Zh/C7VlMqMp+GBt8SKfVVYeAaxINWsmL0JbV6/5j9fdp5lOnmVh0WUs2TIWGYDXSEdEfuNA6k71IcVtkrS/Mm2FoRweUz8XcPJj6VPqtMs4fvpiBuUJIlvb4mm20FLRj0ze4yqg5PQ0jJgE92Wv1V3Zvc9EtmbjBbeit7enbHt4pTjXSnuEP8XzMMmj1+O4BdbnRQZMmLhlpqarW8+TOzwCDps6eSlQw6e3GDlzYjkNCZ1VjbXyeCSe1/0FrpGNasafW/4rxwgUbP06yp5nD8cM+j/CiTYdWNgoxY13X3X2Rmhgvf6l8Mk8K0U7WXv0qwVk7hhR3OcYlv/jukwEhXq5bIcFcVS56RaGd/BlpRJhpB59GO40Jz652aIbhhGLkTXSfiqt7VI3isnKb7Yo6Xyum7d/Y5Bq1yt/biGXRSRgrp918IvN4KNjtkKpX4/G+fdG3b45F28yn3bfgg1xN+2fHHuRNngHwqfSk0UhPBz6Y7G3fyz34IG8LYnv3NwhgzdBrYBTWb/yRDf31wUHs2ncWLRI6SaElGi2NpiC12/GOZZEYp3WrFoBlet8/Ir0/HMfxL7ipRlvpZ4J1rp1G2jPiJQodoT/bmWDtn0ZamhsZX+4spkTc1KM674/eX+hib0G/X+3Alk9tNqYSpkGV2OJwNsGd1uiU0AJnKw5K7bK6mDW0ShpVeHA93OUUs/TVC0K4PI2CnfLVzWZBX8jQ+uRUf7cSi0P/lFYoLCqWzxPrQjUNVavprnXUUM0DZy2ch6kTW/nURp9cuUmYIPSXMgk3yymcuCzw/bklwhRj3+fu42v09RgYfRYvfuy6909t+kCYehnNxbyi5bF8a5Amb+XIEePH41jtz+DghORuwoxjvmHf5k/msfbUTSsc3hdCYWfou95g/Xpodiuk9XK1ubp9H1f4+Rai93++HLj8Klwh/eFCqPqkkU+WcTMX+x2ASrf9DCReFDLlVX0Tcdvf3Tz5OazrvAudDFMOfn1gRdhLH8JQ/Vh1dbVjO6yQEY0RY5LQe99G9JmxUHW6kHM9MjOTgI//occ9dNLfHRRYHjMGYqwxf+ZCuU9x0ri9SE/QtH+a0wRluar4mhlIH6LeHrFD/oTbr+Hb9RiFaXX7HvVYJmln7cUUmV4j+tcXYcjOn7HT7QtIfIcEOe0thFttyv0dbPdLoDVO1as7dNzTW6tp1Wb67L6Vanz+GXQf2QXskWXm+hT0a3sW+/O1fPwtQ6T3B9WEx2U2MRjHR+f5Ne3o6h+yP6xIZC9f/WSsE27E7eJlTetPmjP0t6QpmJ3V0S2NeQ/WK9ArsTd2Hd5uI5ix/jBmFLp8s0W2s3R+mF207n0bumA/VopjeX9j+bGXtdCRjKlr+INQm5rlu0aY94vmD3tt/OOC46zh6ngYuo9cMOFyprqHrjgP3ynJov0LWRnYi88Ark3b+RLe9nMLrTajxmIRtOcJfxbY7VGsXktqdr4sL3PzLEI1F+IKT6PQw7ZtxmlyscuDUVPJt/9b08pisuj/vtWtB9yOJ6PZy7J+f2sfWOJmXuZ7P+3jX7ntyOEdnsddeJLlmKbnvxBTDS/3dQ5/GRN1o+5+otep3has38t9m7U6HHrAuMOL7/tCxZrO0Cf1MkjH+7Vxb/Wq1exl6jT7YTVBtduXuhybjwK/udafUbKeCLpPypdPeU9zJ3YusTVz+R67lgGP9onQHTsYEbn9HdFIENuQwW27OzvE9jiHL8bm7Ev1t1Z1K7IgMWxl53DpX0hp1iw8PzATkYit8z5CD7vt8BIM2985ohwL509ExY2r8GJ/l74oJH0uSKjPuPP1mseR9iLwxIqXMcIve6JQoW33ZTUzVG1l7bdqI5oygW9917iI+K3vGBGnkSaaJtqm7c8VNbwgQ4QpJ+wWqVpNTpyShIzBY7Brz0soCvUUNBFiyvH2izuAXgNwS4MI0dKEIGtkUGt1iCbEvleReXQMcpq4EI293+HeZRfh7QgWojkkSBMRwiV4aHMzdHnpQsR/l5+oI5KmYIqbaUc6qtM3uJkLOeKGh7FhcALmbDfZfRDiE8rmKV+z8/R55dDDNdF9+2Zg+b0LsXXOiHq2NeXaZvWahQlBMAuxiCbE1yjaXYGp9zyMLjKkaXIBq99UkP3+f6K7DIlUyLSDiFjCYZo9WGiaPrIg0w6CIAjCCAnSBEEQBEEQBBEAZNpBEARBEARBEAFAgjRBEARBEARBBAAJ0gRBEARBEAQRACRIEwRBEARBEEQAkCBNhIgLWJ31LVa7fX2QIJoadC8QBEE0FZqeIC0+8enHJ8XDEnX/0tB9zjdYuODwPbISf4ERMTLIFv71L/8/feuET+bx/VzDvF3l52Xr4vobJ19j9dS+eHyN+4e6g2ZvDvr27YscPz8p7YxmGHF/FLLu/I72PCcIgmjkkEa6SbMHeQ90Q16Q35uoLfoBWbgYmyP860TBcHLlPLScsBonpT8sER/SqL+PZTRpuv0n3h77M+7NOo9aGUQQBEE0PkiQJoLke7z/koJH778UAXw7LmTcPPk5nDnxIG6W/rAk+UFWxufoM8LhQLdMbN26FZndpL8O0D5r/36daL0JgiCIcCAiP8jCp/GHZksPOmKdLkBx04FNSFjQChMmHgJSe2JdymcYOvE0kDUSZ/gnXPn0+nBg3Rpg6HCWRmDMo57g2sEeu1AovakLJiFvVJz4zbWbnQ5fh0UHdmECSzB9zUhgeD5moRUWlUzG3XHctCMXBSkjkVaUL9JwjHl4h2ui02GriL41D7PH3Sg91nTjkL50CpKkT7D3O3R5Mwqbsz0I0qK+tXpWmb7GIEz6qoeJrSxtw9s4H3tkOjUNa1+Bp3ZU60urJ47TMvjCfH4jWluxn5b8TeeWZatI6Yk9E3kadg1a32T99+CiEWhjSKdfgylOxXxfGK7Dcn4jpmv1Wg/y3ioZgIoevC+qmK/FSxmcUr0aj49+CTukl9P7yQK8PFz7+DM390jDSzult9cTKNA+Dc3NNSZV4IkVL2NErIhlyPQdF2LrJNZzLfmPybUXpstz+yLjbelhOC6DhdIF53AvmmF/E56tIQiCaNRwQdoJZWVlyrlz56Sv4dg1d7py+fhC5YT0n1gxV7m8zd+VXcK3W3m5jYyvLFTu57/n7mbBf3elEb+NeVQq746X6RyxXWFCBH/5cHOzdsgkvpBle1k/pVru+1dUCp96TWq8uN42c5V3K9VyqmlkmY15iOvi6aTfEaXK0vSuytIy6TWhxs1ZVyP9inJy3SQlK32OYkxekntW6Zz7b+mz4FYm9Tr1MvuoB7f0HGNbGvEU7qt9fZXh6FvKaJu2BkYrbx1Vk3BEmxn6pT0216O3JS+7Gu/qv1rduV+D7X3g6/ymPC04bAtje5rvPad14IWThcrUPn2U+XukXzmlFE7po0xdfcrk7/OqqweWvcr8UwpZDMeaniHynKoUnpR+nTJlvulcLsx5WvFVBgt7vlU6P/6d4rqLCIIgiMZEhJl2FGNzdissmunSxLUZNQDTcQibDQu4pmdo8Szt2GQgPgapwq/REet0bV4c7s7oCByocmjf2htPKwp/AXFzT/eSSXxwcudnKMwaadDkJSN9QSsUFhW7ypDaE+lafNYA3B0Xh4TO0i/h2j49j+T/xqLU06iolP5gKf8Q5RiH24e49MyxQ36PJCxBia6ivoBjh4EhCfbd6JNNh1gZx6paWRt810My+mcBsza5GlfN87+dzx4U/z9MKGTtzWcjbPBZhnb34n2btlaU93FvO3FASDBek+i/rL21eQFUFaPAcg03j+2J1MLPsNlo72z1+4GjPsmYvkZq2Rnqvcf6XIjK8PU/N2HHvQs9m1tUb8emnWOwkGuWJUl3PYHeOzdhezX3XYFbBvXGjo+3Q1ueqOY5zqCh9kH1aix5uzeeyLLXMPsugw07FRyTPwmCIIjGRWQJ0lVV2MMe3BN68B0aNOeaZg6KwhpUyJ/e2YHno6IQZeOe16Z6fVBx+DSQnW+4hmc8mAf4z54joVlJVl11CLgmEWb5oy3aXsPjnCyfqkLFAfnTA07qQQiM2Xvlbhzqi1RaL+emAiePsPxSY5Ag/VZ8luHY27jTpq2jou7E2/UlHVXWoJC9LA41lLGlxVSjzajJOLgAhnvDvx1MAu+Trpe3YMtQWWE06LDhxFfs7luOjL59xY4bwlnMQK4YPg5jdKH2a2z/eAfG9DUZI3lHnCMBV3kSvB2UgSAIgmg6RJYgLbR03PaULywzO5cmzX98CVtmgtdIJyS2Um22LddwxmLz6h+VqGCS1Y0d/LBH9UJsXEfgi8MwK9mO4/gXPE7TUjdDu0RgfcXP0u8fjuohLhlpqXLGoXgvZgntvBrlhDYd2Dm8vCT5LEM9aaS9ImZUuP23pYwnXNphDhdktbh1WUzw9mMXkYD6pHixbYWEeOlnBFMGn1x5Fbv7xmDh1q1ioaDLGW2ikzDw3h3Y9M+vVe0xnsC9/iwoFOeowFeetMuOymChVxTqq6sQBEEQ9UuEmXbwqf7TmPBsKLcZK0bexNNITUkOQoj1jza9rkNqdn5I9xM+uXITZjFhq7/lhYIvmuJaM/u9eFUNc3nxHuk3kHSbMOP4YL1L+1y+JB3l18zA7QYFX/c+rAst+8lmv9w49E8xmgaoiwSNswfO6kE1veHmHdysY/oAP9+YkrsJ05+h8+xPEqq2UAX2wM0avCJfJjxdgx1CMLYiXkRPo2CneyEDqYdPlu1CYep16O/hxca2DAxPfTKp7xjg7Y1ycatlQR8n9hYM6LUcGbne92vkphb4eDvK/7kJGHSLvYmGJ8Q5duCl7NW6eYgJh2XQKN3GXjITL2rQHW0IgiCIuiPCBGl1m7N1nXehk2EK2q8pZKHdM06T5wNrnvNvZ4FgiRuBvJKe2DPceA3+fGBFtZcunJirH9up6Doc9HvnkWgMnjQDsR+lY9oD3VS3RBOqb0T6vBlA3mA9Lq9iBqY8O9ps7tHtYjyKn7HLZouvNqPGYhG0tuL1PAmLjMbqTuuBC8NMyBt6wGA3LlA/TCOOEzuDaO1q3Cs5GVNPjBTHG8+hC4xBt4Uk+UGs4y95ulmDqwxij2kRpr5IzJLn8qe9717E6u6A+RqM+1arH6RxObHbiZs2mdXFmo6mfqOXwWE9aGXnbihGmjTWzsrghW6ZWHivZjaRhk2DCphfxgmuwIg5BXjiUIbLrIK7qRahlwu7eAkZLyZgnL7ThsrXax6Xx2VgOfMvn6Tm4RLq5TnY8WmGc7jF+yqD4HvsWgY82od27CAIgmisROT2d0R4UVv0Lfq/FIW3N/8nussworGhzijwl85gzKiaErT1HUEQROMn4jTSRPgRnfIfyO71M+5d8L0MIYgmzt7vcO+yi/A2CdEEQRCNGhKkiRDQDCOyL0H24R+xukYGEUST5QJWv6kg+32aoSEIgmjskGkHQRAEQRAEQQQAaaQJgiAIgiAIIgBIkCYIgiAIgiCIACBBmiAIgiAIgiACgARpgiAIgiAIgggAEqQJgiAIgiAIIgBIkCaIeoZ/wObRogvSJ9n7Hbr42Iebf+CjS3/NfWfzWfamwPf4m14HzDXavcubynX6gN8Xhnr4m80XVAmCIBqSpidIF78Ovz4p3qDIT2AbPgVNeKIcOcZPNueWq8HVq/G4ITyngR/E2lcgH0xpJkMk3Zoh+/AFdwHbythm2L/5MubqeY/i0h/Q6Zrv0SnnRxnA+RELWFjhCemtFy7BQ+L6L8PbY2VQQOxB3swVqJa++kR8Mt7hPf1ojnqtpq8jhk1b1APd/lP292Z4VAYRBEGEE6SRbjD4J5efwZxi6Q1TPpnHBPl5YV5IfI3VUzOw/N6F2Lp1q+omJalRsSPwsghbiDFqSJ3w9ZrH0XfqalYSL9Scx3MvwcOHOpphxOMXAy99H9Zat6EHf0aJ/B2RlM/FNJMAXYsNMx/GhlrpjSAivi0IgiAaASRIhzVxuHvRczizaATayBDCjkp8tRMY01cKz2FK6T9+wvqxv8CIGBlgJeZSPPNEFF558zwT78KRKAwdquDvhT9JfwSSNAWzJwF5D6Sj/IsZmPvAH4FJr2JwtIyPGBpBWxAEQTQCIlKQFlrSKzVnNNPgWt55eG8lN99QTSI+4dOo/LdVqypMPOzyqGtUTXTLK/Mxi/lmDdfKwJyhjKZrtE4D87KzsPdkmvSVxaoJCPtt0nCbrtFG+121GumGeGM9aOcfms082fm2aTie20JOYbNrEn+1NNZr8VKGemNvjsskhDvNLESHa7wN8X0fx2qp0hSaaBaW9uIOYOdLSLNJo/I9di2LQvZdhil6G6J/fRGG7PwZOwP61LpWzhxYryBUtGPlw7qfPQj6P6Hwke9VswPpjKYGtYWqOYL4q6UxmScwTlzAI4bjH6lzQbEjYv0WoqXJlV2fdnpvMiq83RcOaCxtod1DDW12RRAEERD8E+FOKCsrU86dOyd9DceuudOVy8cXKiek/8SKucrlbf6u7BK+3crLbWR8ZaFyP/89dzcL/rsrjfhtzKNSeXe8TOeI7QoTgPln1d3crB0yiSPUsr7s47Ti+gzXK5DXcP+KSnn9aj6ibrTrEGnmKu9Wql5F1ofrfM7Ob8rTgve20PzG49Vz8nIb/b7K4JE985U+ffrYuKlK4UmZRqdMmc/i5u+RXg2RhzH9KaVwCsvj1TLpZyGr55vyK3uVxU8pZCldnFo91S3MxJ5vlc79vlVKpNczPyiFj59VFlrLySjJPat0zv239Nkhy95nPrvaEFPyvXLd1d8r/2I//zX/30pBFQ+8oORerf3+USnI/Ldy3fwL3KMijtHiFaWmgMUzv56m6gclk/lztUqx+mX+mQU/Sr8Z3/VhQ9kcJetP7ysnlVJlqfY3fZLyUY2M94n7eGG6Dxzcm77vC86/lYX97PtBOLZFMIh7x+7eNOGlPgiCIBqQCNNIF2NzdissmukydWgzagCm4xA2G7Q90zO0eJZ2bDIQH4NU4dfoiHW6uUQc7s7oCByocqgR6o2nFYW/gLi5p3vJJPVCRzwyKk79mdoT6ewyExJbqX7GJ5sOIXXBWNwtkyBuBB7JAmZtMqvFrH7nOGsLXraDk1nhBMlIX9AKhYcrpV8l4DJ0y5Q20ar985hcaR+99WWMiFWT+KJ863Lg3nGG9FdgxAMst7c36lrdK4ZnmvJL6svid34F81V4p/YYe9fqFYV20u+L/cd8LDq0hZV9Dr/+TNSlkUuPvlGY+g+r9vJnrFsLzLnrFzKA0f1izBkGrPunQZM57CJsy5RprrwIQ1n8/qNqfO0/WR7/czEm6gbkv8Ddf2bHe9S6BgA37Xh2NFzNeSPSl/ph2lFVjIJCNn7ofRq4eWxPpBZ+hs1VMsDHvSlwcF84IaLbQnLF8JfFfZvZTQYQBEFEEJElSFdVYQ9OY0IPOR0qnGoiETSFNaiQP72zA89HRSHKxj2/UyZpcKpQcYBd0sRcQz1JMw2dZEw9MRLTDWYb6St1ScA3wbSF/tISZBmC5mt8dYi9GiXES7/kyqvY61IFvtJMMyw7f/SdxITvpkz3i/A/f7EsdDuhYB3Yi8KV0i+4GO06MeGrgk/Y+OYovwH/8pPL1IC5Po+pcaGHCdAmgdohlTUoZC+LQ/U+z1yPXSwsBDh+mTfQKNqCIAgicoksQToujj3+WmFRyXM4c8LsproURH5z8shpIDUGCdLvnXDRSHsjDgmd2SUtmORWT2cMmjRVkJXhJT0BJng73kUkwLaoOMzqunOcYfFkEGUImitwVUf2alRh0QSe+Iq9LiXgKiFllSNn9EvAkwVS281crv/7f0S3iwJ2Kjgm/b7o0s6yPV5YwbWTCnYaN7K+MgpDwa7PtP3aTzh2EBiawK7dAe35Dfg/F+PgF5eY3fxmCJu1gGJ2qyPWGfq76ia7Zn8CwP2+cEoTbguCIIgwIMJMO5LRP+s0Jjzr/8IczxQjb+JppKYkB/AQC4Z4JKQGY1rhnZsHdEThxGV4z6mCVwjG7ogp6ey9NgsAA2iLqtWYnw1MH+BB0vZQBpdGOPSL6ISZxttLDAsDmeA8aTl6P3mvah5R/ZWYqUhofwX3MdR4K1dwyWPnJmw3LTA00O1iPIqfscvXgqqaH7F+ZxTaBiSU+V5sWJ6ratWDXdjFF0Xu3/qz9DGkaYDRzKC28EdMXRuF/5N6sQzxDs9z6F9+woJw/tJMXDLSUg9haCi3hPR1X/igQdtCuzd9bf3oBVpsSBBEJBNhgjQTECc/h3Wdd6GTcWrVn50ehEbJODWbD6x5DnmaTWO9EYe7Z/ZEqnFHDP3hrO3s8Qw6MSEfhdr1+nGdyQ/izJpWFtMLw84Bbrtl5GPPgklu2uQ2o8ZiERcc9HSuMjhqC73szPX4DGklBo21wzIEg/aQ7ts3A1z8XT5JFSQfXyMf+90yUfAk8NJoNZynq3iyAC8Pl4Jz7Ag8+WRv/bi+fZfgqtwn0FuNdcHyWXjvDkM+1l07LkHPscAr27x/oY7bpq7vdRF6edoiL0jEiwNj+dLABR/Blc3wf6DgL9LLTQdS51+M/zGYA/R5LArLv/gP9JApfMLynL+VCYV3ucwJuKv7nTv8gW9JOQmLDhh3smHOj1032nRgL6fe7gt/aci2iL0FA/hM3M6X8DYJwgRBNEGiFG6T4IDy8nIkJiaiefPmMoQgvMO3vetUdB0O0j7YKjXn8eidP6FLzmV4yG5hlYj/GUPeb2671zT/RPi9aGb+yp3f8C9Ayo/XaB+tiVBCUx/hCv9E+AXAU18JI/jLatqLwBMrnC/y9Z/IqQ+CIJoWEaeRJoiIRfvgSuZ3cJ8xv4DVL//EpJH/8PzBlhDw9ZolQjMf7h+vISKFcrzN91DvNQC31JkQTRAEEb6QIE0Q9Uh0SnNsfkLB60WW7e32XkBWYjO8kuJjkeGyC+jS/xxzdsK4N7gmmn84hmsOI3mrMa6Z5Nd/Dvcuk0GNmFcy1WvtssC7SVBDoJpNydmNOSOgrSIIKXu/k/39Al6RQQRBEOEEmXYQBEEQBEEQRACQRpogCIIgCIIgAoAEaYIgCIIgCIIIADLtICKWCxcC+Yx246NZs3D+eEvjojH0OeovhJHGMo5SvyYaCtJIEwRBEARBEEQAkCBNEARBEARBEAFAgjQRQfCtz/zd9q3p8PXmLAye30+6LBR5+lw54Zw9f8W0nLr5jH/jpxobJk/ABuqHYQa1S1D4HBPKsVAfh5nLL5fhTY2m87xueoJ08evw61PbjZUDhegzo5Dd8pGC+mWz/U80Q3cZQtjwq2n4xyNbsOGRbKSE2QcyTm16C31ytuKU9Ncl5Uu6YdoDc4Pr3/yBmVGG239j9+3uU9i+fDEWL99eL9cTfhRjzpXPYI7Xd4xYDB7XFR/c8dcIGmf85VPkzFiInAPSG/ZwIboHPuiYgcF248OnRVi8eDGKPpX+Jgb/Gq/Pz/3fOAa3H0rD3NWe3kSSkCHG4C3IaS+D6pQqvDfhGaSvrJJ+DTXc5/UEQ+kSdH3hfnRdtl8GGLkEdz6h4N6s86iVIY0V0kg3GJE2ANcVe5D3QDfk+XjSli64gFfG2n+w5NSOd5qwQOMHtVsxdcZbWN3YR7WQUIy8jNlIWrjIXuAIAw6uZYL82oPSF6bc+Aek3zcbeZNXMhGubih/byH6vNdEJT8/qV79ND5ADqZk2r0chgG12/HO4newPazHKPaC+EQO8HwP5O2RQU2QPcuYAH0gHrMvlwE2RKf8B7LxE/qH4QelQgkJ0kT4U3Mery+LQvZdl8gAgvBO0ri9mL10CgL9EHr16oUo752D22+UAW60xi1jxmP8mFvYL8IbSZkFSNqRiQ+asNARHhTjg+eL2L0xiomCHrg+BePHj0fK9dJP2BM7CulPp6B8Sd29IAZPHO5e9BzOLBqBNjIkZJQuwRut/4yysb7mh5thxOMXY8iyH7G6RgY1QiJy+7tP5j2DodnSg45Yd+JB3Cx+8+nGTUhY0AoTJh4CUntiXcpnGDrxNJA1Emcms7dwbtoxHFi3Bhg6nKURGPOoa7gmeiNsv258w0Bsu1sbwazp2uJvM1J1wYBPk6dVJ2Nb0ufo885xNdB0PKcWq3P+gRcNb/dj78lAZmf2g5t2vAP87R7gIe346CQUZPb1TzCoXYG5k2cYBpNxSDcKMOVzMS17ifQwbs3D7HFcOuGa6HT7KV89jUpt0bfoX/EL7J9oFqRPbH4TK/edlT4jLdBl5D24JVp6+XTl1krpAeL7Gh4UPK60JUZ1P4OVWprLumCUSUDi0/grsf+c9DJMebjFW87PtSz5Z9B9/NX4cvEWqGeJR7/xKegkfjNEmv1wXY0l3gvatk/cRvquw/3xj3GWzzVzTXROOXZIr5Heg+7CnAGyoKJPyL7AsfQnrvl7I/YuPIkPkPaxWlLT8Ry3c7n6reizZQn4W9cKPCSPd++zvqjFhpmD8cEX0stIytqLdNnhqtc/jLl5W1SPtS8yRHzl7zEl/jVXOkt/06a/j487jnSLIM23CuOa4C1aNXnoK2e6j0LLUlefMPYXPoOy8kx3jGpZ6uq/xnxEf4Wp/cU50Q/jh3Uyn9+Esz6jbxMmxkJtDASmr3kOU4Wikk8J56IipSf2TNyFQj4+auMlG1MPigczH2vzgTUjgeH5mCVyMOZhpjynLfJQgNkh1ITy/vjQPukxYRwrrWNgCzyZeR9G6Pcm76+n8dsZ12KjPt6ax1qO9Vyufq+O07hnIPCOdrzlHI7w3q89j6MaPo7ncFOlJe0xZZ5ZkBbb31nGH/P4xvA5Th5E0eJStBzZHWfytTHOmI96XxxNGIV7esu7RZzzKNrzsRLW8c9FixsMx3hB7ddq351QqIa5+iuD9/eFMVjUeRcmMPkhdcFIpBXli7Rav+WmHZ2KrnPJDRxjHkaqV2LuHUXoscrzrNX+/H7IxAJsGGlsiBBQtRrpPfi96SJ1wSTkjYoTv00ykrX8DurBOTUoevUxTLviKSZUd5FhVi5gddb3WD/wEtsZ5UYBF6SdUFZWppw7d076Go5dc6crl48vVE5I/4kVc5XL2/xd2SV8u5WX28j4ykLlfv577m4W/HdXGvHbmEel8u54mc4R2xX20OAvH25u1g6ZxBEHlPl/XKDM3y+9JtS4KRtrpF9Raje+qdzyxwKlzORfYAiz5lejFM5n8e8ekH4L+wvU4+dvUWpFgPs5fVLzvjInvauyVCuUG6XK0jdK5W+GbXqWxmsePyiFj59V/rDmB+l38cMPPwhXtSlPyV26UamSfpPbm6/k5uYpGyulv3Kjkpebq+TvNcbnGo4vU/KZP29TlZ5H2SoWv6pM95tdlbJxqSXewzn5ebTzmvNUz6mXyeoMx5udeg6NU5seVwa9Uaickn43arYoU/74plJo18SiPxjj3PtP2bu8vxn6jDU/4ffUpw19VsvTR3o7yt7oqmQZ+5QnyuYoWelz9PtF4+S6SSzckIddnzy5QpnTa7zy0UnpN2BsF/t+J/sDax+tPUW63HylTKZR/SyNpf31Pif6jys9d3Z90HO/VPMz9xXV8TIJxDg4V3m3UvUqcrx8WQyDckwUY6Z1TNWOkeGGPMxjsYXSV5Ssx1YoNlUaNKJf2o5zNmOgtZ/LPsj7pdYPrfkJvz5OWlHHTWOe3tPbUaN89Ccv/Vr05UnKR4Z705reyX1RNj9eyZrv/pyz6ztuY5HPcVLrc65xz9zv1fvCOK6q45phnPQUJp1+31idLJPds9wkL8hn//0rKmVfVfu7SCOP0cJdeaj9nB/jzknlo8filaVeqn3fyr7KoJUeH26BYbpXOep125VRXI9BXhI4qIftM+1lHMzcLuJdVCtrcu5Tkt7eJ/321Kw5p3TO/bf0NT4izLSjGJuzW2HRTNfbVZtRAzAdh7DZsOhleoYWz9KOZa9X8TFIFX6Njlinv6HF4e6MjsCBKocG+b3xtKLwFxA393QvmSRYDnyOZWiL3xo0fa0HJGMsjmOjyabaqDmJxlUs+VfVUvVyYAderGXxXrV9LF7XQF+PgTcAO7TjHVC+Zgaqb80zaz1M3Ih0o9Ykuj96XMNe5Kv8MYD7Gcd3Al3aBfYme/BwJVrccJtLOxx9C7q3BSoPG21L49FP16x0wtUs/uwZSxmPfwlba9Tagzh6rgW6/NqgB7y+J7pcdhZHPzdbbRu1PNEtWwDfnIIxhblMBliZ7xk/Xky5mp1B6x0k5eXHgRuSDVq0aIy4lVXEvs/NswbGWYto1udwFl/JKbvyj8ux44aB6oyHJ/jxWp+MZn3O2Ged8tGHwS1eu2YGpmj90q5PVh1FNboiNgjbaK5F09q69bXt0YLV0ynjZXJt3jCtz3RCzxtYCmufC5hOSLHtL67+98mmQ0hdMBZ3qwosNgyOwCNZwKxNroE0dcF/67N0YkyNi2N3tJnpaybreahj8WlUWNc8aezg9VqP1H6KjbUt8OQgwxjYuTeejD6LjfvMda3P1DHiYtm9ebJWvTdrt+KNfSyPMd5n6sbe49JAJyWx+6b2NDxVgxvlS/DBF+PMY6WB8uIlwK2/x2DDvTl49Dj3+8DrfVGN6kNA7FXBrH7zPU7G93WNSa17d2dHWPp9ELTufY9tn9bNq6qKUVDInu185lly89ieSC38DJv1xuiIR6TWlmtq01nShMRWql+Da3D1PJKRvqAVCtlzxBPVR+vXuOPkzs9QmDXST82xFe/10PsZexlHeaa3TBEAh39GqEa4cCOyBOmqKuxhA/WEHs+g5ZWac00rBkVhDSrkT+/swPNRUYiycc8zgS8UnKr+XzZWtmIivhGLoMwxpWGCT2aGPs1un0coqUU1q7DYeDaaekHdPUFz5qnHuocJqt+wwX7fSrESXXP20+Ke6TRsPPq1rcQWLQ/jwsbaM+xR0QKt9YccpzVaX259yLRAS0Ma8VAwPJRSxvdD/PEtehnf2WEQscUCHFf5XS5Ui3Jq8RV7i+wda7oIIKYVe238X3xlPEebaINAcT0yZ2gCiIc8Qgy3fU6/dYlYoCr61MwV9Suc1SWWF6vA4dPsdv1F242hChXshbxwYq5hHDWaywUDE6Q9yxz1S81pNlr/SoybLtg42saqMGiBq2LkT0brAfdhm/ayaJtHaKmuYhLuNYke7JY9jLNX8vSHoF1G+N4XZxGq90OxqNymT+vjcWUNClmdDDX06ZYW84eAcaxoq3sqDkuTkzpkx3P2Mk7Uc3YGgkRkCdJCI9IKi0qew5kTZhfM29nJI6xjpsYgQfq9U/ca6daxv2Ljp1WjwQQVNiBd5VBQsc8jlEQjllVYdaVnqZTbo+Z9xO1U+cIv7jbg9mtkpGMuQltWr/uPBfIZW1Wg5dpBNy2Grg10Bhem1WNHoQv2Y6W2W0J0S3dtoxTgWxglZ58YtIgjuwBM+Ne3oKpzjbSdcMHwS4jwkEcdoC4klP0JMzB3SYhXscW1Z0JKGarrURKpPXMWuJz1V+kPDl8a6TgksJcfblNpHUfFOpJAEYqOVkiIl34rvXm91iN2L4L+vvDZ5hFaYuM6Al8c9iD4ehhnT/D0HWG8DO/3RSxi2Wmqvzoq/fVA7SmhZPBrGPSCT420mHnm650sffqEa9YkEITg2jnO3UZaEtu+Xnt1vVAnGunEi1hvbpxEmGlHMvpnncaEZ0O5L2Ix8iaeRmpKsscbpW5QNczLym22bep8rTDjeGOTa/Quf28jlkUnYay3aXMjMo+Hgt0Wqno1Hu/bF3375rhNGyYl8+nFdI9b11VXbjFpWqrX/9FGI90WbZlwXV7sSRhqhl4Do7B+44/sEWhP61YtgHNHcdAmQafEeJzd92EIt1NShXOd6E5of9lZ7P+nyyzj1I4Psf9cPLo7WCBjS3Rr9vipA6QphnVamyOmo/cVG7bG+xQ57xxH70G9TYuuvKHmsTHoLR2/XvM462+sz+X6MuBQhYyQE9sHPXoXoeSTepKka7ejlMlJ8Yny5c7ycsY1cXazKMI8yJPJkQ9uHtARhROX4b0Qvml/smwXClOvQ38boaV8y2ygYwdbQbo8l48vfZGzVwb4iTDFsJogcYTp0Fm8+LFrDDy16QNh8mY0m/OKlsfyYPc/L0eOGEcfh9v2w0m3sXtsCfI8vBCq4+xr2KDfm3uQl70EsenjPNyb9vdFUr9pwFvbvJh/hJaD/9yPs5e1RydR1dZZuoMosltcKMY+d7M4R8QlIy31EIbOC+EHlKpWY342MH2AzQtm9TaU7EhB24CEdK0/uD9XfcHvXWTvld/CsCyuDEsuYOdGBUMSGu8mcb+QfyOGmyc/h3XznkGnK3fJEI4fu26It9ZdYvpHg69UzQvK3igQojFiTBI25mxEHyZ8CPQdDK5HZmYtpub8A30+VqP831GDT7uzPzMM+TOMtoBBkzQFs7OAadndwIZoiWunhKRxeUh6IB1zH+AFYXB76lu34APVJ4nG4EkzUDI5HdM+kkGWFenRv74IQ176GTtrgBGGKVid61PQ7/BibMlfDHVbeMOuGXw7JxRhsR6n4rYq3SPuO3aoq9U1jTbfBq0fzizmZhlyFwg/dtwQuO3YoWrR73FUPn9gfeIevsuLq1/puw90TkXBoLeQlrMQL6pR7jty+ILlse0evvPHQo+7zQSH+84Ewt75Wa2vuMfnPcB3OuiH2+e9arAx9UUskgan4IMN21A9wrpVGDebcO1KAD47sZj3LD/b/Jx2HIf31/EWO35Df27bD6NuKMXKMyJWp3Xv29ClYqUwOVJ7nh9lSH4QZ9a8jpY9nsEEGcRxvmo/HgmpwIThz7hM6/jOSIvsDi5GyVtsPFhon3FS3zHA28uxfOlq3DvHsuOMA1oPuB1Plv0DD81YKEO0PsfN3QbiK9MY6G9/5HncBbCxOG2GS+Tx+97wyo1szMwTuxjpYyBD33WDjbNT0h/G3Mnd9LEzNn0DpgzRzu/rvpDc2IdddxpK9vwBSZYosZOMcQekrYvFzjFOd8zQqJTHCVi/Ha+Pk0CnX3dBab42TvI+3w/It373rhNS+n7J8liJxXKXFOdl4Nu9TWKdkpss5cswhqddN2xo06EVULjLIF+oM+B2Gu3qT4pQ3TsFSQEppJMw8F5gOev3S9bci5eH+9Hr2b27LusZXYbhM0vrOudivvBx1B11XCav2vX4ISf5omo9Hnt9CT6UXnzzArq+wP5ePg4fPzyE3TUGan7E+p1RGPJ4I92xgxGR298RTY/SBedw7+GLsTn7Uv0mFds2Eb63vyMCoBh5vdNQ/XQJpoxwPSlD0eeE0FLRnr2MaTby9Yu+/V094XvrO66dy8Dyexdi66TQvHIR9lSvnoC5z3dF+g4mTMuw0Iyj6gsmHCsoQk+99msHW99xvG5/tzcHfSctx5jcrcjsJsMaHU1g6ztG49W1E42K7hOb4dGdP+G5IhKeifogGekLp6H6+aexITxWbUUme/6KvLemId3L/tFfr1mC5ezvmL4kRNc1sSOex+29ZyMvJ4TmD02Oamx4KRN4+vkgvnr6NVYvFb0eAxutEA3UFv2ALFyMZxqxEM0hQZqIEC7BQ5uboctLF2CdDCQM/O9s3DW/HwbPz0IRCYDBceMfMHthV3zwLgkdgcEEjiVluH2VS/tpRrUTTXsReGJFY9bKhROxGDyvBLcfWkgviIGyZzk+6FhgmqkyU46FYgzuh0y7tZ1cE903DS/hCRRszfRwbzQGvsf7L0XhbcMscmOFTDuIiIVMO1Tqe6q+KdMY+hz1F8JIYxlHqV8TDQUJ0gRBEARBEAQRAGTaQRAEQRAEQRABQII0QRAEQRAEQQQACdIEQRAEQRAEEQAkSBMEQRAEQRBEAJAgTRAEQRAEQRABELGC9IFX9uPd9odwQPrtUNNoznvaUHJy5Ty0nLAaJ6U/FPjMs/h1tLzydfn9fQMi/BnMCYutcPmnS23KUrUa6Sw8fWWVDAgVJ/D2b6IQFcXdnXj7mAw+9jbuNPp9wT+H+sL96CrdY+tqZES4UYOiV3kZ/4SiUFelQ2rW/h6Za9X6Kclrr/8mvFGMBTPaYwFtV00QBBFxNFqNdPWqgyib80t0PdoFvxGuIzrLOKKJsPP/4j68hSpFwfaZK3Df6ztYIBOuJ9+H/9rxPu5tpybzDhNOV2zHkAffRNlTzD04Dtj9GF4Lt6/CCGE/F7h2iAwgCIIgCKKuiVhBuvOj3oXjU1/9BExtTsJz8oM4c+I5TPX8hd6GJ24E8lgZ80bFyYC6YfQ1iTix7GHc13U7nu4lA30Sg5SH/4gUrWhxQ/DbRGD+gf0yIBzgwn4lfvsUK2fAn6wNDcdq18pfNTh2CrghNkb6CYIgCKLxEXGCNNc01725RhXem/CMMIkQzmhSwU0lmP+9eWpc+spiPa3VZKGCm2PY5cGR5gxavLtZg7kMnSaeluEuPpFlEG74IRkqseTvZk4hr+OkNP0Qzs10RDXF0OOl88sEw5j/lfmYJYNVzPlb8xXmLPNYXev1q6Wfh/ecFKHX7/AW7kNcVBRueXYWpvbbgIfv/S9sf6a3TNBY4ML+ONwofd74es3j6Nu3L3L2yoBQUTwf181oj3u+BNbt+i/2+78w5Qzw58L27Pd8lMhkXqnMRybLg+djdGaThxoU/sUQ/5d8FuKCm5Zcl8cOkOURjvsNiDRaHHP+mZ9wM4zfo7BSNcfQ8rCaZXCzFuM53Mw2jOWbMRJ/lsEEQRBEhMG/bOiEsrIy5dy5c9IXBhR/qbzT7ktlv/SqnFA+bLePhbu7VflnZBpfVCrvjp+uXD53t/Qryq65zD++kOXO2P135fI205X7V1QqJ1bMFb9fZklFGnmMFu7KY7fysjxGUFmo3C+PU7HE25RB5KmVgWEqE0eU6+/KLul1oebtOpdEXocrD19lUP2ueAeIc8xV3tUP8VAWD3m71a/IK4ByCKqUt+6GMmuH9AZK5Trlf56/T/lbifQ7YPtM8K+HuruZ20V81duj7ePvfouV2k9K3lCSnp+hrPFQPadWT1X69OmjzN8jA0JKtVLw53ZKrmjf3UruHycoBcdFREBUF01Qrl1q7Cxq/sawfy1l/j+vZDEq4pg/srA//lX5lwjh5dDKpMVrcRw1/uEiLQdfqOmvNVybW567/6qfj2MXbzzeWkaCIAgicmhkNtJtcKu0ie46lXmntpb20V2QdsflahJfVBWjoLAj1k122ULcPLYnUgs/w2ZdC9oRj2hmCKk9kc6SJiS2Uv0aLPygnkcy0he0QuHhSuE7ufMzFGaNNJhbyPiiYlUjbFMGM8XYnN0Ki2aOYFccDOwci7Q8ktE/C3oZgUpUFLJzjNXKEIf+Ka5rcMInmw4hdcFY3B2MxYasX0HWAJZXHBICsNfx36TDDm5CsQQfXj4Oo7vLIAf0fkbhL6zuTmrGrxz7vn38u/fiSpEidFwx/GVs3boVmd1kQEg5gmNnhqEdb+/Ko9iHrmgXr8b4TfF89DmYgm164zMqt+GDM1l4xxDW49b5GHqmCDtN3ZKlmfEIeojfHdCuJbCvmmuda7Dz4FoM7TlGxnGScVfPYVh3cJtJs+2Lx1JfQ6q8tphhD+ExlOGYVobkRzDRUOyYG1Mw1BBfsj+bleF5/XiCIAgicmm0iw0DprIGhTiEoQaTg5Y9drGwEHCgSgjKFYdPA9n5rvyZM5luiDJ4oaoKe+TPuiMeCamnMWGZNiddjDxWxtREp0//KlTU1zYpvjj2tjTpAJ4XO3gw95u3cUJGO4PviPEYpn0zBG8+PATRMtQJO57Tdg6xuOf44kcu5N9pH+93GRsO1ZSBmyisxZTX2O/XHsE6ZOOeGYHs3FGMBYVlmPubkTBZWFcd1fPUzSLEeSy0bA/XOtIYpP7PUeQM4zlxQd/dbjsmtitw5iicbuJiz1oc01+0zWYf5jKqtuMEQRBE44AEaSvx7MHLNbUnnhOL9FxuclCaVSE8d44T2l+hvc4aacmfOV07HEboAn8+ZrEy1/WCwNCj7dLxNBKXzcH0mduhKFXCdvr/7pRJHLBnmRSin3Jmi2wknDTSdUWP9KP47PfzMVRog9nv1Cwm0M7HNvZbFWKdU5I3EjBofHXi2rvyNzmbtLYYtdMuaqrLLMK3nwjtu9TEM0G58C/sheLqfFf5RL0QBEEQjRESpK3EJSMt9RCGzrOuDgqCqtWYnw1MH6DO97bpdR1SmYDqcW/n5G6YjkPYLOP5ojuTxlqU8TQKdkoVGF/QZ11sGCyaeYlR0PdoamKHNAXRzFXAFwpaFxvWPaEw6ahd9yfcf/hazH7QfyE63KizxYYawQikDL4Q8B7km0wjdOL74PaW2bjHsnjQOTHo1WkY1u1a7lr8WJmPP+1ai8f6WbTfflDy0SNY1zIFvYQwr2q9h0Z3EHFCsH7XqJGWZdBNSbj2mhYbEgRBRCoRJkh/g50T96s7dtzxb+b/N8rE7h0HocmUwROHuxdNwqIDZtML9x0tPNOmQyugcBc6acf2+AxpJYYt6Ph2byU9sWe4IX/mXLtWJGPqmo6YJeM7FV2Hg8zvgpVxZk9gYq567HBgHcsvVcZyxI4XIl9VeNXycrzjBivjI1kWExfu/KmHUWOxCFo95ANrWL0aC6nv6JGLCYWsyrTrCdVLzM7nEWfYpePKsVMx69lbEBUVJ/aX/p0T4bpqPZ7f/Tn78Tmmve76KEtDfvTEjj3LZLmK1jOfq6z1ut+1ML1QEVre1u39E06lUIsvR7rMIrjTBWdupvEvzD1libfs3OGNmGGv4Z2rDeYhrz2CG1KP2gvuXlB3I1EdF/w/+x9NEE/GxNQsuXMJj/8vHOuXj8dEnErMsOcxF4+gj4jn2nd2TS1lJEEQBBFRRCl8DtkB5eXlSExMRPPmzWUI0agRWm4moJ94EDfLIE2rvGfBpAg08SCIUKBqkBGA8E0QBEE0Psi0g7Dl5BH3fau1RY43diAhmiAIgiAIgjTShEf4B1+GZkuPZPoabqLi295ZTSc9BNFoII00QRAE4YIEaYIgCIIgCIIIADLtIAiCIAiCIIgAiChBmmvFv/32W+kjCIIgCIIgiIYjokw7yLyEIIi64sKFC/JXZNOsWTP5K3wJh7qOhHoiCCL8IdMOgiAIgiAIgggAEqQJgiAIgiAIIgBIkCYIoslSW/QtHi1qHCYdRPB8vTkLT27+WvqaFj6vfe936LLge+khCEKDBOmGQHwa+3V8Ir1NlgOF6DOjEOXSG/bUbsXUGQtZmVU3dVOtjAgfyt/jZWuYOj216S29bsKmXcvnYtoDc23LwoXo/i9F4cEUG1vZ2u14Z/FivLPjlAxoYkToGHVqxztYvHw7Amk1LkjetScB6f2vkCGSqvV4jH9+X7rH1jn9IL2RGhS9yo//E4qqZJA/hKAMe5a5ju/6whLxcS0jV/R/AAl77sDCfTLASrdmyD58gV48CcICCdJNmk+Rw4SenAPSS3iB1VUOE8cG3YVtMzKEmzMgWsbVD0JIfu9T6Qs/Wg+4T62be9rKkDCm5jyeewnIfv8/0V0GhRcHUcQE+aLwbe7GRfVqvMwky6n3PIwuMkhlP157fQk6p7yJsqeYe3AcsPsxvFYqo50ghOBc4NohMsBfgi9D7bo/4f6vx+Fjfjxzbyaux/2vrodZFZCEjMFj8O6GLBRVyyATzTDi8YuBl77H3/bKIIIgSJAmCEfU1uIrtMDAG+pXePaXpLu5kJ/KHomEN0r/8RPWj/0FRsTIACvRt+Ce8eNxT+/WMoBozOzfPhu72j+AlFgZIKld9x7mXz4Oo7W3rbgh+G0iMH+bVQj1RA2KVlTit0/90S1vpwRfhv1YsftzPNJnCLTR68aB43DbN0uwwiqM3/AwctrvwJztHuaTYi7FM09E4ZU3zzs8N0E0fmj7uwAxfz67I9adeBA3i9/889mbkLCgFSZMPASk9sS6lM8wdOJpIGskzkxOVqdNhwPr1gBDh7M0AmMedQ3XRG/EMukzccNAbLv7eumxpmuLvxmEND6Vn1adjG1Jn6PPO8fVQNPxnFqszvkHXjSMumPvyUBmZ/aDm3a8A/ztHuAh7fjoJBRk9oUz8UXN+6tb78JVH7nOoefP0MpYEFuMtI/PqoFuZXQAN+vIqcDAzPswwiRLq2XY2PUul4baktZpGbjG+SHDtGrvQWqe1nAXrvYQ59DytrSThjmNK38Bb4uPWqHg1tNI89gW1rZsgSfd6oOhtau/Aj03w1iRiCmjD2Nu9hIZOA7pS6cY8qnFhpmD8cEX0ot+uH3eqxhsKEP5km7I+0h6BNY8vsff+v+Itu83NwnS6pZsXBO8BZVqEFrcMMoiTPP4UrQc2R1n8rV0LdBl5D24RZThFLYvX4kz3UehZelK7D8nEpjy4eYHKyvaY9SYW2TdqsccTeBpak3nN9G2H8YP6yQ9ntG2dQvnMYrXtaiHM90xqmUpVu6T/fKyLoZ6YXATm/z90HutNV7WnVbPArc09ri2vyvHwvlL0eGebIuwy80xHsP6a/+MPw+VHYVrl19fgg8xBG8+NQ43qqHOKF2CrkVfYfaDTKiOk2E+CUEZxHlhSsvNPO4/DNx2kyFfjX3sftoA5Dxi1c5Las7j0Tt/xhDL/UMQTRXSSAeAeEAd6ImDJ57DGeYOLjiNoSZ7wtOYUBSDgyU9kVq4C0MPD8CZNR2B7L2GNIcwdCFLI/KYhEWpzD+vWMb5Ygeej4pClI17fqdM4pXrkSnMEwZiLPNxwVMzV7AK0V8xYUuLKxj0v3jIavu6b6MUmmR+zO8yFZGCVxsmNGr5M6cJuSrH8RAX4LTja8vxop+2x8ve4cK0VsYWzO9eRiHw83NkJqG3qYze4cKnsPnNKWe1fhYv5gRoA+yjDEJYPskEV1EPqtOEXFXLnIG/3cA8XADX07gEVV9mFaoQ/SvZTtwNxFUf/8Ns583qPs1LW5zatAMYox3Py8PqY/lWJsqEkC9mYC4XppfuxeylG3D7NUuQt8RlzVm9ngnYk3ic6tJv3YIPcldAm4kWQnTFDHk8c1njZIyBvT/hFUShna0Q0Akp48dj/PhR6HKZDHLjLPbnc2GapxuPfm2Z/0OzXW7lVi5Mq/Hj+8bj7L4Psd1Rt9bO3w/xzBffV+bBnSZES/vtxW7uHf0cDT9GOeT4FiFMq9fIrvncfnyo26UzIfmfTNjTrt8ungvRl7MXDJlm1A0tZBxHNY9xryeLycy+TXgXCbjKg8a4c6zaUbh5RNfXK/HbB8fhNnyF44HYOgdI0GW4PJ69XnP247UX7scbrf+MNxOBD0/Z2FrfMAC/QQW+sjXvYMT8AkN6KfV6/QQRzpAg7TfF2JzdCotmjkAbGdJm1ABMZw+dzYZnzPQMLZ6lHZvMnogxSBV+jY5Yt0hLE4e7M9hD7EAVTgq/L3rjaUUBn0ywuqd7ySTBcuBzLGND728NdsCtByQzwfs4NpqEUKP2MxpXseRfVcun+YEdeLGWxXvV/rJ4Xet5PQYyYXGHdrxDuGZVE85b35DAaud/8ZUxC65Z1coQzc5hLKMPdAGVC79CA6sJkn5qW72VoXYr3tjH8h7jVBPvL7XYUXaW1VNvQ5mvx1j20rGj7FODAOi9LVoPSDVpn5OS2KO59jRC+zwdh/RnR0OVaaIxeDQThCu+1AXl2CFTTNrnpGQW/8VhGb8HJR/1w+2TtOPtqT2mAL2YIC39gRDfV9NAM9E3kYm8586wWnbBNdApWre/vicTys/ijLMu5xtpdqIJjy6nlSkcxiiHcO2xrmXvhJ5MED6rV1Rr3DLMqFnuhKtZl9Pjaw/i6Ll49POopddeStyd3jaMr09VAL9KwJXS7w7XCt+PQafuRpmu1b0KbR1rlUNBCMrANdMvvId2D76pa6Fva+1JpbwDR3ysZ9x/jBYdEgSHBGl/qapij+vTmNDjGbS8UnP5mCWjg6KwBmxId0CwGmnfnKr+X/bAbsUen0YsgjLHlCYaI5igqWlS7fMg3Kg5zVr0V6Ju64Za8WJxVaz5BK1jf+WfIGzZtUQ356lrdEGZUbsCcx/ohmma001AGLUugTscOXs6RLp7XxrpsBijguCbU/rLndiFw3CNW4xdrvaMy+TDFocaaR/ML3oMx/q8ibKx0tDhZCU+VH/VG0GX4ZslGLQtHh9zW20xINfgeNPc5Y8gQg4J0v4SF4cbuQanRJ0yNbqpyTJNAJw8chpIjUGC9Hun7jXS9kKWvUDmCb8FtaZKTCt3LXpIsXkBYvj3ouO+a0l97M5RXXUIuCZRapj3IG/yDCB9g27aYWu64YPodlHATgXHpL/uqcWZc0CLViGab/ClkQ6LMSowas8w0fjy1qoW+tMirNwHdJEmNNz186vLOdNIX9GaXdH/VuCE9LuIwc3XXsvKY1jox6it/gpI/LVub1y3hKAM3X+NR9gf42JDLkgf++ZaDOnqSSPdGx08RUm6tKNPrBMEhwRpv0lG/6zTmPDs6hBOcRYjb+JppKYk61Ox9YMqYC0rt1HPdL5WmHG8YbCRLX9vI5ZFJ2GsycbZCzKPh4Ldsq16NR7v2xd9++b4Z5fsB1+veZzlz86R6+8ZWB2yRnOZQKgC5w7pc4Qw9fBtbxwX2wLY93kAdRCN3l1bYMfHO1zH1m7Fix+fxdhbHZqTiF1LjC9R7DoD1EiX5/K27IvH1/hSie3BB3lbENu7vypIS41zbJxWBiZYGzXS0f3R45otKCmRbcEXLxrjNbpdjEfxM3bV0xZep3aUohLxuFoKb61bsXY0mIIcXGtZLCeIRsvLgMrDB6XfH+pxjNLuzamrEbSCs3Y7SlmXik9UTTVOneb65hZorXe5IrNG+vqrWa1W4ks5vIjFi9qiRX8QNsHLsdlmQW9011vE7hbPa/s2V63H83wHjM6WZXghqAftvsix9Mvgy9AFPfkuH0WuvaP3LHsB8y+/BTfbvUX7sBlHzY9YvzOqnk1bCCJ8IUE6AG6e/BzWdd6FTvq0KXd+fLxA2CIewlDDtCvWPIe8UfU9MkVjxBh14Zs+Xa8LvdcjMzMJ+PgfepxYDOd4Rw0OX9SoLkDU82euse1bnTTIWIfFuCqTXbOMcwY3ibkLTzIxN81QT9YPvrQecDuejGYvJnoabcEjX9Qpw4Rwq6V5C6tlFtzW+283GI5lwv5Vht1NfBLdF0+KhZzyeH6d93C7cQ3fZXDGEuTpphvpQNZeTBkiJano0UhP74fybC3+NbTNmmGwh47G4EkzgLzB0uwDSJ9njNe4BD1ZA72yzeYrbUxYU6f/VeH27L6Vqn+tfwKtfhxzYoeO8SnQLXmFzXQltsj40pajbDStrXHLbV3Q4vgWPR9/ylBvY1TsLRjAZ8F2voS3A3kxObcfK7Xryz+K9iNd2uLWvW8z1dPi0pboZ1pM2AkpfZkovVWNF/XM/P6ThP7tgXc/t3lFjRuCP8t9m8WHTOR+zr83aIcFXupB/xBK0Xrm+xzTXlf91n2gk/qOEX+XL7UIwiEow41j5d7R/HjmxJ7SDxs11C72f74caD/AfscORu0/f8b6Xhehlw+NNUE0FWj7O4IgwgOhQWbCr2mrujpCbOH1E7rkXIaHuqlB6vZ3wWLcyi5Ephx+4trWrX7gszlpLwJPrHgZIzxpMS3o29+ZtgGsX0z1VL0aT74zGwmDtyCD744TAIHUg5ly5PTNwPJ7F2LrpMDugKDLQFvfEYTfkEaaIIimh/Zhiczv4M9H6ggr5Xj7xR1ArwG4JSDhMUyIHYHHb+yNdze8iv0yyD+Cr4ev1yzBcvZ3TN9AXyODLUM5Fm5Yjt8M9iBE4wJWv/wTk9L/g4RogjBAgjRBEE2S6JTm2PyEgteLaBuvQFDXFUgN6pwRuEKGRypX9M/GP26sQN5m/6ycg68HronuKzXJW5EpZ0j8IRRt8fXmpai4cZVnjfzeC8hKbIZXUmiRIUEYIdMOgiAIRmhMOxqe+jbtCIRwqOtIqCeCIMIfEqQJgiAIgiAIIgAiyrQjKSmJhGiCIAiCIAgiLCAbaYIgCIIgCIIIABKkCYIgCIIgCCIASJAmCIIgCIIgiAAgQZogCIIgCIIgAoAE6UbKyZXz0HLCapyUfoIgCIIgCCK0NFFB+iQ+ar8fH/1LegmCIAiCIAjCT0gjTRAEQRAEQRABEHGCdPWqg3j3lZPAvw7h3fb7Vcf9RoxxJs2zqol+t/0pnGK+U3e40rjysNFWi/wO4YD0+iqDFi/+2sQ7owrvTXgGLa+UzmimUfy68L83T41LX1msp51TLNNIKriJh10eBEEQBEEQRFBEpkZ6zim8ewfQ9WgX/OZoa7Rmfl3w5cLtHRfQ4RMex9wnl+FbJjCr8W1wq3YM87VeJdNw92gbnsA53srAYf6NX7XUy/BLa7xXuBCdiwmdR+LMieeEW9d5FzoZBeHCXShInISDC1qhcGI+KjJYmixg1iaDJM3SDD08QOYxEtOZf+rKKhlJEARBEARBBEOEmnb8kgmwHdFZ/m4+Avj26DfCd2DLv/HLnCvRK054gbgOuHYqcGpLqHWxnssgGHEZBmrCedzliLXGe6OqGAWFHbFucrIMAG4e2xOphZ9hsy4Hd8Qjo+RFpvZEOkuakNhK9Wuw8IN6HslI50L34UrpJwiCIAiCIIIhMgXpEb8QGmWVy9FrQRek3XE5+/0NvvkU+HfmcZdJBXNlc9SUIcVjGUJAZQ0KcQhDNZMM7nrsYmEh4EAVmXcQBEEQBEGEgEa22PByXH498Mucti6TDc35a7rRkMTHIBUdsU6adbjcZNytadoDoOLwaaBzHCKoJgiCIAiCIMKWRiZIMzmx3y/x78wT2OnVFFg1xbA397CYaVQdQcEd/1Z/1xdxyUhLPYSh8ywrB4OhajXmZwPTB7jMRQiCIAiCIIjAaXSCNP6rI36zqhmO3Owy7eDOvNDvcvR6Vl0AqKfRd9VgcRO4MC7NQ27+EdfyxYIytn6Iw92LJmHRgXyXaQd3fuy60aZDK7HYsJNuGvIZ0kqew1SSowmCIAiCIEJClMKQv71SXl6OxMRENG/eXIYQBEEQBEEQRNOl8WmkCYIgCIIgCKIeIEGaIAiCIAiCIAKABGmCIAiCIAiCCAASpAmCIAiCIAgiABwvNiQIgiAIgiAIwgVppAmCIAiCIAgiAEiQJgiCIAiCIIgAIEGaIAiCIAiCIAKABGmCIAiCIAiCCAASpAmCIAiCIAjCb4D/D7fGJ1BZ8kVxAAAAAElFTkSuQmCC;" parent="1" vertex="1">
                    <mxGeometry x="-770" y="227.5" width="574.96" height="305" as="geometry"/>
                </mxCell>
                <mxCell id="UrZrE4dEw9ymg7tauEkW-50" style="edgeStyle=none;html=1;exitX=0.5;exitY=1;exitDx=0;exitDy=0;entryX=0.5;entryY=0;entryDx=0;entryDy=0;" parent="1" source="UrZrE4dEw9ymg7tauEkW-37" target="UrZrE4dEw9ymg7tauEkW-38" edge="1">
                    <mxGeometry relative="1" as="geometry"/>
                </mxCell>
                <mxCell id="UrZrE4dEw9ymg7tauEkW-37" value="ResnetBlock: &lt;b&gt;2, 64, 128, 128&lt;/b&gt;" style="rounded=0;whiteSpace=wrap;html=1;" parent="1" vertex="1">
                    <mxGeometry x="-760" y="840" width="240" height="40" as="geometry"/>
                </mxCell>
                <mxCell id="UrZrE4dEw9ymg7tauEkW-51" style="edgeStyle=none;html=1;exitX=0.5;exitY=1;exitDx=0;exitDy=0;entryX=0.5;entryY=0;entryDx=0;entryDy=0;" parent="1" source="UrZrE4dEw9ymg7tauEkW-38" target="UrZrE4dEw9ymg7tauEkW-39" edge="1">
                    <mxGeometry relative="1" as="geometry"/>
                </mxCell>
                <mxCell id="UrZrE4dEw9ymg7tauEkW-38" value="&lt;span style=&quot;color: rgb(0, 0, 0);&quot;&gt;ResnetBlock: &lt;b&gt;2, 64, 128, 128&lt;/b&gt;&lt;/span&gt;" style="rounded=0;whiteSpace=wrap;html=1;" parent="1" vertex="1">
                    <mxGeometry x="-760" y="920" width="240" height="40" as="geometry"/>
                </mxCell>
                <mxCell id="UrZrE4dEw9ymg7tauEkW-59" style="edgeStyle=none;html=1;exitX=0.5;exitY=1;exitDx=0;exitDy=0;entryX=0.5;entryY=0;entryDx=0;entryDy=0;" parent="1" source="UrZrE4dEw9ymg7tauEkW-39" edge="1">
                    <mxGeometry relative="1" as="geometry">
                        <mxPoint x="-640" y="1080" as="targetPoint"/>
                    </mxGeometry>
                </mxCell>
                <mxCell id="UrZrE4dEw9ymg7tauEkW-39" value="DownSample：2，64，64，64" style="rounded=0;whiteSpace=wrap;html=1;" parent="1" vertex="1">
                    <mxGeometry x="-760" y="1000" width="240" height="40" as="geometry"/>
                </mxCell>
                <mxCell id="UrZrE4dEw9ymg7tauEkW-44" style="edgeStyle=none;html=1;exitX=0.5;exitY=1;exitDx=0;exitDy=0;entryX=0.5;entryY=0;entryDx=0;entryDy=0;" parent="1" source="UrZrE4dEw9ymg7tauEkW-43" target="UrZrE4dEw9ymg7tauEkW-37" edge="1">
                    <mxGeometry relative="1" as="geometry"/>
                </mxCell>
                <mxCell id="UrZrE4dEw9ymg7tauEkW-43" value="&lt;font&gt;x:(2,64,128,128)&lt;/font&gt;" style="rounded=0;whiteSpace=wrap;html=1;fontSize=15;" parent="1" vertex="1">
                    <mxGeometry x="-760" y="760" width="240" height="40" as="geometry"/>
                </mxCell>
                <mxCell id="UrZrE4dEw9ymg7tauEkW-46" value="&lt;b&gt;&lt;font style=&quot;font-size: 15px;&quot;&gt;ch=64&lt;/font&gt;&lt;/b&gt;&lt;div&gt;&lt;span style=&quot;font-size: 15px;&quot;&gt;&lt;b&gt;&lt;br&gt;&lt;/b&gt;&lt;/span&gt;&lt;div&gt;&lt;b&gt;&lt;font style=&quot;font-size: 15px;&quot;&gt;num_res_blocks=2&lt;/font&gt;&lt;/b&gt;&lt;/div&gt;&lt;div&gt;&lt;b&gt;&lt;font style=&quot;font-size: 15px;&quot;&gt;&lt;br&gt;&lt;/font&gt;&lt;/b&gt;&lt;/div&gt;&lt;div&gt;&lt;b&gt;&lt;font style=&quot;font-size: 15px;&quot;&gt;ch_mult=(1,2,4)&lt;/font&gt;&lt;/b&gt;&lt;/div&gt;&lt;/div&gt;" style="text;whiteSpace=wrap;html=1;" parent="1" vertex="1">
                    <mxGeometry x="-950" y="730" width="150" height="100" as="geometry"/>
                </mxCell>
                <mxCell id="UrZrE4dEw9ymg7tauEkW-48" value="" style="shape=curlyBracket;whiteSpace=wrap;html=1;rounded=1;labelPosition=left;verticalLabelPosition=middle;align=right;verticalAlign=middle;" parent="1" vertex="1">
                    <mxGeometry x="-780" y="840" width="20" height="120" as="geometry"/>
                </mxCell>
                <mxCell id="UrZrE4dEw9ymg7tauEkW-49" value="&lt;b&gt;num_res_blocks&lt;/b&gt;&lt;div&gt;&lt;br&gt;&lt;/div&gt;" style="text;html=1;align=center;verticalAlign=middle;resizable=0;points=[];autosize=1;strokeColor=none;fillColor=none;" parent="1" vertex="1">
                    <mxGeometry x="-900" y="890" width="120" height="40" as="geometry"/>
                </mxCell>
                <mxCell id="UrZrE4dEw9ymg7tauEkW-60" value="" style="shape=curlyBracket;whiteSpace=wrap;html=1;rounded=1;labelPosition=left;verticalLabelPosition=middle;align=right;verticalAlign=middle;rotation=-180;" parent="1" vertex="1">
                    <mxGeometry x="-520" y="840" width="20" height="200" as="geometry"/>
                </mxCell>
                <mxCell id="UrZrE4dEw9ymg7tauEkW-61" value="&lt;b&gt;ch_mult&lt;/b&gt;&lt;div&gt;&lt;br&gt;&lt;/div&gt;" style="text;html=1;align=center;verticalAlign=middle;resizable=0;points=[];autosize=1;strokeColor=none;fillColor=none;" parent="1" vertex="1">
                    <mxGeometry x="-500" y="930" width="70" height="40" as="geometry"/>
                </mxCell>
                <mxCell id="UrZrE4dEw9ymg7tauEkW-62" style="edgeStyle=none;html=1;exitX=0.5;exitY=1;exitDx=0;exitDy=0;entryX=0.5;entryY=0;entryDx=0;entryDy=0;" parent="1" source="UrZrE4dEw9ymg7tauEkW-63" target="UrZrE4dEw9ymg7tauEkW-65" edge="1">
                    <mxGeometry relative="1" as="geometry"/>
                </mxCell>
                <mxCell id="UrZrE4dEw9ymg7tauEkW-63" value="ResnetBlock: &lt;b&gt;2, 128,64,64&lt;/b&gt;" style="rounded=0;whiteSpace=wrap;html=1;" parent="1" vertex="1">
                    <mxGeometry x="-760" y="1080" width="240" height="40" as="geometry"/>
                </mxCell>
                <mxCell id="UrZrE4dEw9ymg7tauEkW-64" style="edgeStyle=none;html=1;exitX=0.5;exitY=1;exitDx=0;exitDy=0;entryX=0.5;entryY=0;entryDx=0;entryDy=0;" parent="1" source="UrZrE4dEw9ymg7tauEkW-65" target="UrZrE4dEw9ymg7tauEkW-66" edge="1">
                    <mxGeometry relative="1" as="geometry"/>
                </mxCell>
                <mxCell id="UrZrE4dEw9ymg7tauEkW-65" value="&lt;span style=&quot;color: rgb(0, 0, 0);&quot;&gt;ResnetBlock: &lt;b&gt;2, 128,64,64&lt;/b&gt;&lt;/span&gt;" style="rounded=0;whiteSpace=wrap;html=1;" parent="1" vertex="1">
                    <mxGeometry x="-760" y="1160" width="240" height="40" as="geometry"/>
                </mxCell>
                <mxCell id="UrZrE4dEw9ymg7tauEkW-89" style="edgeStyle=none;html=1;exitX=0.5;exitY=1;exitDx=0;exitDy=0;entryX=0.5;entryY=0;entryDx=0;entryDy=0;" parent="1" source="UrZrE4dEw9ymg7tauEkW-66" target="UrZrE4dEw9ymg7tauEkW-81" edge="1">
                    <mxGeometry relative="1" as="geometry"/>
                </mxCell>
                <mxCell id="UrZrE4dEw9ymg7tauEkW-66" value="DownSample：2，128, 32, 32" style="rounded=0;whiteSpace=wrap;html=1;" parent="1" vertex="1">
                    <mxGeometry x="-760" y="1240" width="240" height="40" as="geometry"/>
                </mxCell>
                <mxCell id="UrZrE4dEw9ymg7tauEkW-67" value="" style="shape=curlyBracket;whiteSpace=wrap;html=1;rounded=1;labelPosition=left;verticalLabelPosition=middle;align=right;verticalAlign=middle;" parent="1" vertex="1">
                    <mxGeometry x="-780" y="1080" width="20" height="120" as="geometry"/>
                </mxCell>
                <mxCell id="UrZrE4dEw9ymg7tauEkW-68" value="&lt;b&gt;num_res_blocks&lt;/b&gt;&lt;div&gt;&lt;br&gt;&lt;/div&gt;" style="text;html=1;align=center;verticalAlign=middle;resizable=0;points=[];autosize=1;strokeColor=none;fillColor=none;" parent="1" vertex="1">
                    <mxGeometry x="-900" y="1130" width="120" height="40" as="geometry"/>
                </mxCell>
                <mxCell id="UrZrE4dEw9ymg7tauEkW-69" value="" style="shape=curlyBracket;whiteSpace=wrap;html=1;rounded=1;labelPosition=left;verticalLabelPosition=middle;align=right;verticalAlign=middle;rotation=-180;" parent="1" vertex="1">
                    <mxGeometry x="-520" y="1080" width="20" height="200" as="geometry"/>
                </mxCell>
                <mxCell id="UrZrE4dEw9ymg7tauEkW-70" value="&lt;b&gt;ch_mult&lt;/b&gt;&lt;div&gt;&lt;br&gt;&lt;/div&gt;" style="text;html=1;align=center;verticalAlign=middle;resizable=0;points=[];autosize=1;strokeColor=none;fillColor=none;" parent="1" vertex="1">
                    <mxGeometry x="-500" y="1170" width="70" height="40" as="geometry"/>
                </mxCell>
                <mxCell id="UrZrE4dEw9ymg7tauEkW-80" style="edgeStyle=none;html=1;exitX=0.5;exitY=1;exitDx=0;exitDy=0;entryX=0.5;entryY=0;entryDx=0;entryDy=0;" parent="1" source="UrZrE4dEw9ymg7tauEkW-81" target="UrZrE4dEw9ymg7tauEkW-83" edge="1">
                    <mxGeometry relative="1" as="geometry"/>
                </mxCell>
                <mxCell id="UrZrE4dEw9ymg7tauEkW-81" value="ResnetBlock: &lt;b&gt;2, 256，32，32&lt;/b&gt;" style="rounded=0;whiteSpace=wrap;html=1;" parent="1" vertex="1">
                    <mxGeometry x="-760" y="1320" width="240" height="40" as="geometry"/>
                </mxCell>
                <mxCell id="UrZrE4dEw9ymg7tauEkW-92" style="edgeStyle=none;html=1;exitX=0.5;exitY=1;exitDx=0;exitDy=0;entryX=0;entryY=0.5;entryDx=0;entryDy=0;" parent="1" source="UrZrE4dEw9ymg7tauEkW-83" target="UrZrE4dEw9ymg7tauEkW-98" edge="1">
                    <mxGeometry relative="1" as="geometry">
                        <mxPoint x="-710" y="1610" as="targetPoint"/>
                        <Array as="points">
                            <mxPoint x="-640" y="1520"/>
                        </Array>
                    </mxGeometry>
                </mxCell>
                <mxCell id="UrZrE4dEw9ymg7tauEkW-83" value="&lt;span style=&quot;color: rgb(0, 0, 0);&quot;&gt;ResnetBlock: &lt;b&gt;2, 256，32，32&lt;/b&gt;&lt;/span&gt;" style="rounded=0;whiteSpace=wrap;html=1;" parent="1" vertex="1">
                    <mxGeometry x="-760" y="1400" width="240" height="40" as="geometry"/>
                </mxCell>
                <mxCell id="UrZrE4dEw9ymg7tauEkW-85" value="" style="shape=curlyBracket;whiteSpace=wrap;html=1;rounded=1;labelPosition=left;verticalLabelPosition=middle;align=right;verticalAlign=middle;" parent="1" vertex="1">
                    <mxGeometry x="-780" y="1320" width="20" height="120" as="geometry"/>
                </mxCell>
                <mxCell id="UrZrE4dEw9ymg7tauEkW-86" value="&lt;b&gt;num_res_blocks&lt;/b&gt;&lt;div&gt;&lt;br&gt;&lt;/div&gt;" style="text;html=1;align=center;verticalAlign=middle;resizable=0;points=[];autosize=1;strokeColor=none;fillColor=none;" parent="1" vertex="1">
                    <mxGeometry x="-900" y="1370" width="120" height="40" as="geometry"/>
                </mxCell>
                <mxCell id="UrZrE4dEw9ymg7tauEkW-87" value="" style="shape=curlyBracket;whiteSpace=wrap;html=1;rounded=1;labelPosition=left;verticalLabelPosition=middle;align=right;verticalAlign=middle;rotation=-180;" parent="1" vertex="1">
                    <mxGeometry x="-520" y="1320" width="20" height="120" as="geometry"/>
                </mxCell>
                <mxCell id="UrZrE4dEw9ymg7tauEkW-88" value="&lt;b&gt;ch_mult&lt;/b&gt;&lt;div&gt;&lt;br&gt;&lt;/div&gt;" style="text;html=1;align=center;verticalAlign=middle;resizable=0;points=[];autosize=1;strokeColor=none;fillColor=none;" parent="1" vertex="1">
                    <mxGeometry x="-500" y="1370" width="70" height="40" as="geometry"/>
                </mxCell>
                <mxCell id="UrZrE4dEw9ymg7tauEkW-94" value="&lt;span style=&quot;color: rgb(0, 0, 0);&quot;&gt;ResnetBlock: &lt;b&gt;2, 256，32，32&lt;/b&gt;&lt;/span&gt;" style="rounded=0;whiteSpace=wrap;html=1;" parent="1" vertex="1">
                    <mxGeometry x="-400" y="1440" width="240" height="30" as="geometry"/>
                </mxCell>
                <mxCell id="UrZrE4dEw9ymg7tauEkW-96" value="" style="edgeStyle=none;html=1;" parent="1" source="UrZrE4dEw9ymg7tauEkW-95" target="UrZrE4dEw9ymg7tauEkW-94" edge="1">
                    <mxGeometry relative="1" as="geometry"/>
                </mxCell>
                <mxCell id="UrZrE4dEw9ymg7tauEkW-95" value="&lt;span style=&quot;color: rgb(0, 0, 0);&quot;&gt;Attn: &lt;b&gt;2, 256，32，32&lt;/b&gt;&lt;/span&gt;" style="rounded=0;whiteSpace=wrap;html=1;" parent="1" vertex="1">
                    <mxGeometry x="-400" y="1500" width="240" height="30" as="geometry"/>
                </mxCell>
                <mxCell id="UrZrE4dEw9ymg7tauEkW-99" style="edgeStyle=none;html=1;exitX=0.5;exitY=0;exitDx=0;exitDy=0;entryX=0.5;entryY=1;entryDx=0;entryDy=0;" parent="1" source="UrZrE4dEw9ymg7tauEkW-97" target="UrZrE4dEw9ymg7tauEkW-95" edge="1">
                    <mxGeometry relative="1" as="geometry"/>
                </mxCell>
                <mxCell id="UrZrE4dEw9ymg7tauEkW-97" value="&lt;span style=&quot;color: rgb(0, 0, 0);&quot;&gt;ResnetBlock: &lt;b&gt;2, 256，32，32&lt;/b&gt;&lt;/span&gt;" style="rounded=0;whiteSpace=wrap;html=1;" parent="1" vertex="1">
                    <mxGeometry x="-400" y="1560" width="240" height="30" as="geometry"/>
                </mxCell>
                <mxCell id="UrZrE4dEw9ymg7tauEkW-135" style="edgeStyle=none;html=1;exitX=0.5;exitY=0;exitDx=0;exitDy=0;entryX=0.5;entryY=1;entryDx=0;entryDy=0;" parent="1" source="UrZrE4dEw9ymg7tauEkW-101" target="UrZrE4dEw9ymg7tauEkW-120" edge="1">
                    <mxGeometry relative="1" as="geometry"/>
                </mxCell>
                <mxCell id="UrZrE4dEw9ymg7tauEkW-101" value="Upsample: &lt;b&gt;2，256，32，32&lt;/b&gt;" style="rounded=0;whiteSpace=wrap;html=1;" parent="1" vertex="1">
                    <mxGeometry x="-80" y="1200" width="240" height="40" as="geometry"/>
                </mxCell>
                <mxCell id="UrZrE4dEw9ymg7tauEkW-111" style="edgeStyle=none;html=1;exitX=0.5;exitY=0;exitDx=0;exitDy=0;entryX=0.5;entryY=1;entryDx=0;entryDy=0;" parent="1" source="UrZrE4dEw9ymg7tauEkW-103" target="UrZrE4dEw9ymg7tauEkW-101" edge="1">
                    <mxGeometry relative="1" as="geometry"/>
                </mxCell>
                <mxCell id="UrZrE4dEw9ymg7tauEkW-103" value="&lt;span style=&quot;color: rgb(0, 0, 0);&quot;&gt;ResnetBlock: &lt;b&gt;2，256，32，32&lt;/b&gt;&lt;/span&gt;" style="rounded=0;whiteSpace=wrap;html=1;" parent="1" vertex="1">
                    <mxGeometry x="-80" y="1280" width="240" height="40" as="geometry"/>
                </mxCell>
                <mxCell id="UrZrE4dEw9ymg7tauEkW-109" style="edgeStyle=none;html=1;entryX=0.5;entryY=1;entryDx=0;entryDy=0;" parent="1" source="UrZrE4dEw9ymg7tauEkW-104" target="UrZrE4dEw9ymg7tauEkW-103" edge="1">
                    <mxGeometry relative="1" as="geometry"/>
                </mxCell>
                <mxCell id="UrZrE4dEw9ymg7tauEkW-104" value="ResnetBlock：2，256，32，32" style="rounded=0;whiteSpace=wrap;html=1;" parent="1" vertex="1">
                    <mxGeometry x="-80" y="1360" width="240" height="40" as="geometry"/>
                </mxCell>
                <mxCell id="UrZrE4dEw9ymg7tauEkW-105" value="" style="shape=curlyBracket;whiteSpace=wrap;html=1;rounded=1;labelPosition=left;verticalLabelPosition=middle;align=right;verticalAlign=middle;" parent="1" vertex="1">
                    <mxGeometry x="-100" y="1280" width="20" height="120" as="geometry"/>
                </mxCell>
                <mxCell id="UrZrE4dEw9ymg7tauEkW-106" value="&lt;b&gt;num_res_blocks&lt;/b&gt;&lt;div&gt;&lt;br&gt;&lt;/div&gt;" style="text;html=1;align=center;verticalAlign=middle;resizable=0;points=[];autosize=1;strokeColor=none;fillColor=none;" parent="1" vertex="1">
                    <mxGeometry x="-210" y="1330" width="120" height="40" as="geometry"/>
                </mxCell>
                <mxCell id="UrZrE4dEw9ymg7tauEkW-107" value="" style="shape=curlyBracket;whiteSpace=wrap;html=1;rounded=1;labelPosition=left;verticalLabelPosition=middle;align=right;verticalAlign=middle;rotation=-180;" parent="1" vertex="1">
                    <mxGeometry x="160" y="1200" width="20" height="200" as="geometry"/>
                </mxCell>
                <mxCell id="UrZrE4dEw9ymg7tauEkW-108" value="&lt;b&gt;ch_mult&lt;/b&gt;&lt;div&gt;&lt;br&gt;&lt;/div&gt;" style="text;html=1;align=center;verticalAlign=middle;resizable=0;points=[];autosize=1;strokeColor=none;fillColor=none;" parent="1" vertex="1">
                    <mxGeometry x="180" y="1290" width="70" height="40" as="geometry"/>
                </mxCell>
                <mxCell id="UrZrE4dEw9ymg7tauEkW-113" value="" style="shape=image;verticalLabelPosition=bottom;labelBackgroundColor=default;verticalAlign=top;aspect=fixed;imageAspect=0;image=data:image/png,iVBORw0KGgoAAAANSUhEUgAAAvQAAAFICAYAAAA/PGqFAAAAAXNSR0IArs4c6QAAAARnQU1BAACxjwv8YQUAAAAJcEhZcwAADsMAAA7DAcdvqGQAAG7jSURBVHhe7d0LfBTV3T/+T0RqK1KJBEKCEoPVcIlcnjwNFwNBLbQGQkGlGmvqw+9PHoXGhxZjavugtcKvagxp+ZsmUviXYhRQVCKbxApeuES51DRcAhgvYFSSkASDDaiAsP9zZs7szuwl2U02yS583q/XkT1nZmfOzK6b75z9ztkwuwAiIiIiIgpJF6l/iYiIiIgoBPkc0J89px4QEREREVHQuCBSbr7aVaYeXdguTUxRj4iIiIjofMGUGyIiIiKiEMaAnoiIiIgohDGgJyIiIiIKYQzoL2R7v8KwwlOqQv45g5LskyhpVFUiIiKibtLxgL7+DO7/wSnEqVK4W7UHkQOVn2Jy5UlVU+obMLmsAQdUNRR88eER0WdxLFrpYN9lMJ9pR87tl6iGrlG17hnc8KgNVaoONKEk37XNTwdtfj7/feQ/Kvepl6wtTardHz0x7e4wZN/2FYLwLU9EREQXkI4H9AN64umPLkH1Rz3wK9VEneOKawdiU8ogbPqP76qW9jqFZZnnMD+/F6b1U01d6gg2H1QPRUD/SXvi6Q4ZgsxH78M7j96O30aopvYYcSlWp53DXdlfi6MgIiIi6h5MubkANZV9i6Vje+C2Eaqhy4jg/SiQNnwg1lS9rzcd/BCf3BiPNPy7GwL7jhs1tyfm7ziLl/eqBiIiIqIu5ltA75JWE/eD06hUi3zi+vz7z7iMaJ6F7X7TclFcU3cq863L77edVUsC4SSWlR3BP07If42Ulk+xrF4tVrTUHdPy//3wtFqiaGk8pnUcaT6n8Y+tYnsfNuN/tWUNOGCsu7UZX2jr+NaHNrn0wf35Z7Bjsx3z7/4e3AenZSrK8yhpMqekyLparNJj8g8aaTJ6yXeMtvuiN66+8VqkHW3CMVGrqvo3Jg137Yk1JcZTOo2euqPKC0dUq+7YludxQ365tn2d3l//Umusx2jdntklGJMGLH3H870IX5Q+iKSkJOQz4CciIqJO0nZAL4PxpHMY9pJMqzHKdzBaLW6bCNZfAn7veG4P/Oq1c/iDKSCvzP8WWXE9TNu/BHNHqYVCk+0U7qy+CO+Ylj+d2kMtDZSzWLL1OGImDtLSWl64tgde+pczT13mr89v6Y0XZMqLKv/32u+opZIIxOt6OZZtmtgbiXXHLAH1Sx+ewc9T+uJ2fIP5H/TEC3KdE19h1wm1Qht9aJMM5v91Bg+o58s+fPovl6C+8Vts2hGGgVGq7qYFj+dX4OpMmZJyH5YNF/W11mB2zQsv4ZOb9eUbbuwt6v7mvw/BpMgabBcXDpuPxmCcJZ6XwfxmfHLj7dr29X38G/eagnoZzN97NB4b1PJ37hiolgSKDOZfwuORkxx9WBZZhelegvpRN4j/jQ6fc7lIJSIiIuoabQb0lS+dw8Zf9bAE2P7pgdTMnqbR4Isx9lfAxhqXH6j987nWR/3FRcB2f0er/XT7fwzETy7TH19xbR8ReJ/Bp45gW7AE36564d7RvdRj4bJemCC29WmLcxQ/UWxzmHp8+3XhuOKy72CQqhva7EMrDtR9I/bRz/F8XBaOn4vA/aU60w3BdXZsQhiubCV3Pu2On2OaesHi40Ww3NSMOr2qGSeC7cyh+uO+w0VA7nO6jDNfPj7++9i8tgKfXD8EffUm3cEPsQYD8V/JzndM3+QEpDny7sVFwP7e+O2dSdbnBZK80GgaiGWzhqgG0d8b4zGuSV6EqAZXO+z4XD00u2LqUygvL0dml6c3ERER0YWijYD+LD6vBqbEhKl6+8gRdnO6zJ1/VguU0ZmXYO2v7LjTWMclJSci9RK88ycgK8nYhp8pP+12FjUqmJY3pL5wLbBkq5HO4j5ybk3JqccSHwPx1jn70LrT4uIB2PVhvakPn2K+ORIPJkOvxdXiRXam27Tgk0bgWMO/xQseDusXCBG4Wqz2SYN4QpO4KFCtnaaxGdvFBcS9RrqNlnJTJdqIiIiIgk8bAX0PXBnnYTTdH7tP44ZfA7nlznSZtR6mw5FBvb78YuTinAigvlVLdDKodz5fBP9uefjtcFlPDFAP3ZwQAbI4/hhjtFtwzDIjytKobzDfkf+uUnLqvoulavmmlAF4wPTcdvHQB+++g0G95bcAAxx9dBTzNwdRYZgMOz7v9vnT5UwzxjcBesAu9e3/fbdvBIyR/av7O0ftO1W/cIzDQCwzUnocxfnNhZuxYbhSPSQiIiLqSm2m3IxOCgP+fLbd88s3fSYvBkSwY0TOIsB3HaG30i8iWnNVjHrgo2FR3wXqjuMfjpHuk1j2r2+QGNULV6gWVwc+bMGuyy5FopdgesBl1hz++hNnLRcIX3zY2OER+rb64Eoe5y6xX+dxetDvYkwea8emf55RDZ2jqiBJuxn0wVLjksdHQ6/V0mv+brqBtWrdZqyJiEeaTPOJGIJJES3YvF8tl3PQu9wU63pRULXuJTzuz9Wfto8juHedmomnDbvfOQfEXuThJmPeFEtERESdr82AHqO+g+qXwvDn2410F2vKizOd5ixknG6sZ8xCE5F6MXJvMaXT/H9hWPsnbZHiPsONdgNs5sVqufsMNzf8WmzjaXNefhsG9HdJlzmGT68d4HJTK/DSv0ypKuiLTRPDHQG/6ww3d3zYE0tNy4eN7ovbT7TgDmP5iT5Y6vXGU++890GfKUdbJi5GIG+s1daTM+NoK2jHuek/epqOUy/WmW56YuykMGza/G3X38TpU7rMEGRmxgNvv+RId9FugM00cuYjMO1O0/IXgGVi/XHaMmXoOPxWBuTq+X/vfzuWDVfLJO2HqOQyPdDfbmzLEcCLfWTejt8e3azWU8XjTbGnsHMNMP+Grv2BLiIiIiJDmF1Qj89bX+0qU4+8kVNFilDtPwbhXq85OJ2t8/twaWKKenQKyyaewYGHLsHSlJ6qjdpjd+EJ3CUukg7MZUBPRERE3aPtEXo6D12Ce/MvwqYnTqOk23PpQ9jer3DXmouwmsE8ERERdSMG9BeqEZfiQH4Ysl/y/INI1JYzKHnOjpyXL0W7Z3QlIiIiCgCm3FxAnCk3RERERHS+4Ag9EREREVEIa3WEvqqqCrGxsejVyzSPORERERERBQ0G9EREF7gzZzr3dylCRc+enPWLiEITU26IiIiIiEIYA3oiIiIiohDGgJ464AxKsk9yLnuiENFUdhLzy5heQ0R0vgnNgH73acT94DQqVdUfTbZT4rnOYqtXC7pK0ytY8osRWLKpSTX4r2rVCPzmF0tQperdQwbzp5AdezGm9VNNAbIr72H0GaBKRgmOqnZ3Fcg11pMlr0K1B0od1mW01YfOoh9bbqAPKcCOrs9znv8BK7FLtQelipVaP/0/p6HxWvgiIuViDHviFJbtVQ1Bpvq1FVixYgXK3lcN0vtlWLH2XRxTVSIicndhjdCLC4Ebfg3kll+C6o/0kjpALTtfaBcMv8Rb7b9e8ElT2Wlkowe2dsKvpCYuWITj9YtQXRiuWjyRwXYxFmfP0NbVyoIEtYy6SuTMBfq5Lx2sWkLV+RO0t07/leilmUH8zdplvdFyuFpViIjIFxdUQN/0mR245SKM684gPuJWPPDsXjwwOUI1+C/+nr148tkHEK/qXe8UXn7Cjvl3fw/tP4qOqkWNDViY3JlBfBRmLRfB6vJpiFQtFMISZmsXH1kX+nXfiEuxOs3eOb8SLUfTV5ShQ+H45Vfhqi93491OHpQgIjqfhExAX5lvSpW53cNMm1oajnOdwt2qPWjsQdEvZKqMXtxTbuRyObJuXs860t6w6ZeO57ul3KhUnt8seBQN2IbXFxjrdSy9x6O9Z7F0bA/cNkLVXanUBkdxTVmpK0G6aXn6+jq1IHi0nvajp+LkVqiUHLVee0Z3LfsRxf1cmNOK8rDOZbHr88190NJh8iqsaTHmtCT5OsljM79eXo7V+3IftPV+6ADt+D2lWhnHJh+7vN+sr5NxfouxWNQWT3Wu577d1l+LtrmcS1EsfXE9T5b9y33LfXrpg/Zc1z6p/Xk4P6NuEB/9a84i4B+TQ1Iwc3gLtq14oQMBeV/ExQCffegtyaYaZSv01By9mC8gjuHdtTJlR//XWMeSwiNpFx6tLJf25iMpKQkPln6hGoiIgpich96bffv22U+cOKFq3edfT39jvy7ztL1R1e2Vp+zXXXPK/i9V1evf2DfUqXrdaXumqBdUysq39g2Z4vmi7laePqOt3rUa7W/+4Xp77kbH0Si77c+mX2/PTp9nf1Mt2vd3Uf/Dy/ajetVpX65YL9e+T1UtGl+255q20RkqC1rsQwu+UTUXtTb73ZFL7C/WqrorbflC+1Pvqbr9PftTon73K+5PqH9lif3yOTZ7vapr3vub/XKxvntpZZ8d4LEP9lr7i3P0/RrHoa0X+Tf7Tr3qk51LxDbctm3Qz4v5uNzWF+fCeR7d+6DXxXOWqJVcz71xLh3bdH0t1HEazxe89lnblofjb+v90EHaMZr6Z/Dcrh+f+Zw5tb2s1deiTe7n0kI7f+bz5Lp+W33Q17f8f9Tquf/G/syEE3Zbg147ffp0YMveYntBQYG9aEud5+Veyr5XC+wFr+4Tj/fZi5/dLD7KRbvclvFYtrtst25LkdhXsX2fVq+zb35WbEOsU7zX03JRtL4V2TfXqnrtZnuRWt9iz9P2G264wZ5Vckw1EBEFrxAYof8WO/4M5P5vT6/pHZXldkz508XOfPgBPfF/fgX8ufxbUemB1Kf1fPl3/iSqt1yEd1T+fHXmxdrqwSQ++y+4SR1ofMI9wEeH0aBXg8QZfH4YmBzT2lunGRt2eB6+PLrjA9iyZ5jSHhKQXhgOW1mFb6O2Km3ieP0MLBTVhaUqf75+AWZF6at0ldTCeY7jiBx7HVLFcdf4OmpbV4Knc8Kx/LHW03kWljqPKzF5MGBrRI1e1c6FOX3EYx9Sx6DauLcgKgHTU4E9n5pXGIyNjpSiBEzMFrs4XKvVUFeBDTax3HRvQmLaGKTaPsBWX49T4/390FGRg8KBg3Xae8f4RqKztPpatKXiH8hwOZdmu7YcArKTTe/hKMy6T+wjZ6/lRmPvfYjCxBTr/0f6/2vmbbqy40jnvCzaSP2cGcOA/eux4rX2JODE4ZrLD2Cn28j6x6hFNEaN66sagL7jRomWWnxsWrf38JlIGaI/7nvtVeiNFhxT3xhUi/d37+E/wnjjD0rEeIwaCNS65u2PyER5eTmemnqFaiAiCl7BH9DX23FAPfTsLD4Xn8Mbf/2tJeXmTnERQN0gahqKKscAcwscqQPmtIKaw80iSCl2LJMlbq5ou9DUNsKGcMR4DbZ8YU6/EGX0TrHNANL6eAhTOrKPNt4PHRbdT1xgyKC2DlvLxPXLQT0Alu+z1NhofZ0gcPRT8R5P7YcYVbeqQ81Bsdi1v/LY/LhIjJyZjIWOiy15PpoDf49J07t4wZSqsqK11JqIviKQFo60Lx8+TpwP1yD7WHMLcFkfl8GdCPS5DGhp9mUenGM49qVYV15omI5j2xG1mIgoRIVMDr13PXBlHLQRemPmGkcJwhH40NcTV8YCm2rOqboHMojTRs1FKR2MxVOdub0xseGAeWYao1xoN576Gay5k/nRLrP8iMA5VS0NCK2Pg7HR/Dppxc9vQ1p5P3RYVBRGyn/ltwlDk5Gb0oytFXqAPHJQh66WAkr7JsHriH4UYoaKxcY3Iwa/L/rkNyzq2xB5PjAG6a3G82EY6O8pihiPO+bMwRxHucM50m2m5ahvQ8vwmd7XacuQMRj25ceWG2z7hotLhBPHYb0+aMLxE0DvcOeovXd90fdyfQTfeQyq3CL+kBARhajgD+gHXIQptwAb/3lWr8ubX11uih2dFKaN0Hf5nPLBKOIa9Mc2VFa2+460Nvl1Q50WFDppaSE5xYEdpfWiqiBJu6ktPxjn3NbSX5qR8Uh7bxDVZ/lxjuqKAP+RAI/Qa308hCmBTGNxeT8Yvih9sJ03IEYjRpzHrWs+wMjkBO39tWeL7K8IhP0aoJfbARZrz+0ECSOwUH7b4eVcaukzOVtMFzoVyJ16CKmFP0GiavGFTIlCWQV27fgASBHnQ7W7kTe2i4D+ygD/hoR0bPsLWFHegmEz5uAOU2qM/+TNsS34+LCqSkOu0dJrdm93jsZXv7YNtZcNwxiVYtMWOfLfsv+Ntr814E2xRBRCQmCEvgdS/1d000ipuR1YWy6CfLVUM+o7qH4pDFlJzpQbWQqDaaabqiVq1pmb8PpHQEPRTXp91R61Qlua8NZjauaanFWivkrNhuM65/xIpGff49y+KAGf5WZED8zHOez0FCi7ztQxeidGmvJ+jRSMPebZRERxzu7iTCPRUnFsOxGn1f3/0aL4pDu1f9c+WwL//iQHrg/eySkx52E5jG3rxfcZfxKQVToYNkcqSwFq7tPvKwgc1ceD1hQp5yw1pllbRPAJR3qO6+wrah1ZXN8PyhU/TMY48e/2x1f7+YNpcnS7GYtzwjFRjkbLi5CDO5Fhc45sO2f5sc5kYz3X4lgfG6NdbDr6GtB8fPF6yfs+XNLNHBe2CbNRXQhkjDaWFWNP4TwUzfRzCF0ev3hPTZkbjvtbee7ud84BaT0wStUD5v0yrN/fGxPaOyrvQubH44j5m4s4pBi5+Ua6zJfDMPPO8SL895HM70/qjQPFzpQbWTzOdENEFCLC5J2x6rGbqqoqxMbGolevXqqFSCd/Qn7iE2FYvfXSwAcFAVOF/KT7sPauZ1A+r/tm7SdffIGSrOl4Ag9hQ+408DbETrT3KwzLhOX/3TNnzqhHF7aePXuqR0REoeU8yKGn7hCR8h3kjD2Huwo74cdpAuSL0lVYK/69M4nBfNDbuxpP7ADG3TiewXynOoVlmecwPz+YL8SJiMhfHKFvk/yhp/RW0wAGjQY+rVQVT24uwpP3aLfudRv5o1RLirapmgdXT8cVn2xoJTVlAn6c55xSU3cGJdmngQd7YVon5OK2nxqZxzg89MpTmNZfNXcR+WNHU3JUxRN5I6uX6QsvPGpkXgTzdxaUI9Pbj5UFLZmepafyeCOnVg2WX6eV36wtwnewNMU6Es0Reh1H6IkoVDGgJyK6wDGg1zGgJ6JQxYCeiIiIiCiEBX0OvbyoOHnypKoREREREZEZb4olIiIiIgphDOiJiIiIiEIYA3oiIiIiohDGgP48Jqeom1/mMnuF/FGZIJ47PjTJ6TtPoqRRVRWP55+IiIgowBjQn6eMX3Kd7TLfNEb0RM7hM90faDa9giW/GIElm5pUg/+qVo3Ab36xpNXfCOh8Mpg/hezYi93m4o9IuRjDnjiFZXtVAxEREVEnYEB/Pmr8GoueAHJe9vRrkD0x7cEewPkeaGoXDL/EW+2/XvBJU9lpZKMHts69RLWYXYJ78y/C0kz30XsiIiKiQGFAfx7a/dJZbEpzHzF26Pc9PPxQGJY+9zU6Od71LuJWPPDsXjww2fLTs36Jv2cvnnz2AcSretc7hZefsGP+3d+D16MYcSlWp9mR/RLTnIiIiKhzBP0PSwXTj1tVrXsG9+5XFWHcjbcjN1kP5Y5teR7T98VgQ2YS+motTSjJfwmbr1frHLThhjfDseHmZkx/4Yi2BjAQyx5NNQWk+nMeN6LsiHjT9tQ+GhLwTvyHuMHYxvBJeGfWEP2x5hSWTfwWA1/u5T2glxq/xvzbzmFyW+sF3B4U/SLdkSbTP/0tl6BeLv8rBub9N44sMNabgB/n/QU3qdUaNv0SS4q26RXcg3RzUC9H5hc8igZVNXPfVwfJ+xGeC8PWnFYCekmulwms3urpGxMiIiKijuEIvY9kMH3vURFgP3of3lHFCOZ91lSF6TKo155/O34bcQT3rnvfWKgH85EiQFfbXxYp1s8vxzG1hmb/ZhHMQ1wIyHUmIU3U8w+qZdLes1iKMFzZVpDe72JMHmvHkTpV7zIjRQAuR9bfwo9/oJrcbMPrC2RQL9fbi/SbRb3gFUeQ3n/yX7T2J7PvUS0mauT/ybxH0V+7ENC3IUtAg3lh9zvngNiLWg/mpRE9MB92fM60GyIiIuoEDOj90VSD7R3KURmIZY4R9whMu3kgcLRJD9ib3sfmJrHcNNoef2M8xrnt0zyqH4GrRTT5SYNzhabP7cBYEdCrelsOfB6cs7DEZztH5OMTROD+0WGPo+7d5ww+PwxMjvH1f6HuuHgiIiKiCwEDeh/1Tf45NtwIPJ7/DG54VBZbYGZXaWqGFuc1NmM7juBebduq5FeJNhcR4YhSD7WLgsx2fFNAREREROcNBvR+kEG9Ix1muAi+XdNh/HSs4d/OAL1fOMZpo+/69p3l55jmR7wecWUYsMOOz1W9LcOudJnWknzUE1fGAptqzql6W8Iw0HklRkRERBQwDOjbKap/b/VI17f/952j7ULVOtPNrR69jzVvt2Dc9UP0FJyIIZhkyalvJy1f+xx2tjUlZeO32LTDS5DZUIIHk5KQlJTfzXO8d0DENeiPbais7FCOVKtG3SD+91lzFrtV3Stf72sgIiIiagcG9D6SM9w4UmFEmf7290358MLQcfpNrmr53/vfjmXD1TIHc0rNZuAOc7qMTJ+5Hb89utmxD634/S3AJRiTBix9p/VpEpv+eQ6bxl6EsV0dZFYtwW9+IX8Q6ia8/pG4dii6Sa+v2qNWaEsT3npMPl+UnFWivgpF2vZc55wfifTse5zbF6UjP2LlkY8XT9rNs2k9OMMNERERdQpOW9lV5LSV2uw05mkqO4k2JeVZDMu/DPeOUG1m3TZl5fnH+EVer1NScspKIiIi6mQcoT8fGT8clfmVh3SQMyh56izw0HcYzAdARMp3kDP2HO4q9PSNyCksyzyH+fkM5omIiKjzcIS+q3TlCL0iR48X4TtYmmK68VWOGL/TAwfmXqIafGX9QShPBo0GPq1UFU9uLsKT94xUle5h/VEqD66ejis+2YAvVNWd9UeudOIiKfs08KD1Gw+P55+IiIgowBjQExERERGFMKbcEBERERGFMAb0REREREQhjAE9EREREVEIY0BPRERERBTCGNATEREREYUwBvRERERERCGMAX2XqUDugIfRR5X09XWq3YO6EqT7um57qO37v906rMvohP5cyPhaEBERUQcxoO8yCciqX4Tj9fOwPFU1eSQC/9E7gcJ5Yl25/iIUzYxSy7rGrjxxIZFXoWrUnfhaEBERUVsY0AebujrsQTimj+3EID5qGoq64UKBPOBrQURERB3EgN4P2mhpa6kwFSsty3O7cmBV2/dK7FJVJ5nqk4d1WldbT/sxjm9KjqjkFDvWc99urZbuYSxvz3G2fi6t/bTuX081ya3Q/zXWcfZBf67rsR1dn+eynU7E10IJgteCiIjoQmBvxb59++wnTpxQte4RDH2Q6l9ZYr98js1er+pu3vub/fLIJfYXa1W91ma/O3Kh/an3VN2h1v7inIX2u18xVtRp2xfru5e/2XeqdVql7c/Duh7bPffBsHOJ2O8St44L+vNkv4zj0vvtYx8Vbftez+V79qfE9s19s+6j7T64v1atH6+bz5633yr+15D/e1jLrfbnP1PrtIavReBeCyIiImoTR+j9YfsAW62DjQ67thxCamEaZhmZE1HTcH82sHiLb0OmkTMX6DnzlWOQinAsr9Tz54/Xz0aiWqdVUVEYiWbUyP5pN1p23ghoauE8ZCXojyPHXif6q/brC9G3p3PE8T02DZGqyaJiLxZjMO43paBEzkzGQhzCVtOpbK0PWt38WtVVYIPNus1WXXkXXrbb5cWuS3kZd12p1mkNX4vAvRZERETUJgb0PpIBd3UhkDHac+pBzUER788tcKQdyKKlS3SZaMSkikCqFji64wMRZTXrQVdtI2yp/RCjr9T9ZH/EBUuMl3ju6KfNou+u/ZXHBuz51MdIVbuYasaGHfr68nzYskf4dmEkfb4at4WFIcyt3IbVn6t1WsXXwqGjrwURERG1iQG9Hxyj6KJszD6EKRklOKotiULMUH2k0ljuKAvU0GWn0/sgLy62loXj/seuw54tFXpQNjTK8whsd4ju1+oocuSgcHFl1IgaVdfVosYGjBzk+6huYvJg2MrE8WvnA1ie5sfr0NERer4WFh16LYiIiKhNDOjbKSZWBDsmWtAyd4264bEzVSE/KQlJSQ+ipEE1KbJPe7b8AxuGjkBiVAKmH9yLraI9NTZaX8FH2rHl7O2cNBHZr9RmZDxiXAy5SBihpXQ8bbqRcldeMRanjkG6P3Fgwk+wHB9ga0UFNuA6TOziDA++Fibd/FoQERGd7xjQ+8h1JpC4ueHYuNyUe5wwG8dLw00pOXpxzPjhmAGnABk2ONNzAjjHuBxRteUcwshkGW1FYWKKCNbmNjtHU33sQ+TMNCxPPYQp2rqyBDIHPAqzls8TAd5OxDm2b54JJQFZlWMAU/rSlINjUG0+1z6Rxw9kTN2Jkff5+9yO42th1r2vBRER0fkuzC5zCbyoqqpCbGwsevXqpVq6XjD0gYiIiIgoWHGEnoiIiIgohHGEngJGpiW1OrNP9owuvEn4wsbXgoiI6MLBgJ6IiIiIKIQx5YaIiIiIKIQxoCciIiIiCmEM6ImIiIiIQhgDeiIiIiKiEMaAnoiIiIgohDGgJyIiIiIKYQzo/XRw6QG8eNUhHFR1T/R1jNL6ugFVV4J000/451aodg+Ors9zrNdnQB7WGb/2HygVK9vsg2cVyG3X84iIiIguTAzoA6zh1Wrsy/0urv9sGH6mlcEYqpZ1uqhpKKpfhOP1M7BQNXkkgu24ucDySrmuLAswK0ot6xIM2omIiIgChQG9n4bObz1IP/bJWSCrV9cF8e1w9NNmIPU6TOzMID5htnaxkMUfIyUiIiLqVAzofSRH3js/jaYO6zKcKTOeUlbkT/o7l6/ELtXeFbR953kYVpfpNRklOCoft5r2o4/M9xlQjMWitniqcz337RrrytKelKA2zqVKCXIUy/7lvuU+vfRBe65rn9T+XI7ji9IHkZSUhPy9qoGIiIgowBjQ+6j/T+P0FJpXv6tazI7iTRXs78sV1dxjjuB/w6tf6qv4YFdeATKGzlBpMHoxj3DLgHrKwTGoVsuqC5sxxeeg3hngxs1tBmw7EecxmPUuJjZcPbLSRvyHRiFSVlpN+0lAlmnZwlLncR5fYB3KXzx1C2JUStDG7GZkPKIuGHwij7WVcykD8qnNppSjeVh+sNjlPIh9jvbSh4SfYHlqMzbsMEX0IvjfYAvH8jR+JUFERERdiwF9QETiZpUzf32WqGb1VfnzwzD9p5frq/gqZ6+XAL0CW3NEwPjYND1wFiJnJovA+BC2+hSPR2HWcj04rS4UgXmq88LANZj2JnKQeN7BOi2o1W6q9fFCoD0Wljrz+hOTB4sLkEbU6NW2VfwDGbbB2OjluHZtOQRkJ5vuGxDn5j6xD5dz770PUZiYEg5bWYXjIuPojg9gs2xTd8XUp1BeXo7MEaqBiIiIKMAY0AeRxAVyJPgQphgj50Yai1RXhz3aqLFaphU9daXLRPdDqhbU1mFrmbgmOKgHwDWHm5EaG62vEwT0ewT6IUbVrepQc1Asdu2vPDZxfmt8TO3RLqZsH2Crtr48H81YmMzReSIiIup6DOiDjAzqHWkg2Ik4YxQ8KgojEW5KE3GWLrvxVOuDINNLhiYjN6UZWyv0AHnkoM68w9Y/2jcJXkf0oxAzVCw+XKvqSm0jbOL8xvh8GAmYmK3SbuT5wBikM54nIiKibsCAPmjpgaeTHkD6l0veTg0leDApCUlJ+ahSTbpoxKSKIH7NBxiZnIDIsddhzxZ5wSECYb8G6OV2gMXacztBwggtFWmKl5QgLX0mZ4vpptYK5E49hNTCnyBRtfgiMW0MUFaBXTs+AFLE+VDtZrwploiIiDobA3qffIkdc9UMNz/9RtS/wT7tptdqmO+L7Bj3WVm0G2BNeeBaSs5Q082sWnHeFOv8sSjrLDLp6wPVSXmR0YzFOeGYKLsVlYDpB3ciw+Yc2fatD1GY9dgYpOYUq3VFCWg+vrz5dgYWmrcvimOWm4TZqC6EKX2pGHsK56Fopp/fMsjjx05MmRuO+/19LhEREVGAhNkF9dhNVVUVYmNj0atXL9XS9YKhD0REREREwYoj9EREREREIYwj9BRC5A89tT6zj5zbnr9OS0RERBcSBvRERERERCGMKTdERERERCGMAb0P5LcEJ0+eVDUiIiIiouDBlBsfMO2HiLw5c+aMekTdrWfPnuoREdGFhSP0REREREQhjAE9EREREVEIY0BPROSXU1g28SvsVjUiIqLuxoD+giLncX8YfVRJX1+n2j2oK0G6r+tSN2hCSf4zyNrSpOrBTO/rDY8axYYqtaSrVK3zZ/+tnVsZzJ/BgYd6YpRqMat+bQVWrChDtap3nWN4d+0KvLD9mKoHqaZ38cIKeY70Uva+au8Eu/LkZ9dK7FL1rlOHdRkh8Jnp8hmfW6HaiSgkMaC/oCQgq34RjtfPw/JU1eSRCPxH7wQK54l15fqLUDQzSi0jw7Etz+OG/HIRSpF3Mjh+CY8jHhsevQ/vaOVabF7XiZGcq4M23ItJat/3YdnwI7i3na/b7sIzWJrWE0tTePNlu0SMxx1z5mDOnAmIVk3UTaKmoUj7fJ+BhaqJiEIXA3pyV1eHPQjH9LEM4qljjm15HY83DcSyzCT0VW3AEGTOGqIed4GhqXjHtL/4G+MxrqkG2/39cqPxa6xcE4ac2y9RDe7ibpHBagriVJ26T+ICGazORqKqExGdzzhtpQ+CadpK+TXylBxVEVIL51lHzytWos/UQ6oCLCxdhKwEVXGQXwkXYEOKy3MN8qvY0R9geuUCzGpXTK9vP8OmqoKlHy59RPYMHF/gWIjcAVsQU5mMmtHFWKy1hWO50Rftuc3Oukbtb6h5O51HjsxPf7tF1cx647eZP8e0CL3mut64G29HbrJaiPeR/2gFrs78MbD2JRH0yjbr8zUHbbjhhSOqIkTEY4MWHOsj35uvn4RJ+zar5wNpd9yHzKH64zbJbb8Zjg03N2O6sQ/H9iWjjwn4JH8z1mhtHvroldFH83F74HqMwyeZAvA2+qA9998ufVLfCkSat2PSVI6s/BpMMj9Ha6vCdlWVrK+XWKXsJCbWXIwDc60BvZy28tj2F7B+v/FaR2OCS1CvLT8+CjP77HauN3AC5tziZ+j/fhlWlNeqinDZMMy8c7x4vWTKzXp8FjMBV9Vsw4ET+uLopDlIMZ8C1+eb+yCX7e6DmaOOY72xjmP7UjXKVuxGnxmjcLx4G/Q1emPYjDsw3vTyyrSjbY6X0/1c6OS2tgGu/ZNkWk7xATj/z/G2DXdy2sqj6/MQN7dZtQzGRpegXlt+OBnVsVuc61k+g3zk+jmWOgbVy6ch0vH5OgPTy4odn4Nun8WtfQ7KZc/0Q/V9jYgz1nFsX2rjc1Kx/r1wPxc6ua1iwNPfCu1vwU44P8q9bYOIup0M6L3Zt2+f/cSJE6rWPdgHp/pXltgvn2Oz16u6m/f+Zr88con9xVpVr7XZ745caH/qPVV3qLW/OGeh/e5XjBV12vbF+u7lb/adap226du+fInbTnWufXRb/z37U9o+nevsXCLqjuP20HftOM3bbF3d6lvlRax7mfW8vU6t44umzc/Zxz+9zd6k6mbast9vsO9Tdbv9oP3p3xfaH9jcaKmPN7W5be/ABrH8ObvNeIpFo932tP78pw/oLe77bIO2fbENxz699dHZh30vmtdvi+v2PHA7RnVcLx5U9bb6oK9v2UfjNvsDXs+bh2PQ1neeR4/btJ+22x5ssf9P6WlVdzp9+rSz7C22FxQU2/eZ20Sp21Ik2gvsBa/u09tqN9uLRL14r3W9Vou27SL75loPy07X2Tc/K7Zv2qa+T3Nf9tmLjf3L4toHbftiG89uttcZ64t60ZY69Ry9bu7DvlfN67vX3ftgFH1b7sfvrV0V1Wetn5ai98lC+6xx/+xyfM4ZnzlePydb4fY5ZqY+00zb1Pdp7ov4nDN/Rrr2Qdu++XNP/1x0fu619TnpXnfvg0Hflvvxe2snomDElJtQY/sAW73ca7VryyGkFqY5R2iipuH+bGDxFt/udoqcuUDPma8cg1RttEfPn/fra+uKfyDDNhgbvYx2yT4iO9k0ihSFWfcNBnL2Wm5eW1jqHGlKTBbLbY2o0WpRmJgSDltZBY5qdeDojg9gs2yzdQPSXpYXsu7lxbswQK3TMU3Yvq8F424ch3jVItNM0m7sLdrft+Rum0eB+/b/vnhqM/SXtwklbx4Ry3/c6mi4fL4xIt93eAzG4d/4xK9UEnM6zBBMGg5sb7BuIO0O50h2fPxAUx87rqrqCDA8wXSMEZh2s9jH/g8tN65670MExl1vPa/H9tdgu2WbJjKffr/Y3s3OFCB9/UltfLNxDkd2AMOu7EDuvBztNkbDI+Jw1WVAS7OvmfzH8O7uWvQe/iPLaLir3sNnOka8+157FXqjBcccL2ccUszfCHjsQzQmOEbk43CNONUtx63vh+gk54h8XGw0cOK4eLdK1fj4SG8M+5HxfNGHcaPEFmvxsZ+3TNQe9nJbsSMH37VYvyVokxztNj6johIwPRXY86mv7+o6rHvG5bPWA/ntqTHiHTn2OvGZ2owaxy4SkGX+jPTYB/E56hiRT8BE8VluO2z6dkXw/jlZga054jP8MeP58vM9GQtxCFv9vPnV178fRNS9GNCHEBlwVxcCGaONmQnMMzjUoeag+DyfW+CYtUAWc3pOVzj6abP4S9YPMapupfcxVQYBZtH9XP7YtU77w+S4sKnD1rJmLEz2fAHhSf2a2xAWFuZefrYa9WqdjmnSguqr+1sjDGvArrOsI3O9H01VFwGetxFaInB1q90Xxyiuysa5HmO/cL8uTPqK1z7NkROvX0ylxXtItVGpPeaLIKmuwVP6VLBpwvETImAPN0Ll9tFn4THKekdqTkA0HROXDy04UGzeh5Ga4ytx0SFvmD2yzbENy8w9LrPkOMsLeNfH90vH1aLGBowc5OMIghf6LDxGsaYodph2H1Sz6W+FLEZqjq/kJAozsDCn2LENznZGFLwY0IcYxyi6KBuzD2FKRokaqY5CjAhS5KiQsdxR/M0N7YDIQeGmUSJXeh9dR5lQ2wgbwhHj899HOVrVjA07xB+XugpswBik+3GInT9Crweyn7iMdB9r+LdYFC7Ogi88byO0iGOIhNu3Ek5quesxNjZjO77fxsWAmfxmoQWb94vtNL2PzeKSKM11tF3myKtgvtV8fq8uwsCxwIHPz6h6V4tAH79G9N3JPP5tR2Q+ujGqPRPDxDYDJqIvems59eaRc7245cm3Sgb16rkzhgH71zuntwzUCH2HRCPGrxF9dzKPf0qOzEc3PqfbmnnMT1FRGGn5ltVZ3O+pao0xM5oolWOAuQWc3pIoSDGgD2ExsSJ4NpFfudrmrsG6Th9EqUJ+UhKSkh5ESYNqMiSM0L7WnZLn+VNf+1o4Z4upjxXInSq/vv6JXzdaJaaJPy5lFdi14wMgJcHxtXJX0kfcPc2WotJA3t7uTBsRAeXjb7dYUj1aZ2zjdZR0MKavKpCvVRIeLP1CtQSa9/eDPqNMFaZbpql8H/mqrqXP7K8wHaNYpgXe5nSltsn9QFw4VO0Xl5LXD3E5x2Kb8obX4ZM8BvN6H4wUH3VDrds574mxk8KwafO3Yo3u0BdxMb3Rsv+Ndo9ENx1vAS7rI95ZumPb3wjsCL2WotOCA2+86+UCrh20i4Rgo9L+OvBZW3PY+k3m0fVrAjtCrwY9Mh4xBnwCQLtI8KChBA/K//+zStBZnzBE1DYG9CHE+hXtw4ibG27KsRQSZuN4abjL16ymHwyRMydobfrXu470HC/Bd/u4f01r6YPoozVtqBh7XGfq8YXMOcVOTBHn4P7umiN/aCqWDW/B444fTXreEZj2Tf65Pt+58WNGIqC82p8ZaAS5jQ03wrR9uZ0Qm/c+Igm5j05C2v7NzmN49ENMMmafEefQeoyb8Ul7RtEjhmCSCMnvffv7+C+X51atU7PjWPoginGRob2Oxmulz8qzbLi+yCzihxdh8o5z2NGoGhz0H3XSUj+02WFqsa0T0kD6jrsDM0W/LCkta30PnuNumYDoEwewXj1XzrozQVzLBJKctnPC5c596MX5Q1vyWwK9TU/FqS3X13Gk1bil1GxDi+m+gLbJGWbUZ4s2O8whTNE+Z/ICOtDhnv4oiuPb0rYlLhCfkbadiFPPlbPubMxWCwNETtu5cahzH3pxpmnKbwn0Nj0VZ/FUfR1HWo3LD08Zn9VuI/z9xyN5rPh3xxNYvVdvIqKux2krfRBM01YSUffZXXgCdx3uga0533OMdMtpKyk4yGkrqet9Ufogpj8OPPTKU5jWXzUSUZfiCD0RkY9Gze2J+TvOYlEZg3giXRVWP74dGJuM8QzmiboNR+h9wBF6InI6hWUTz2LM1ksxStQ6OkJv/VEqDyw/7kSt6egIvfVHqTyw/LgT6SPzIpi/6xmUz/PnrhciCjQG9D5gQE9E3jDlJngw5YaILlQM6H3AgJ6IiIiIghVz6EOEvKg4efKkqnUP9kHHPujYByIiouDAgJ6IqANkyg1LaBQiovMVA3oiIiIiohDGgJ6IiIiIKIQxoCciIiIiCmEM6ImILgByvvsVa9/FMVUPSk3v4oUVK7BClbL3VXsn2JX3MPoMWIldqt516rAu42Gkr69T9SBVV4L0AfIc6SW3QrUTUVBiQE9EFBSqUdbJQWzQixiPO+bMwZw5ExCtmqibRE1DUf0iHK+fgYWqiYiCFwN6IiK64CQukMHqbCSqOhFRKOMPS/mAfdCxDzr2Qcc+6PTpEI/h3bXrceCE3gb0xrAZd2B8hF6T6S7ra67CzDvHo6/eoq3/WcxM3DGuCWUrtqFWa3cxcALm3BKnKj6QKSvFB9CiqkA0JsxJgdyC0YcJMZ9h2361huv23y/DinJTT8zL5bLdfTBz1HGsN9a5bJjpmOQ3DLvRZ8YoHC82jsd6HqTq11Zg2xFVMfXPSm5rG5A0BylDVJOhlWNsi/wl2aPr8xA3t1m1DMZGl6BeW344GdWxW5zrZc/A8QUJ+mNfVaxEn6mHVEVIHYPq5dMQqaXcFGBDygxMLytGhk1fvLB0EbLMu3B9vrkPctkz/VB9XyPijHUc25cqkDtgC2Iqk1EzuhiLtbZwLK9cgFlRWkUj046m5KiKh3Ohk9sqBlz7J8m0nNE7oQ5B8LYNIupsHKEnIuoQFcxfLoJfLV1ElKTeOFD8At5tUqu0Kg4ppjSTaBHEOrbTjmC+t/n5roHuiQPYdnyUvmzGMPQ+ss2U4iOC6MPXOJ/rtlwQz18vg3ptHdFfUX9juzkrv0Uctwzq9W1MGCjqbzjz9rVg/ktxEaD2MXN4C7atKBN79pXoY2vH6JKD7yzO1yJy5gIcl6kkpYP1Bk9yirWgXluvcgxSRd2vHHItGG8WAbT8FkAVR7Cts80tRs19+rLqwnAsnmrO5xdB9JYRzud66oNtJ+JkUK+tMwMLRT3LkpffjIzRMqjXt7ExW9QfKcFRtVQL5g+KiwC1j+rCZkzx654C0UcRzI8Ugb6jnwzmiboNA3oioo5oqsZnJ3pj2A9NofOQMRh2WQs++7DrbkGt/ucBtAyc4D6ibSZH1I2LhIg4XHWZCMGbjT6KCwvzBYTbcikaExwj8nG4ZqBYftx61RKd5ByRj4sVlygnjkNfoxofHxHn6UfG84G+40aJLdbiYz/vG6g97OUSwJGD71qs3xK0SY52G6PhUQmYngrs+dTXm1jrsO6ZQ0gtTLOMhrtKLZznGPGOHHsdUkUAXuPYRQKyzN8IeOzDYGx0XCQkYGK2iPEPW7/nWVjqHJFPTBYXMLZG1Gi1CmzNCcfyx5wXGZEzk7EQh7DVz5tfF2/h3bJEwYABPRFRRzQdRwt6o68lYOyLvpe7B7ud5xiOfQn07uNP1OpOjqA7R7XNKUQB0HRMnCc5gm/eh5dUI6/ktxkTEH1km2MbL5i/IfBhhL7z1aLGBowc1Eo07wN9Fh6jFDhScwKirg57tBF88z6M1BxfiYsO+c1ATrFjG0E/cw/ReYwBPRFRR0T0EeF8C45ZAsbABNi+6/gFhMyx33ZE5qMbo9ozMewytTAQIvqK8yRz6s0j53pp9VsFN0aKkigzhgH71zvTggI1Qt8h0Yjxa0Tfnczjn5Ij89GNVJZ5WC62GTBRURip5dSb02X04pYn3yoZ1KvnVo4B5hZwekuibsKAnoioI7TUlBYc+KczDeTY9jdw4EQ0Ro3Tk0v6hvc2pZ7IkXBPo98R6CMCaK/pJG3Q0ltcc9790HS8Bbisj+iFTj8GVQkImaJjzanvMO0iIdhEYWJKOGxz12BdO2P6msPNQGo/xKj60fVrAjtCr6XoWHPqO0y7SPCgoQQPJiUhKasEX6gmIgo8BvRERB3SF+PvtKaBrN/f2zrzipZTX4ttavnuPjMxYaBa5iC28yP9RlRHqshrfgT3Q1IwJykateXquVrx/YbTuFv0m1zXq+euPz7KQx87Ju6WOZhwuXMfrn3UfvxKa9NTcYxjcaTVuKXUbEPL8Jl+jPDrP+qkpYhos8McwhQtXSSv3cG3J/LG2+pCWFNaMnwPnhMX6De5xqnnyht0N2arhQEip+3cONS5D704b4qV3xLobXoqzuKp+jqOtBqXH56S6+0x3Rfg0H88kseKf3c8gdV79SYiCjxOW+kD9kHHPujYBx37oNOnraRQIKetpK73RemDmP448NArT2Faf9VIRAHFEXoiIiLqJFVY/fh2YGwyxjOYJ+o0HKH3AfugYx907IOOfdB1+gi92w8puXL/8SbyrKMj9NYfpfLA8uNOpI/Mi2D+rmdQPi9etRJRZ2BA7wP2Qcc+6NgHHfugY8pN6GDKDRGdr5hyQ0TUATJIZAmNQkR0vmJAT0REREQUwhjQExERERGFMAb0REREREQhjAE9EREREVEIY0BPRERERBTCGNATEXXQrryH0SevQtWClMtP9ed2WnfrsC5D7COjBEdVS1fas+ZuXP9HU1lzQC0hIjp/MaAnIroQRE1DUf0iHK+fgYWq6Xw0Mu057PudUX6H+w//EX/drRYSEZ2nGNATEVEARWHWcnHhEBS/mNoPV14OHGxoVHUiovMTA3oiogDTUnBc01oqVjrSXdxTXiqQOyAP6+pUuoq2jqyrxY7l8l9Py3XGfvWyErtUe8C4pO247sOyfw8pN9b+eVmv1fPkp7rd2PTltZh8fT/VQER0fmJAT0QUQDJonXJwDKrrFyErQTXKIHVqM5ZXypQXUSrHYM9U12C1GRmjC7AhZZ62TnUhkPGIOdiVy7cgRm1jY7aom5ab96s/vxlTAhrUi4uJ0TsxslQdg1ZmI1EtlRIXGPsOVy1WxnK9yNSfcCx/zDSS38Z5ql9zG8LCwtzLz1ajXl9FaETZX1T+/MpVGJrye6REqUVEROcpBvRERAGhj65rQbVLusmuLYeQWpiGWUZgGTUN92cDi7dYh59TC+ehaKa+UuQgERTbGlGj1XQLSxc4tpGYPNi0vAJbc6zBceTMZBEwH8LWjoxwe+Da5/aR56oYMB2P1NZ5GpD2Mux2u3t58S4M0NaQ+iHll0YO/Z9w5Tu8MZaIzn8M6ImIAiFnJzJsIui+zzV3vA41B0XsPbfAkkoyJUctNhk5yBTdJsyG6wi4V3V12KON4Du332dAMRarxYGRgCw5qp5T7NhH+nqXnB8fHV2/BhlDZzi/wdC0fZ58G6E3E8H9DZOBw/8U54eI6PzFgJ6IKBCyZ3hJpYlCzFB99N2ZbqLKAktE235RURgp01eMVBVTsQbNHSWDerVtcawQwbffOe51Jcgquw7Vbsfe9nnybYTeg8ujMVA9JCI6HzGgJyIKFDk1ZOlgLHYJ6mV6jG3uGrebWAMnARNdcuo7nXYR4S+Zh/8Bppvz5k0Cf54O4K9lm/Cja0chQrXoqpCflISkpHzxiIgo9DGgJyIKpITZ2k2hMqh3/NiUTJ8pDXdJiengDC4u5A2nG4fuRJxp++ZZaI6uz1NteiqO1j9R9zltxm2Gm2LsKZxn+gbAOQNP3NxmwGb0xdmHXXly366pQabZejp8nkQAb/5RqT/+EUh5Dn+a4jrLTTwm3SX/XYtVpV9oLUREoSzMLr+v9KKqqgqxsbHo1auXaul67IOOfdCxDzr2QRcMfaAQtTcfSfPW4s6CcmSOUG1ERCGKI/RERHSB+QIlz64V/96JSQzmieg8wICeiOgC5/EHn8zFSB06H8iR+aTpeAIPYUN5JuJVMxFRKGNAT0R0gbP+4JOHEqjZeILBiEyUl5ejPHcarlBNREShjgE9EREREVEIY0BPRERERBTCGNATEREREYUwBvRERERERCGMAT0RERERUQhjQE9EREREFMIY0BMRhYw6rMt4GH0ySnBUtXhVsRJ9BqzELlUNnAP46x/vxvV/XIU9qoWIiLoXA3oioq5QV4L0AXlYV6fqoWj3KhHI/xNX/ue1qoGIiIIBA3oiopARhVnLF+H48mmIVC1d5wD++k403v7dPUhULUREFBwY0BMRBcCuvIfRZ4CzpK9XQ/HayLxoG70TNjQjY7SHdVCBXG30XqXUaMuto/mW7XtJubGsM/WQajXR0nCc6+RWqHafDMN//3IyIlSNiIiCBwN6IqIOOro+D1MOjkF1/SIcV6VoZpS+MGoaimRb5RikIhzLKz2so5HBfgE2pMzTllUXAhmPOAP3xAX6c6oLw1WLlQzmLX0oHayWKDKYn9rs3L/oz56pzqC+fs1tCAsLcy8/W416fRUiIgpSDOiJiALB9gG2djA/PrVwniPIjxwkAndbI2q0WlsqsDVHXCw85j0VZ9eWQ2L7aZhlXEOIC437s4HFW/SIfkDay7Db7e7lxbswQFuDiIiCFQN6IqIOipy5QB9Rd6TTtG92mZGDTCP2CbNxvH62b/nqdXVtzDhTh5qD4vpgboEl5WZKjloscISeiCh0MaAnIgoAGdRrqSyibMw+hCm+TC3ZZaIQM1T/BsDoo6MsSNDW4Ag9EVHoYkBPRBRgMbEe8tyjojASzdiwoxPmrYxKwPRU07a1fHnrTbGJyYNhm7umC6bNrEJ+UhKSkvLFIyIi6goM6ImIOsh1hpu4ueHY6Da1ZAKySmVQ7Ux7cc5y0xY5C46x7WbAthNxWt1I7YnCrMfGAMa2pwIbtZtwTWQKT2m4ZZYdWXyf6aYRZX+RPyh1N25870NR34S7tR+Y+gPKLIcRj0l3yX/XYlXpF1oLERF1rjC7/E7Vi6qqKsTGxqJXr16qpeuxDzr2Qcc+6NgHXTD0gTzYm4+keWtxZ0E5MkeoNiIi6jQcoSciogD6AiXPrhX/3olJDOaJiLoEA3oiIgoMOTKfNB1P4CFsKM9EvGomIqLOxYCeiIgCY0QmysvLUZ47DVeoJiIi6nwM6ImIiIiIQhgDeiIiIiKiEMaAnoiIiIgohDGgJyIiIiIKYQzoiYiIiIhCGAN6IiLqMk1lJzG/7IyqERFRIDCgJyIKOnVYl/Ew0tfXqbq7o+vz0CejBEdV3bAr72H0GbASu1S96zWi7C934/o//gFlHrofkXIxhj1xCsv2qgYiIuowBvRERBQYdZvw6z8WANdOVg2eXIJ78y/C0syTKGlUTURE1CEM6ImIziOJCxbheP1sJKp612lE2Su1+K/f/R4p/VWTNyMuxeo0O7JfOqUaiIioIxjQExF1iJ4ek1uh/9tngF7c0mUqVjqWaSWvQi1Q6kqQ7lhegAybanewbj9ubrNq12kpOI7nu6fcaMvFPi3rufTBug2j+Jq+0w8pv7wHI1WtLaNuEH9+1pzFblUnIqL2Y0BPRBQAi6cWoOY+OTouSulg2OauwTpHTF+B3C0j9GWyVI5Bak6xuAhQi2UwP3onRpaq5fXzsDxVLdPIYF4E+UNnOLZRXRiulukiZy7Ql4l9eyX2GXc4WV/PtQ/igiNuLrC8UvVB285gbDRG+z9fjdvCwhDmVm7D6s/lCn4a0QPzYcfnTLshIuowBvRERAGQWjgPWQmqkvATEZA3o6ZW1ZGArAXGQiEqAdNFwL7nUz3iP7rjA9iyZzif76quAhtsIrg2b6M9Useg2tiGax8+bQaykzErSquKLo/AQohjMC5KrrwLL9vtsLuVl3HXlWodv9lxxOWLDCIi8h8DeiKiTmIEy5I++4xRrCk1NYet6TNuahvhloETYJGDwoGcLY5vFY6u34LFCEeMEeAHeoSeiIgChgE9EVHA1aJGROAjB+nRsMxNn5Ij01dUOotbSk2waEbGaP2iQ0+/Md1c2ykj9GEYaFwwEBFRuzGgJyIKMH10ezAmquwWbQQ+tR9i9KpYvsYyQp+YPBjI2atuPlX58uYheS395RC2qnx3eYHgelNsR+3ackhLG9IvOGRZ4Ey/6Qx7z2KpCOiv7KfqRETUbgzoiYgCwDa3wJFSE1d2HapNU0cmLpiBhbadiDOWH07Gxmy1UEqYLeqHMEVbXoANKfOsy2UOfulgLJ5q2r7l5lfTDDhTD4m6sa080425rUtMGwOYjsEojptmfbBnjfxBKVHKNonah/jNSr3+Vw9T2ex+5xyQ1gOjVJ2IiNovzC6/M/WiqqoKsbGx6NWrl2rpeuyDjn3QsQ869kEXDH0wRtRlEF40M1TzRzwfg/5NQLhzpptA2fsVhmUCq7deyoCeiCgAOEJPRHTB03P+XbmmCgXGKSzLPIf5+QzmiYgChQE9EdEFLwFZle4pN1MOjkH18mmIVGsFQlPZtzjw0CW4d4RqICKiDmNAT0TUIVGYtXxRCKfbKFHTUOS4IVaVAAfzUkRKLyxN6alqREQUCAzoiYiIiIhCWNDfFEtERERERN5xhJ6IiIiIKIQxoCciIiIiCmEM6ImIiIiIQhgDeiIiIiKiEMaAnoiIiIgohDGgJyIiIiIKYQzoiYiIiIhCGAN6IiIiIqIQxoCeiIiIiCiEMaAnIiIiIgphDOiJiIiIiEIYA3oiIiIiohDGgJ6IiIiIKIQxoCciIiIiCmEM6ImIiIiIQhgDeiIiIiKiEMaAnoiIiIgohDGgJyIiIiIKYQzoiYiIiIhCGAN6IiIiIqIQFmYX1GM3VVVViI2NRa9evVQLEZ05c0Y9omDXs2dP9YiIiOj8xRF6IiIiIqIQxoCeiDrs2PYXsOK1alUjIiKirsSAnlpxCssmfoXdqnZhuZCPnYiIiEJJaAb0u08j7genUamq/miynRLPdRZbvVrgsz0o+sUI/MYoq/ao9lDUhLceG4Elm5pU3UwGtGdw4KGeGKVaAqMCuQMeRh9V0tfXqXYP6kqQ7uu6AXcJbnvIjruyvxZnKZgdw7trV2DFihfwbnB3tHXvl4ljEMfBUX4iIiK/XVgj9OJC4IZfA7nll6D6I72kDlDLfCID4HRU3VyEJ5/dq5d7Rqpl55fdhWewNK0nlqYE+qbCBGTVL8Lx+nlYnqqaPBKB/+idQOE8sa5cfxGKZkapZV0jIuU7yMFZTCw8pVqCUFM1PsMwDBvYgs8+PKYaQ0/14VpEDx+G3kc+BkN6IiIi/1xQAX3TZ3bgloswzq8g3uwIjnwExCecn0G8Q+PXWLkmDDm3X6IaukFdHfYgHNPHdm0Qb9UT0x7sgclrvkVJo2oKGH1k/YXtHQvCj334GRATh/Gx0WipqRZbDUXV+PhINK4ZF4erLqvFx++rZiIiIvJJyAT0lfmmVJnbPcy0qaXhONcp7Ibk54ZNv3Sm4ohiTWWRqTq/xFtNepqLvo6sy2XeU1+0bZrSeqpWObcvS1GVWiA1vYIlv1iCKktakKybaOsYy27C6+ICxVXTP89hU9rFmNZPNbjYledMg/GYClOx0rI8t0K1Bwm9/3lYZ+q23rYSu1Tdod/FmDzWjk3/DPRUlX0x/s4J6L1/fQfSTI6huqYFvcP7AhF90PvEZ6g2vYWMG1W1f2U6iyWlRaXquO5bS30p69pR8vc/Ru1lfRAhzknfy4Haw+a9V6NMSyeS/6pjMKcXaf11TTfyfLH0RemDSEpKQv5e1UBERHSeCImAXgbzd1ZfhHdUmkz1S2FqiSKDeRHkO1Jpyi/CgduNoP4sbPfrQb5Mt8Fr53CDEfjnfytXaFvVEhUAp2vBcVWOERAbAbkeeC8pGox0IxXn2SL0L7rJJUjfhtcX3ITKcW9p6zyQDrxe8AoaRCjTP0at4qKhdhv6Rw/UK6IflQnG9uXzJ4i+uATsWCWCebHhbH2d9JtF3bggkMH8gkfRXy178tm38OMf6IuczmDHZjsmx3h+axxdn4cpB8egWqXBuKXCyGB+ajOWV6rllWOwZ6rvQb3cvnYhMHonbGhGxmjjwsBDsN1OiQsWYWO22PYjJTgq6tox5QzGxvrZSNRXMemJsZPCsKnmnKoHUhxS5szEsC+3tS+Iluk2J6JxzRDxOEKObntIuzmyDeuPj8KcOXMwZ4ZMadmGMm0EXFxQjIoWy80pLiIQ3l2L3sPHiJ51HZlu0zsmTvRInJFY1z5JLThQvBt9ZohjEMcxYaCov/Gu/m3EkDEY5nrc7+/EAXFeRo2TWyQiIjr/hUBA/y12/BnI/d+eIuz1rLLcjil/utiZDz+gJ/7Pr4A/l8uAvQdSn9YD/Xf+JKq3mC4MMi/WVm9T/AMqAC5CvKw6AuK/4CatU02o2i4C7/R7tOW6kfixCLgbtm8VAbtT//S38MBk/Uj6Rw0GPjqsLe8fLdatPaK1y1F4jzeqin6kO3eA/qNvRn8cQoPLqrJ/xnpyu6j5WNtHQ+WbaLi5yLINd+dwZAcw7MpWcudtH2Crl/tTd205hNTCNMwyYvyoabg/G1i8xbeIPnLmAseFQCrCnRcGHoPt9ktcMA/LsRNZeSuRNRdiP21s//C5Tro5Vo7UyyC1Ftv8vLFVptu0DLxGBd99ERfT2z3t5rJhmHmLCs+1oF+Ex81qjSHXIBqmFBftAqE3rrq2KwNhmW5j2qdrn5TopDswXn0AaEH/iePq9XA/bnmBAMd5cbpi6lMoLy9H5gjVQEREdJ4I/oC+3o4D6qFnZ/F5NbDx199aUm7uFBcBXUfPre8fZb3kMAfsBss62oXCA9pFgLauFnjvQWWNCMK1C4EmNNSYn+Myw86CRy3b1k3AQNM9Av0n/wVPPnKrCPz10f6OkgF3dSG8jJzXoeagiPfnFqhlepmSoxYHlSjMemwMkHMIMF+ABFD1a0aKiCqtpNZE9Okt/tuCA//0dZxepdv0cb6f+oaLbTgCXV/EYczw3o4UF/0CYZQjcO4SMt0GvdHXsc8I9DFfdPig77hRiHakG+kXCMN+2JXfMRAREXWvkMmh964HrhR/u+UIvTbqbi6+jsB32EAM/IEImOusoVRDnQgWfxCrBdNtGqDWq3oDDeP+gB/HvImqJnmhYAToHmbYyXvUt2375SIMHAsc+Nx7zrhjFF2UjdmHMCVDT12RQXLMUCDVNDONoyxI0NYIHvosOiNLZ2CkuABpMyUo9iKv3xB5E3eLniLiKMZIuYWe771+f29M8LqOB9pough8ZQ6+ccFQXisW+HdTad9rr1Izy8gLBHR5IKyNpos+b3Nc+KzHAXlcft3gG4drjFl+5AVCV1+UEBERdbPgD+gHXIQptwAb/3lWr6t8ebPRSWHaCL3/c8oHSgTix01AQ9EqZz570ysoKtqG+Fv10fE2RVyD/h8dxusVhzB6tNhewmBUVn4sFgxGfy04Ud8CGPn0MsAv8DRC7118wj3Am2+oPsoLBE83xaqc8c3f+jTSGxMbrh7pEpMHwzZ3jeWG085RhfykJCQl5bvcQ+CLOqzLKMbi7BnISkhAVulgLJ5qvUnWqfV7CjpG3ugpAtjLJ4iAP8WvvHVtNF2m05gvGESZIN4e1ptK2xAxHqMG1mL32jdEP7o6EJaj6TKdxnoMWq6/yw2+bYn74TBg/xt4YXeL14sS3hRLRETnqxAYoe+B1P8V3TRSam4H1paLIF8t1Yz6jnajbFaSM+VGlq6c6Uamtmg3oJrSYeTNp63nq5vJUX5xQVBzM+JlUBX/I/QvehRVjhH+kUjPvkdcNNykUm5uwpFb9Zx+n8kcfEcf9Ztz029Wy0wifngRJu84hx0epmp0neEmbm44Ni6fhki1HAmzcbw03JSSoxfHCLhjBpwCZNhM6Tl5/k6FE49Jd8l/12JV6Rdai29kMC/3PRgbjW8NRJ+1m2RHewjqG7/Fph1hmPzDQM/HL0fmt6Fl+EzfR+VNmo63OG4kNfN8U2nr5HNaTrQgOrZrR+fRdAxir/pNvWbebvBtjXpOC65CHEfniYjoAhNmF9RjN1VVVYiNjUWvXr1UC10odheewF2He2Brzvf8TjXpMnvzkTRvLe4s6KwbHc+gJPsUNk26xPIDW2fOBHoKy24mp34sByb4+S2BmZwaU5tNpx0XJ4EhL5DW47OYmbjDNLtNz56BvhAjIiIKPudBDj11hlFze2L+jrNYVBaswesXKHl2rfj3TkzqpFlLmspOIxs98HDAfy03mFSjrLwW0UntD+aDwbHtb+AAhuFHnKqSiIguQAzoyYtLcO/Wnhj2xBl0w290tU6OzCdNxxN4CBvKM/1LO/LZKbz8RBhWB/M3FB3R9C5e0G5C1dN+UlzTXkKEMZOQdlPxnePdUpCIiIguBEy5IfLTeZdycx5jyg0REV0IGNATEREREYWwoE+5kRcVJ0+eVDUiIiIiIjIL+hF6fktARNS68yENjOlRRETtx5tiiYiIiIhCGAN6IiIiIqIQxoCeiCjknMKyiV8F35SyREQhrqnsJOYH7W/weMeAnvzQhJL8Z5C1pUnVg1/Vumdww6NGsaFKtQeNpnJkib51zzl9H/mOc9OxPlStGoHf/GJJ8J3fANGPT5XHXkGDau8eMpg/gwMP9cQo1WKmz81fhmpVp653dH0e+gx4WJWV2KXaO0VdCdId+3oY6evr1ILzQ9PGP+D6P96tyh9Q1o7D27PGeL4sq7BHtQevCuSK1zK3QlUDobYYz/e/Es+/0mh9fKGp+H+xQhz7BnluzY9NIlIuxrAnxOfsXtUQIhjQh5hjW57HDfnlOKbq5J08V/fuH4hlj96Hd7SS2kk/QuWFFqw/j5Kgvf4ZgkztvNyO33brr2ftQZEIlIuC+Gog/p69ePLZvXggfYJqaYemV7DkF7/EWx18P+wuPIOlaT2xNEh/wfjY9hewYu27F/RnVOTMBThevwjHSwerls4iAr/RO4HCefr+RCmaGaWWBUInBJb+qNuE//vheLz9u+ewT5S3/xP4zUr/AnJ5QXD3F/c4tvFc7Cbc/ZdNCJ1hqcDqHdNPPbI+Pn9UYIOHIN3qFvR2/G9ifmy4BPfmX4SlmSdREkLXPAzo6bxV19ACDL+2a4N4f0UkIVcE1bnJof17tHrA+0Bwn+vzQePXWLkmDDm3X6Ia3MXdMgdz5qQgTtXpPFZXJ4LbcEwfG8ggPohETcaffjnZ8WvdEVNm4X5swk6fc80O4JX3PsT9Nzi3MXLSPfjRl6vwyoWWrxZ9FXqrh5bHF5qoQfieemh57GrEpVidZkf2S6dUQ/DjtJW+kF9pjt4JW/YMHF+QYGmTIyOBHRHxTI42T39bBKhueuO3mT/HNPVp5breuBtvNwWLMsWiAldn/hhY+xIe14YorM/XHLThhheOqIoQEY8NmUnoq6XcvITN10/CpH2b1fOBtDvuQ+ZQ/XGb5LbfDMeGm5sx3diHY/uS0ccEfJK/GWu0Ng999IFMt7kXk/DOrCGqRdGOD1hmGrG3rutjH+QIfH4VtqsqIL8NENt0a3dyvh5yH8a2XV8ng3Udx/a1x/pr8cnNt+PqN43X0sNr4fpaDvdwPhyvq6c+tK5h0y+xpGibqt2DdJegXlte+994IPqvzvVuLsKT94wUD+TIfLrnNB3HOlIT3nrsJrz+kar+4FE88Mit6K+qxj6eTHgDv8lZpTeanu+xDy7bQNUS53Mly/6dtG1tv9n6XEWm5RS9qSpCfPZepMuTIUfmFzzqMU2nf/pbeGCyOucu61mWKTK3c2LNxTgw1xrQy2kr5cj4+v3G//vRmOAS1GvLj4/CzD67nesNnIA5t6i13i/Dit19MHPUcawvr9XbLNupRtkKcf6S5iDFeAvJ55RDWyfCsn+z3hg24w6Mb+OtJaet3JX3MKbkhGN55QLMUh+rettgbKyfjUS9qeMqVqLP1EOqIqSOQfXyaYhUVUnfr6oIqZbP+jqsyyhAhk1VRVBt7rODth947rtLHxaWLkKW+vPiM+3v0AeY7mnfgusxuO/D9TiMdeTIfDEWqzYL899BbQTfvJ71dZKpR3GHk3E8ea/zWC3P99cB/PWPfwRSnsN/e8o3c7V7Fa4vA5773T0w/m+W6Td3HwZ+9J9/wp+mdHyEWj/G67D84E7tPC4snQFMlefE/J7w4f3i+p4ULK+XEYeoqvX92HG1r2Sg7PB9SIl9BmX3vaY3/uZVzHnA9FrJVJ1RmfhaVb/3TCV+fqv5HDbi7Tmj8fEGVcUtuGb3ctwYrdeMfcyZ9A5W3KLemK77kGkwxjKh/2ufY7r57eKyHNPzkbJihvikkiPzP/WcDum6D1/t/QrDMoHVWy/1mN4YdGRA782+ffvsJ06cULXuEQx90NTa7HdHLrQ/9Z6svGd/Sjy++5VabZEv6lbfKi+c3Mus5+11ah1fNG1+zj7+6W32JlU305b9foN9n6rb7QftT/++0P7A5kZLfbypzW17BzaI5c/ZbcZTLBrttqf15z99QG9x32cbtO2LbTj26a2Pzj7se9G8flucx+haHPvQ+mDts7aPFw+qmg99aNxmf0CsY5wHj7R1vJ1Lg35OncdvcD0vrufal9dCbMNxTILXPnvrgx/25dqz03Pd3gdHN84T7dfbs/++W29ofNmeK+rPWlbcbX/Wrc3QaH/zD6bnC/v+Lup/eNl+VNUd+3Ds37o9tz6o5bkbjRdX9n2e/U3H4bvv06Bty7RvB7ENc//1fbqcD+3YzfsxcTsvLn3UnLbbHmyx/0/paVV3On36tLPsLbYXFBTb95nbRKnbUiTaC+wFr+7T22o324tEvXivWkd7nlj+7GZ7nfacOvvmZ03rn95nLzav73iOdV/afhzbsJZ9r4rtyX24FrEPw84lC+2Xz7HZ68Xj+leW2C+P/Jt9p74oMLTP8iX2F1v5+Db3wZP6V/5meb7X9d/7m+f+a+2mPlj+vrRNPy9in27FtC+xD/P23M9lrf3FOeI5S1rbqf63znO/3P8Ouu7D2U+jzbq9dx/z8DdRlsfe1Vdw0fj6o/b4//t38X+Hjyr/bo/P3yj+j5b225f935/bf/V6g3336p/b41fv11o7yjhGeUza+0B7XfVzq58bD+fZ9fV3rbued7f3h8u5/+x5+62eziNutT//mb5KW468PMe+vN9A+/JctZMj6+3Pifqrxj5d66IPr4r6cy83qLrcxlL7W0dURajMFdv7f9bbjSbHPvottVdqLfo2HNt8b6lYNse5DY99MC33yGWbHfKN/ZkJJ+w25yEGNabc+CpqGopKB2Px1JXIzRNX39kz/Lo6HpD2srx4ci8v3oUBap2OacL2fS0Yd+M40wjpEKTd2Fu0v2/JZzWPBvft/33x1Gbo9xk1oeTNI2L5j1sdDZfPN0aB+w6PwTj8G5/4lZA4EMscI/JDMGk4sL3BuoG0O5yj4fHxA019bIuRF34flontaiPSqu7v6HNrfah6uwrbxbZ9/mbCXwc/xBpxnv7L1Oe+yQlIwxFsPqgahNZfC3EuzKPxEeJci8194nKuO50cDTdGuyMmYvQPgIY6H/vQtBWVH92DdNNoefzUR9H/ozdRZdmE+duBgRjoug9zHzASP06fgIZa/ZuLqopVwM3/jZscpzoCN916D/DmG77f5Bv/gD4ar/QffTP64xB8PdUNlW+i4eYi0zZUH7dvNY04ncORHcCwKzuQO3/ZMMw0RuQj4nDVZUBLs/nTIRoT7hyv/t/si/GjooEvjwUsH15PB/JQjD4JiQvmYTl2IitvJbLmAssrAzgy79CMDTu8fKLUleBp+S3BY9YRe7PImbMto6uJyYMBWyNqVL0tu7YcQmphmnMb4u/L/dnA4i2+Jas7cvQrxyBVG+3V8+ePm78JSJhtGY2PHHudWLcZNcZhV/wDGbbB2Nje0fKKvViMwbjf9HcwcmYyFor3/VbLYZhH7aMRkwrs+VTvxLiHPfxNlOXhcdpyC5lP/96H+NF/pjhG230mR+r/uA5Xzn7OMSr/o74BzB9PHYN04zRmJ4vXNQoxxt+GugpssInXKM10nhN+guWpzveg2/vBxdEdH2gZAs7XMwHpheGwlVXgqKxeeRde9nQe7S/jriu1J/hGjnYbI9nRNyB6uvh8qNGTyGt3lOLr37xqGi1PwH8+cwu+LnsHju/zbv0fx2i8NGqSeFNv+NRl1Dwb/9nwP2rEexB6m/axe3MOvvfMH53biJ6B4b8Rn4+bzW+o10RfujKx3Y4jXj4qgg0Den+ID8iN2YewWH796+eHYP2a2xAWFuZefrYa9WqdjmnSArmr+1uDVmvArrOsMzTVdLOo522QK3GexKfouE48T8ca/i0CrnBYP98jcLXYpT8BuXWWH2dqTsioPyz+GKzSbpp1zDLjKX3lB7GmFBgRkD+y1y1dxU3Nx2I7TWgQUVj/aHHBZjZAbs/3gNy4sbfVPraioXabuIBIdz5fFGcqUzc7cVycpcDQZ+DxUF4zz8kThVmPjQFyDgGtBDntJgdnRCCMuQWOmWEsN33WNsImguSY1vYr0x/Uc7XikirRujrUiItym2n/sphTYwJDv6HVsQ9TuoZ09NNmEYj2Q4yq+8vz860Bu8ayjnhtlztv3N2+yMPfRFkWuSQsimD+1ytX4Y3Y3/mfJvPlKtz4TjTe/t3vkaLtthFHvtCWdA2P7yc94LcdlqGw/n5oTc1hca5zii3vl7i5os3w+Wrc5uk8ht2G1Z+rdTqo4fBrwJM/1WaFMYojNcegZs9xrGNOjTFMH2T6rO6HG1d8rtJ2GtEszsPX94227OO9J/U1NSLA//nufMC0Tus3v15YGND7QebKTTk4BhsLmzElo0S/MvZR54/Qew72PAeG3vgfMF6YxHmKdP9WIZA8XYj5e8HlPstPd89m0w5aYC1H3/VZZpzlL6YRdf9pAXTMNWLbEegvog1jtN5Bu5AYDN9OtczxT0eVzLs3+pf3qOmPVtv6R0/Q8/YtxyiKJVf/IgwcCxz4vOvmRz7W3AJc1kecpcDwZYReC0RF8DmydAZGiqC3U2ZYkUG9mhVGzkSzeGoe1hn/s0X3s45ku9H7Z55Zxr/ZbPRgTuZAO55vlHbnlruSOdv6N8mObWuj+U6Rg8JFROn7twquPD+/FjXiqmHkIN/+4vg2Qn8Af1XB/L60YarNR6N+iPvFP+abYmXg+PmX12Ly9QEcoW+Nx/eTHsSnxpqGs1sREyvOtfm1NIpx30egRuhb0T/2Fj0XveFza9Hy16UKbBiVCTxT6Vz2Wra2xDf9EC7+v5B5+Zbty2LOf5dBvdEutt9wSwbeNr4i6BRhGOjb27nbMaD3VcVKcUUM7WvYxJlp2lfCcXldf2moB3o12O4WS0Zg3PW9sf3t7c40gaZyPP52C9JuNtJb2mJs4/UOT7VYVZCEpKQkPFjaWUMhVcgX209KehAl/gyFSv3CLakpeuCrP/aVloKzfzPyWxtZiRCBP1qweX87TubQa7X0mr+b5oavWrcZayLikWZ8ldsGbZYf08XcsS2vt2+EvqEED2rnOr+T5pnXU2SqKjxMRqel6KxC0aoAzhzd9Apef1O8hgn6F/fxCTK95q+m6ST3oChnFfqn32O5wde7IzjykXmUXwT4BR5G6CPkBcQ2VFa6vwhais6b6W1M3dkTYyeFYdPmbwM2Yt66auzc34LeMXHq8yMCfcwpOk3v4gXHzbNOfcN7Ayc+Q3W7OukMRLMSEpDlGmwbjPdkVgk6/AmjBVwmUQmYntqMjEe8DNpoM8uYg1YR4Ps1Qq+n6NjmrnE/roDRA2tnwCjO6yPWEXokjNDSY6a0+ndMH3H3mAqknv+0ad77XTId1Zx+0mGNKPvLH/H05ffg7daCeTmC73GO+WEYEws8XeZs37NGbm88El2CNONvVn6g5x433k9rnOfw6Po1WrqTnq4UhYkppvQZ7ZsVeVOtk5YulVPcfdOHCtFjp+J7T/7U+4h47Wfirx1MU2GKAN/TCH0rZIrO1/f9zvcA3eMsNXoajzVNp532nsVSEdBf2UXXfh3FgN4X6u5zZ46b/pWw/B+sT1cH9UNTsWx4Cx7PN9IonPOc903+uVh2BPcaKRb5VbjanxloBLmNDTfCtH25nfNs3vuIJPyX6RxOb0gQx+znJF4yVemOgVjzguk8uf1w1RBkinW2v/2SYx3HjzfJ2We0Nj0NxrHOuvf15fK5mSKcND333qPm2YDaFj9rEtKaqjBdPV8ep3ZfgaHNPrRFjkyrFBFthhgjNcbfudYjcNO8R7WA1pFy4gjgZfrMW/hxjTUdxe8fd/roUSwxnrvgTYzOUzPQSPEP4IF04PUFxvbT0WCZYcaZTqOlwTi2ZfyQ1kikZ9+DhqKb1PNvwpFbizxcDLiuJ7a3SZ2oiFvxQJ64CMjR292WKxE/vAiTd5yDewrpMby7VqWvaEF2LbZp6Swv4F2/XgvjebKIY02agzvGGe84Pae+Zf96fXnxcYyaMQxu/+cMScGEgS04UGxsx9c+GDOBmFIatTRHEQyNdgnq+49H8ljx744nsNrfAEx+nptSF2QqyshS84wjMi1Ez+OPM63n+MGmqGnILQwXFxrGsi2IKTWPfsvjUMu0QF8Ezdp6pmMQx3W8NFwcl7ENvQQuYNMvhpxpPQWouW+GCMDNxDr1os0llcPaB9PfOmMdx9888XyX1CX5DbbrbEEd0bSxAL/5UjyQaTOOH4YSxY955Eemqbnn1XO1OelNU2Ea4pPu1P5d+2wALhIt5PvJep7j5oZbZgOKNAYJteXFQKl4/5mvMlWa2B7He04vXfojYirdpeUWZzqMLI4fpxLLb3zmFjQ4lj+D3q/le58W0pOE/8Gc167Hx6Os+3BcRKgfgnKUUZliH85ZdHT9cONjYr/m9KAl7fsfa/c754C0HqExw43AaSuJ6LzW2lSToWh34QncdbgHtuZ8zxGUyGkrO8w0BaU5AaaryGkr/fFF6YOY/jjw0CtPYdr58MJSN5Pf+t6HtXc9g/J5vn03R+exUJuyUuAIPRFRCBk1tyfm7ziLRWVdl0sffKqw+vHtwNhkjGcwTwHwRekqrBX/3pnEYJ5OYVnmOczPD51gXmJAT0QUUi7BvVt7YtgTZ3Ch/dilJEfmk4yR1NxpuEK1ny/k5AvmtAq34ueEDNQW/X4s/duecmSOUM10wWoq+xYHHhKfsyH2XmDKDRFRiAtIyk038zflhoiInBjQExERERGFMKbcEBERERGFMAb0REREREQhjAE9EREREVEIY0BPRERERBTCGNATEREREYUwBvR+Orj0AF686hAOqron+jpGaX3dgKorQbppvuLWfkbcOtexy8+qB4L6eXX/f8q8Arnteh4RERHRhYkBfYA1vFqNfbnfxfWfDcPPtDIYQ9WyThc1DUX1i3C8fgYWqiaPRLAdNxdYXinXlWUBZkWpZV2CQTsRERFRoDCg99PQ+a0H6cc+OQtk9eq6IL4djn7aDKReh4mdGcQnzNYuFrISVJ2IiIiIOgUDeh/JkffOT6Opw7oMZ8qMp5SVXXnm5SuxS7V3BW3feR6G1WV6jfFz5K2m/egj830GFGOxqC2e6lzPfbvGurK0JyWojXOpUoIcxbJ/uW+5Ty990J7r2ie1P5fj0H+mPgn5e1UDERERUYAxoPdR/5/G6Sk0r35XtZgdxZsq2N+XK6q5xxzB/4ZXv9RX8cGuvAJkDJ2h0mD0Yh7hlgH1lINjUK2WVRc2Y4rPQb0zwI2b2wzYdiLOYzDrXUxsuHpkpY34D41CpKy0mvaTgCzTsoWlzuM8vsA6lL946hbEqJSgjdnNyHhEXTD4RB5rK+dSBuRTm00pR/Ow/GCxy3kQ+xztpQ8JP8Hy1GZs2GGK6EXwv8EWjuVp/EqCiIiIuhYD+oCIxM0qZ/76LFHN6qvy54dh+k8v11fxVc5eLwF6BbbmiIDxsWl64CxEzkwWgfEhbPUpHo/CrOV6cFpdKALzVOeFgWsw7U3kIPG8g3VaUKvdVOvjhUB7LCx15vUnJg8WFyCNqNGrbav4BzJsg7HRy3Ht2nIIyE423Tcgzs19Yh8u5957H6IwMSUctrIKx0XG0R0fwGbZpu6KqU+hvLwcmSNUAxEREVGAMaAPIokL5EjwIUwxRs6NNBaprg57tFFjtUwreupKl4nuh1QtqK3D1jJxTXBQD4BrDjcjNTZaXycI6PcI9EOMqlvVoeagWOzaX3ls4vzW+Jjao11M2T7AVm19eT6asTCZo/NERETU9RjQBxkZ1DvSQLATccYoeFQURiLclCbiLF1246nWB0GmlwxNRm5KM7ZW6AHyyEGdeYetf7RvEryO6EchZqhYfLhW1ZXaRtjE+Y3x+TASMDFbpd3I84ExSGc8T0RERN2AAX3Q0gNPJz2A9C+XvJ0aSvBgUhKSkvJRpZp00YhJFUH8mg8wMjkBkWOvw54t8oJDBMJ+DdDL7QCLted2goQRWirSFC8pQVr6TM4W002tFcidegiphT9BomrxRWLaGKCsArt2fACkiPOh2s14UywRERF1Ngb0PvkSO+aqGW5++o2of4N92k2v1TDfF9kx7rOyaDfAmvLAtZScoaabWbXivCnW+WNR1llk0tcHqpPyIqMZi3PCMVF2KyoB0w/uRIbNObLtWx+iMOuxMUjNKVbrihLQfHx58+0MLDRvXxTHLDcJs1FdCFP6UjH2FM5D0Uw/v2WQx4+dmDI3HPf7+1wiIiKiAAmzC+qxm6qqKsTGxqJXr16qpesFQx+IiIiIiIIVR+iJiIiIiEIYR+gphMgfemp9Zh85tz1/nZaIiIguJAzoiYiIiIhCGFNuiIiIiIhCGAN6H8hvCU6ePKlqRERERETBgwE9EREREVEIY0BPRERERBTCGNATEREREYUwBvREXaCp7CTml51RNV+dwrKJX2G3qhERERF5woCeupicS/5h9FElfX2davegrgTpvq4bxGQwP/GJMMxO6alafHUJbnvIjruyv0aTaiEiIiJyxYCeulgCsuoX4Xj9PCxPVU0eicB/9E6gcJ5YV66/CEUzo9SyENL4NRY9AeS8fClGqSZ/RKR8Bzk4i4mFp1QLERERkRUDegpOdXXYg3BMHxuCQbzJ7pfOYlPaxZjWTzX4rSemPdgDk9d8i5JG1URERERkwoA+VBjpJ3kVqkFQbV2dirIrz5kG4zEVpmKlZXmuqctdpw7rMqz9tPTDpY+W86qlBeVhXZ05PUjWjcXyuaa6Ru3Psp1T2LkmDDm3X6LqTvo5tG5Db1uJXaru0O9iTB5rx6Z/+puDT0RERBcCBvShImoaiirHIDWnWAWmzpQUX1NR6tfchrCwMPfys9WoV+u05ej6PEw5OAbVKg3GLRVGBrtTm7G8Ui0Xfd4z1fegXm5fC6DFsdnQjIzRMsj1Euh6JYPrAmQMneHooyxZCWqxax9l+s/BYpdgXO57C2LUOhuzRf2REhyVixJ+guWpzdiwwxSNi+B/gy0cy9OMnQh7z2IpwnClh9H5xAXWbWrnNWcwNtbPRqK+iklPjJ0Uhk0151SdiIiIyIkBfSiRQX3pYCyeuhK5ecVYnD3Dr7zyAWkvw263u5cX78IAtY5PbB9gq8ugvGHXlkNILUzDLKNbos/3ZwOLt/gW0UfOXKAH2fLiBSJAdgTdngJdLyr+gQybCI4XmIJrE9lHZCc7+4gozLpvMJCz13LRsLB0gWOdxGSx3NaIGq0WhYkp4bCVVegBvnB0xwewWbYJNH1uB8aKgF7VXSUuEBcS2ImsvJXImgtxrG0c4+FzvDmWiIiI3DCgDzUJs7Ex+xAWy9FcLwGrN4EYoZcBd3UhvIyc16HmoIh75xaoZXqZkqMWd5GjnzYDqf0Qo+pWeh9TY6NVXYnuJy4gmlHj5ULFVeTMZCx0XNjUYWtZMxYm+/d6aBcSj40RFxLiAsN8EURERETkBwb0IcZIedlY2IwpGSoFxEeBGqF3jKJrqSiHTP2IQsxQESybZqZxFD8vPjoiclC4aTTdld5H2+FaVVdqG2FDOGJ8DqoTMDFbpd3IdBuMQbrLIUZcGQbssONzVXenp02NLJ2BkeIiqM20pNiLEKEeEhERERkY0IeSipWIk6kZj01D4sw0LV0jzpL33fViYkXwbCJTU2xz17jcMNoZqpCflISkpAdR0qCaDAkjsBDiQsPLudHSZ3K2mPooAuupMlXoJ76n9QiJaWOAsgrs2vEBkJKASNXuMKIH5uMcdu5VdQuZ56+nTWUlJCBLS6VyvdHWcAY7NtsxOYb/uxIREZE7RgihQruR05yfrqdrpOa43szZuVxnuImbG46Ny6c5g9mE2TheGm5KydGLY/RZmyFGthUgw2ZKzwnoMci57mdgoTw3nvog+mhNGyrGHj9uLnaISsB0cVE1RZyD+z0+9xKMSQOWvuM6h7y6adec56+lUskbcT0E9Y3fYtOOMEz+ob8/TEVEREQXgjC7zLnwoqqqCrGxsejVq5dq6XrsA4W0xq8x/7azGJZ/Ge4dodr8cgYl2aewadIlWOr3L80SERHRhYAj9ESdqd/38PBDYVia+RV2qyZ/NJWdRjZ64GEG80REROQFA3qiThaR0gtbH7JjZZm/Pwx1Ci8/EYbVOd/jzbBERETkFQN6oi4gg3r/U2Yuwb1bL8UoVSMiIiLyhAE9EREREVEIY0Dvg/j4eN4QS0RERERBiQE9EREREVEIY0BPRERERBTCGNATEREREYUwBvRERERERCGMAT0RERERUQhjQN+ljuLNqw7gzX+pKhERERFRBzGgJyIiIiIKYQzofdTwajVeXHoU+NchvHjVAb3Iupl5mWUkXh+Zf/GqYzgmasd+6lzHuQ0Po/fa9g7hoKq21Qdjufavh+VtqliJPgMeRvr6OtUgqLbcClUnIiIioqDCgN4fucfw4k+B6z8bhp991hd9Rd0RgMsg+6dnMGiXXCbKrstwUgTu+vJI3Gw8R9T6vqrWkWV+pFzBd631QRL1zZ/0cfThu67LW5MwG8dLB8M2dw3WyZi+rgTpUw9hYekiZCXoqxARERFRcGFA75fvikB6MIaqx72mASc/+1KrHdz2Db6bPwBjo7QqEDUI12YBx7b5MULuE+990Ey7DJOMi4Soy9HfdXlbRFBfXQhkPLISuY/sBArnMZgnIiIiCmIM6P0x7WJthF13OcYWDsP0n14uHn+JL98Hvsk84kx1EWVfrr5mQHntQ+BEzkzDchzCYoxB7kzjCoWIiIiIghED+oC4HJcPAb6bP9CZSmMUf1NqgsCuvAJkDJ2BjUN3Ii6PyfNEREREwYwBfYAMnfBdfJNZjx2m+0nd6SkyntNwXNJn6j7Fhp9+oz/uQkfX52FKzmBsXJCAxAUzsDCn2HqTLBEREREFFQb0gfIfg/GzV3vi00Rnyo0s1htSL8fYR/QbVR3rOGahEcsy5EWBSttJ/BbXypta1dKuIIP5uLnNWFg6G4laSwKytJtkCxjUExEREQWpMLugHrupqqpCbGwsevXqpVq6XjD0gYiIiIgoWHGEnoiIiIgohDGgJyIiIiIKYQzoiYiIiIhCGAN6IiIiIqIQ1upNsUREREREFNw4Qk9EREREFMIY0BMRERERhTAG9EREREREIYwBPRERERFRyAL+f/tHqtLJgi6AAAAAAElFTkSuQmCC;" parent="1" vertex="1">
                    <mxGeometry x="330" y="1130.0000000000002" width="636" height="275.94" as="geometry"/>
                </mxCell>
                <mxCell id="UrZrE4dEw9ymg7tauEkW-115" style="edgeStyle=none;html=1;exitX=1;exitY=0.5;exitDx=0;exitDy=0;entryX=0;entryY=0.5;entryDx=0;entryDy=0;" parent="1" source="UrZrE4dEw9ymg7tauEkW-114" target="UrZrE4dEw9ymg7tauEkW-39" edge="1">
                    <mxGeometry relative="1" as="geometry"/>
                </mxCell>
                <mxCell id="UrZrE4dEw9ymg7tauEkW-114" value="" style="shape=image;verticalLabelPosition=bottom;labelBackgroundColor=default;verticalAlign=top;aspect=fixed;imageAspect=0;image=data:image/png,iVBORw0KGgoAAAANSUhEUgAAAs4AAAGkCAYAAAAha6ONAAAAAXNSR0IArs4c6QAAAARnQU1BAACxjwv8YQUAAAAJcEhZcwAADsMAAA7DAcdvqGQAAJDYSURBVHhe7d0LfBTV3T/+T0RqW6SQEggBNAarEQi3J0+5houlYAmEgko1Vmr9/6ACDY8VMdoWLVXqJQasP9JECr9SjBUUlUhCfAxauUS51JRLAhgvYBQSSILBgrWIsP9zZs7szszeZpNNsoHP29fInpnZmTOX7H7n7HfORLkE+NDQ0KBeERERERGR38CZiIiIiIg8LlH/EhERERFRAAyciYiIiIgcYOBMREREROQAA2dqpLMoyvwCRXWqSKHZ92/0zTujCkRERNQWNO3mwGNnMS/lPEpU8VcvXYY5g1QhQlSsewZ37VcFTUf8OuOnmByjiheN95CzaDPWqNLw629G9pjG7gQZNJ9BZkJ7HJhzmRrXAupLsSCnAjDX/WAhRr5wtAnbU4+inJewub/z95/Y8jdMeeuUKvXE8kVpSFIl5/R9uGnsZXg6tb0aR0RERJGsaS3O3dtj2YeXofLDdviVGhWR+o3F24tm68Mt38FjOc8g56CadtG4DhnaPrgZv27iRUN98VfIRDtsbcmg2WR7+Xs4oV6fqP2XetVyuoz5qTqXeqoxjdEek+9rBzx+Bsv3qVFEREQU0S6+VI0+adhwfUeseaEQFWoUheIMXn7chbtv/xaaGH+Hrq4B22N6Ih1V2F4vR9SLIPo7+LU4nttrtRFtS9dv4cEHovD0c1+KLSEiIqJIFzxwlukY3zuDRPfwFXarSY7Y3z/vrC1IOIfCeabpYsjboyYpu3Os0+cVnlNTGqdLv3gMx7/wsbsiMo3hGYx0D56gWqZ6jFz3niqZyBSBnFKt5VP+dC/n0f41lmF/j0wz8LMOnUwZME//G4qM+ql1Fcm6iGkLtrznntdoOfdZB1U/52x18PX+fefw9LB2uGmAKpsE3Q/GPpP/BlpHILHXIL0/8LHMra5/D5tFebg+xc2yfjEs2GILSy3H4iU8ZpmsnwuWXyS0+oZ4oWXeRvvyTGK+fwnG7ziPHT5zxSuQk5KClAVF+EyNISIiotYTOHBWOcx9X5LpGMbwDQxWk4MTQfFLwO/c722HX712Hr83Bb67c77GgsR2puVb86TrC8/g1spL8LZp+rK0dmpqU5zSgy+V+/vx9Te70zk2XP8v3KUCpbhuHeVMXrQUgdgYdFFl7N+MKbXJ+jIykjBclD3BklhHTgWuukVfvj5Y82JPbNkO3OqZvrzfKTy21hRU1ldgc7ebtdby7W+J+o6T8wBrKkyBqbkOi8YiXbznMXvQ6Jee6/tYrCetZXlsBabYAts9b58HEi7x39occD8Iok5T3ozGhkbVUScvfD4W231ifxWuSrpOjdXJoHnKW9/BcrUNch1XvfWSJ3hWedKeY9H01BUvMmh+4V/4dYZah9gPH7/gJ3jueinGD3PhaI0qExERUcQKGDjvfuk8Sn7Vrgk3/LVDWkZ7U5B1KYb9Ciipst2P+MfzgVuxRbC9/Zh6HW4HP8Aa9MTPTTeGdRmTjHQcxWYR6HTp9h3geL0WPBotqj7FJGHDdBXExVyHsWJxH9vSByxBrk2XMWmWGxaTknqKIK8BnnjKVEexrvQ+PoJ6cx1wHdJDSWGQrbf1PbHc/X5Rh+tF4FtvpEVIZ3HkMDA+PsBpE3Q/iHVkpKgLDjFdBP9O6+jOZ5bLPV6Gx8q/g7FiP3jI1I1TGH79cNNFidoPKi9aBtvb+41FhuV94VVRIW9WvMFzPGNS8HP7RY7NgSNn1SuzJGSUlqI0ezK+q8YQERFR6wkQAZ3DkUpgQnyUKjeObDE2p1nc+kc1QRmccRnW/sqFW415bKkcMWmX4e2ngAUpxjJCTBXxRebKoiOu6qqCsZhoxKlJuhhcZQR8XaNF8CgDWBmUAcOPf6C1RNfUigCtmynSDUjemDcW6fs3u3+6D5w+IIYXjqoJTaSC/qC0fXIUd5nrkFMhxkWiGAzvLwLu2Gs8AbK2nfVa+s1VtuOiXfyoixB53JqXqMNxUbe3XvLsRzFYe3YhIiKitihA4NwOvRJ9tA6HYs9XGHkPkF3qSbNY66P7DRk869MvRTbOi4DtazVFJ4Nnz/tFkO2VJx0a2SKImHgMF/GVOajyMAVgMSKI1kbJfNpk/Lr/v7D5oB4c2QO0wIxeLfSf7iECK3sqh+xmTU8fEEOTemzQaUGiOZ0kEHmBoHWtptbvHsxd97VHrwRgU9V5VW49Ws8WqmVbO4Ya0wWPie+Lo+Yi6hCrd/dn3Y9iMLXm2/XtxS7piIiIIl3AVI3BKVHAH8953aznVP2nMuiOQq/uelkG0vYWZys9WA/kinj1opFkusVd+zvi17eqdIE+12hpGX81tQBXrNuMNSodQg/GRLD8lp5Pa+TXyv6gZYt1oxjBuKFeBOLiH08gLgLpprY415fir/uBdFsOsF9aWsVR3OUvFUUZNFKcMmvOoZGnhDO1RbhP3hSXkhPaDXlaS7TMAd/ueZ/YD4+9dQrp4/TjraXA7Nd/NRAT9bxuS5xtC77lLwEhHgu5ju1vve65uTOQuq+xaUcUevqM6nlzIBERUSQJGDhj0DdQ+VIU/nizkSZhTZXwpGGcg4yHjfmMXi9i0i5F9kRTGsb/i8Lap7RJinePGtqNgBmXqunePWqMvEcsY5k5b9oBU4qEfuOYuRX1OmSoFmD3z+rHk7DBnYcrWxBPYc1+lU+r5ddWiGDrO1qA5Yg9DUPdjOjOs41J0bpUW/OCMb0MV92S5NVbRFDyxjtjHTlVGJsx27MOdy8PeqDoTiVwB8oxmJxxM3593LOv9OXYer0Y0A534zx2tkLfw07SLGRL9PJ+ppQTdSOgez/0STNN1x98Im+y9BD7YZwMfNX+yWnAz+VNjmqqHmyrZWsBtbEsUy8oYh1Gf+Hu/SgGXzcH1v/jPDYNuwTDGnsRRkRERC2maU8OpIih9SZRHm8K+JtPffEXGP14FJ7f+m1E2IMi25a6L3H3Tecx/uUOmMzAmYiIKOIFbnEm8iEm9RvIGnYet+WdUWModGdR9OQ54IFvMGgmIiJqIxg4UyO0x+Ssy5B1+GsU+XxwBwW17ywyE9rj6VTeFEhERNRWMFWDiIiIiMgBtjgTERERETngN3CuqKjAF198oUpERERERBc3v6kaMnBOSEhAhw4d1BgiIrrQnD3r63HvF5/27Xm/AREFx1QNIiIiIiIHGDgTERERETnAwJka6SyKMr9gd3REbYR8cNHdxUzLICJqirYXOO/5CubHfofC84hwfSg8pia0lPpXsORnA7Bkk/Fs5tBVrB6A+3+2BBWq3Dpk0HwGmQmXhv3hHbuWPojO3dUwqwjH1XhvZcg25pPD0jI1PlxqsG5WsDo0F33bssO9SWF2fP1Sz/7vvgq71PiIVLZKq2fo+7RtHAsnYlIvRd/Hz2B5Kzwu34nK11Zi5cqVKH5PjZDeK8bKte9YH/tPRNSKLp4WZxFwj7wHyC69DJUf6kNadzXtQqEF5r/E3xsflztSX/wVMtEOW+dcpsaEz5D5j+DksUdQmRetxvgig9oCLM6cqs2rDfOT1TRqKbHT5uv7fmNvNaatunCC48Auw105l+DpjAj+pejyjjh1uFIViIgiz0UTONd/6gImXoLhrRksx9yIe5/dh3vHx6gRoUu6Yx+eePZeJKlyyzuDlx934e7bv4XGb0VTVaOqEFg4pjmD5ThMXyGCwhWTEavGUBuWfKcW5C+42K+vBnwbz6e7kPlSMzwuX7YOryxGk8LeTlfgis/34J1mvvgnImqsNhE4784xpVjc7KP3PC19wzNP3h41PmLsRf7PZIqFPninasjpsqXYPJ+15bh20y/d7/dK1VApIPfPX4RabMPr8435mpYW4tO+c3h6WDvcNECV7dRP4u7BnupQU4QZpukz1teoCZEjcLqInsKRXaZSOdR8jWmttKxHDN77wpyOshTrbJPt7zfXQUujWFpmTacwp7PI4yS3zXy8/Gyr/+kOBDsfmkDbfl8pOsa2yde28816nIz9W4DForR4kmc+7+UGPhbB2falGCx1se8ny/rluuU6/dRBe6+9Tmp9PvbPoJHiY3/NOYT9Y/K6VEzrdwrbVr7QhMC3CxLjgU8/8JecUYnilXpKhz6YA/UTeGetTPXQ/zXmsaR+SFqAH2C6tC8HKSkpuG/jZ2oEEZEi+3H2pby83HX69GlVaj3/XPYf17UZX7nqVNm1+4zr2qvPuP6pinr5P64NNapc85UrQ5Rzd8vC164NGeL9ouw1LDurzd6y6lxv/r6/K7vEvTXKHtezM/q7MmfMdb2pJpX/VZR//7LruF70KM8W82W7ylXRou5lV7ZpGc1hd+4pV5/c/6iSTXWh6/bYJa4Xq1XZTpu+0PXku6rsetf1pCjf/or3G469ssTVaWah65gqa979i6uTmN97CLDOJvBZB1e168WZ+nqN7dDmi/2La6dedGTnErEMr2Ub9P1i3i6v+cW+8OxH7zroZfGeJWom+7439qV7mfZjobbTeL/gt87asnxsf7DzoYm0bTTVz+B7vL595n3mEXxawGMRlPe+tND2n3k/2ecPVgd9fsvfUcB9/x/XM6NOuwpr9dJXX30V3mFfgSs3N9eVv6XG93Q/Q/mrua7cV8vF63JXwbObxUe5GC+XZbyW423LrdmSL9ZV4CrXyjWuzc+KZYh5Cvb5mi4GrW75rs3Vqly92ZWv5rfYu8w1cuRI14KiE2oEEZEuwlucv8aOPwLZv23vNy1gd6kLE5661JOv3L09/r9fAX8s/VoU2iFtmZ7P/PZTojjxEryt8psrMy7VZo8kSZl/wg/UhiYl3wF8eBi1ejFCnMWRw8D4+ECnTQM27PDdHHd8x/sozJxq+rk8GTPyolFYXOasFVL93H7y2FQsFMWFG1V+87H5mB6nz9JS0vLmurcjdti1SBPbXeW0FbKmCMuyorHi4cBpIAs3erZryJjeQGEdqvSiti/MaQc+65A2FJVG7ndcMqakAXs/Mc/QGyXuVJRkjM4UqzhcrZVQU4YNhWK6KXd8SPpQpBW+j61Ot1Pj/3xoqtgro4GDNdq5Y7SwN5eAxyKYsv/FLNu+NNu15RCQOcZ0Dsdh+myxjqx9lhsu/dchDqNTrX9H+t+aeZl2LhxtnsOitTzPnNoX2L8eK19rTOJGIq7udAA7vVqKP0I1emDQ8C5qBNBl+CAxphofmebt2G8aUq/TX3e55gp0xCmcUC3gleL87tjvhxhhfKHEjMCgnkC1Pa96QAZKS0vx5KTvqhFERLrIDpyPuXBAvfTtHI6Iz7uSe762pGrcKoJtagVxk5G/eygwJ9f9k7P55+iqww0iGChwT5ND4hwx7mJTXYdCRCPeb1DjhPlnezEM3imWGUZaHQ9hQlPWEeR8aLIeXUUgL4PHGmwtFtcJB/VAU55naQk99HkiwPFPxDme1hXxqmxVg6qDYrK9vnLbQrgYi502BgvdFzVyfzSE/x6A+nfwginFYWWglIyYLiJgFY42Ll85UewPezB7ouEUcHlnWyNKDDpfDpxqcNLvxgmc+FzMKwN603ZsO6omExE50CZynP1rh16J0FqcjZ4y3EMEtii3fe3RKwHYVHVelX2QwZLWCiyGjb2xeJIn9zI+IRow94RhDBfbDXghBkXeZP6qrVcREaCmqalhodWxN0rMx0kbQmzdD3A+NFlcHAbKf2XreJ8xyE5twNYyPRAdeGWTrkrCSmsZ99tCHYf4PmKy0dJvCPniSv5ioFr35f7AUMwIGDdHoWeouyhmBG6ZORMz3cMtnpZbMy2HeBtO9Zvmf55grhuKvp9/ZLnRsEu0CMVPn4Q1Dq/HydNAx2hPK7R/XdClk94i7dkGNUwUXyRERA5EduDc/RJMmAiU/OOcXpY3AdpuDhycEqW1OLd4n8yRKOZqdMM27N7d6DtzggrpxiIt+PLQ0gmyCsLb6uhHRW6KdnNPTiT2WaulTTRg1kONvVFO71XE00opAumHwtzirNXxECaEM/3Bdj4YPtt4XyNvxOqBeLEft655HwPHJGvn194tsr4i4AypwVkuB1isvbcZJA/AQtl672dfamkXWVtMFxRlyJ50CGl5P8IQNcYJmUqD4jLs2vE+kCr2hxrvRd7gKwLnXmHug106sf0FrCw9hb5TZ+IWU0pF6ORNgqfw0WFVlK67WkvL2LPd07pc+do2VF/eF0NVakYwsiX71P43greC8+ZAIvIjwluc2yHtt6KKRirGzcDaUhFMq6maQd9A5UtRWJDiSdWQQ14k9axRsUT1cvEDvP4hUJv/A728eq+aIZh6/P1h1VNG1mpRXq1637D32TwQMzLv8CxfDGHvVWNAO9yN89jpKyC19wwweCcGmvIyjZ/u95p7LxCDpzcJT/qBlsJRuBOJWjn0h2skpdyq/bv22SKE9tUXvjr4J7u6m4sVMJatD857GEnGgo29UehOgchF1Ww97zt8VB0PWlNrPL1imHqJEEEe3Gkd9t4e1DxysJ8Pyne/PwbDxb/bH3s+xAf7yNbaBizOisZo2boqg/2DOzGr0NNS6+lVxNpzhnVfi219eKh2Ueeua1jzpcXxknn5tjQl9wVk8p2ozANmDTamFWBv3lzkTwuxSVhuvzinJsyJxrwA793z9nkgvR0GqXLYvFeM9fs7YlRjW5ltZP4yjppb4hORauROG2kWn/fFtFtHiDDbIZl/ndIRBwo8qRpy8NmzBhGRD1HyDkH12qKiogIJCQno0KGDGkOkk4/uHf14FJ7f+u3wf/mGTQVyUmZj7W3PoHRu6/V6TU58hqIFU/A4HsCG7Mng7VjNaN+/0TcDlr/ds2f5GG6pffv26hURkX9tPMeZWkNM6jeQNew8bstrhocohMlnG1djrfj31hQGzRFv3/N4fAcw/PoRDJqb1RkszziPu3Mi+YKXiCiyscU5IPlAkhkBfz6+cjDwyW5V8GVcPp64Q7uFqdXIh6csyd+mSj5cNQXf/XhDgJSGUbhhqaerPN1ZFGV+BdzXAZObIVey8VRLM4bjgVeexORuanQLkQ/lmJClCr7IG/r4eHBFtTSLoPnW3FJk+HuoTsSSaT16Cog/ssvESHlaofyl6BF8A0+nWltW2eKsY4szETnBwJmI6CLGwFnHwJmInGDgTERERETkQETnOMvg/YsvvlAlIiIiIqLWw5sDiYiIiIgcYOBMREREROQAA2ciIiIiIgcYOF+gZNdTdxfb7paXDz+I4L6X2ybZLd8XKKpTRcXn/iciIqI2jYHzBch4st+dtv5aMaA9sg6fbf2Arv4VLGni48ArVstHii8J8RHN4SaD5jPITLjUqy/rmNRL0ffxM1ju69HkRERE1CYxcL7Q1H2JRx4Hsl729XSw9ph8XzvgQg/otMD8l/h74+NyR+qLv0Im2mHrnMvUGLPLcFfOJXg6w7s1moiIiNomBs4XmD0vncOmdO8WULeu38KDD0Th6ee+RDPHlf7F3Ih7n92He8dbHkUYkqQ79uGJZ+9F6z1Q+wxeftyFu2//FvxuxYBv4/l0FzJfYnoMERHRhSCiH4ASSQ9hqVj3DO7arwrC8OtvRvYYPWQ6seVvmFIejw0ZKeiijalHUc5L2NxfzXOwECPfjMaGcQ2Y8sJRbQ6gJ5YvSjMFfvp7HjOi2Zgk0/LUOmqT8XbSBxhpLKPfWLw9/Tr9teYMlo/+Gj1fDvIY7LovcfdN5zE+2HxhZ32EebcZf7cFz3L6n9Fz6S9wdL4xn/Vx39bHh9+BGebgWbY0z1+EWlU0815XE8l88eeisDUrQOAsyfkygOe3+voFgIiIiNoStjg7IIPWu46LQHbRbLytBiNodqy+AlNk8Ky9/2b8OuYo7lr3njFRD5pjRSCslr88VsyfU4oTag7N/s0iaIYIuOU8Y5EuyjkH1TRp3zk8jSj0ChYMd70U44e5cLRGlVvMQBHoypbiv+OG76lRXrbh9fkyeJbz7cOMcaKc+4o7GO42/k/a+Ccy71BjTFRL9hNLF6GbFnDry5BDWINmYc/b54GESwIHzdKAdrgbLhxhugYREVGbx8DZqfoqbG9SbkNPLHe3IMdg8riewPF6PTCufw+b68V0U+tx0vVJGO61TnMrdQyuElHbx7WeGeqPuIBhInBW5WAOHInMXh+SMj0tzEnJIkD+8LDPVuTWcxZHDgPj453++bTGRQoRERGFGwNnB7qM+Sk2XA88lvMMRi6SQ2F4enOob4AWT9U1YDuO4i5t2WrIqRDjbGKiEadeasF3RiNavomIiIioURg4OySDZ3caRT8R5NrTKEJ0ovZfnkC4azSGa63J+vI9w08xOYS4OKZXFLDDhSOqHEzfXrbu6sih9uiVAGyqOq/KwUShp+eKh4iIiNooBs6NENeto3ql69LtO57WY6FinekmP5/ew5q3TmF4/+v01I2Y6zDWkvPcSFo+7XnsDNbVXN3X2LTDTzBXW4T7UlKQkpLTyn0kN0HM1eiGbdi9u0m5NQENGin+dNacwx5V9stp3jkRERFFPAbODsgeNdwpFGKY8tZ3TPnKQp/h+s1+avpfu92M5f3UNDdzKsZm4BZzmoVMu7gZvz6+2b0ObQi5VfsyDE0Hnn47cPdn9f84j03DLsGwlg7mKpbg/p/JB5f8AK9/KGL0/B/o5dV71QzB1OPvD8v3iyFrtSivRr62PHufzQMxI/MOz/LF0JSHrfjk8CJFu4kwvR171CAiIroAsDu6liC7o9N6wzB3P9dMtK7mzqFvzuW4a4AaZ9ZqXdFdeIwnNPrtao5d0REREV1Q2OJ8oTEecJLxbx9pBGdR9OQ54IFvMGgOg5jUbyBr2Hncluerhf8Mlmecx905DJqJiIguFGxxbgkt2eKsyNbQR/ANPJ1qugFQtoC+3Q4HfD4iOhDrg0t8uXIw8MluVfBlXD6euGOgKrQO68NTfLhqCr778QZ8porerA9j0YmLkcyvgPusLfg+9z8RERG1aQyciYiIiIgcYKoGEREREZEDDJyJiIiIiBxg4ExERERE5AADZyIiIiIiBxg4ExERERE5wMCZiIiIiMgBBs4togzZ3R9EZzXMWF+jxvtQU4QZTudtDLX80Jdbg3WzmqE+FzMeCyIiojaFgXOLSMaCY4/g5LG5WJGmRvkkAuzBO4G8uWJeOf8jyJ8Wp6a1jF1LRcC+tEyVqDXxWBAREUUWBs6RpKYGexGNKcOaMViOm4z8VgjIyQceCyIiojaFgbNDWutfoBSKslWW6dkt2VCorXsVdqmih0wRWYp1WlUDp4sY2zchSxSyCtzzeS+3WksTMKY3ZjsD70trPa3r11MUssv0f415PHXQ32vftuPrl9qW04x4LJQIOBZEREThJh+57Ut5ebnr9OnTqtQ6IqEO0rFXlrg6zSx0HVNlL+/+xdUpdonrxWpVri503R670PXku6rsVu16ceZC1+2vGDPqtOWL+b2Hv7h2qnkC0tbnY16f433XwbBziVjvEq+KC/r7ZL2M7dLr7bCOirZ8v/vyXdeTYvnmulnXEbwO3scq8PZ6+fRvrhvFn4X807AON7r+9qmaJxAei/AdCyIiogjDFmenCt/HVmvjmduuLYeQlpeO6cYv7nGTMS8TWLzFWRNg7LT5ek7z7qFIQzRW7Nbzm08euxND1DwBxcVhIBpQJeun3XDWfC16aXlzsSBZfx077FpRX7VeJ0TdlmWJ7Xt4MmLVKIuyfViM3phnSl2InTYGC3EIW027MlAdtLL5WNWUYUOhdZkB9boNL7tc8oLSNryM23qpeQLhsQjfsSAiIoowDJwdkIFtZR4wa7Dvn6yrDoq4ek6u++dqOWg/s7eYHohPEwFLNXB8x/simmnQg5vqOhSmdUW8PlPrk/URFwbxfuKm4580iLrb6yu3Ddj7icOIULtoacCGHfr8cn8UZg5wdgEiHXkeN0VFIcpruAnPH1HzBMRj4dbUY0FERBRhGDg75G4VFkNJ5iFMmFWE49qUOMT30VvejOnuYb5qimt2eh1kEL+1OBrzHr4We7eU6cFPnzjfLYqtoUfXgK2isVdGiyuQOlSpsq4aVYXAwCudt1IOGdMbhcVi+7X9AaxID+E4NLXFmcfCoknHgoiIKMIwcG6E+AQRVJhowcGcNerGr+ZUgZyUFKSk3IeiWjVKkXXau+V/saHPAAyJS8aUg/uwVYxPS+ihz+CQtm1Z+5onvUDWK60Bsx4yLjpskgdoqQDLTDeU7VpagMVpQzEjlHgr+UdYgfextawMG3AtRrdwZgCPhUkrHwsiIqJwYuDsgL3ngcQ50ShZYcoNTb4TJzdGm1I59MHdw4C7x41czCqEJ60jjH30yhbCwqxDGDhGRjVxGJ0qgqI5DZ7WQYd1iJ2WjhVphzBBm1cO4czRjcP0FXNFILUTie7lm3teSMaC3UMBU9rLhINDUWne147I7QdmTdqJgbNDfW/T8ViYte6xICIiCqcol/wd2oeKigokJCSgQ4cOakzLi4Q6EBERERFJbHEmIiIiInKALc4UFjKdJWBPIplTW/BmyYsbjwUREVHzYOBMREREROQAUzWIiIiIiBxg4ExERERE5AADZyIiIiIiBxg4ExERERE5wMCZiIiIiMgBBs5ERERERA4wcA7BwacP4MUrDuGgKvuiz2MMgecNq5oizDA9Otn9uG8fjq9f6p6vc/elWGc8ZTlc1COlA9XBtzJkN+p9RERERM2PgXMY1b5aifLsb6L/p33xE23ojT5qWrOLm4z8Y4/g5LGpWKhG+SSC2sQ5wIrdcl45zMf0ODWtRTA4JiIioraJgXMI+twdOBg+8fE5YEGHlguWG+H4Jw1A2rUY3ZzBcvKdWlC+gA+nIyIiogsIA2cHZEty86df1GDdLE+qha9UB/koZc/0VdilxrcEbd1LfTQTy7SMWUU4Ll8HTBfRW5o7dy/AYlFaPMkzn/dyjXnl0JhUkiD7UqWSuAfL+uW65Tr91EF7r71Oan227fhs431ISUlBzj41goiIiNo0Bs4OdPtxop568eo31Riz43hTBdXl2aKYfcIdZG949XN9Fgd2Lc3FrD5TVfqEPphbbGXgOuHgUFSqaZV5DZjgOHj2BJKJcxqAwp1I9Bk0+hefEK1eWWkt2H3iECsLAdNFkrHANG3hRs92npxvbZpePGkL4lUqSUlmA2Y9pAJzR+S2BtiXMvCd1GBKVZmLFQcLbPtBrHOwnzok/wgr0hqwYYcpchZB9obCaKxIZxM7ERHRhYyBc5PFYpzKae6/QBQXdFH5zX0x5ced9FmcytrnJxAuw9YsEZg9PFkPUIXYaWNEAHoIWx3FvXGYvkIPAivzRACc5gnA7UGrP7FXivcdrNGCR+3mQocBd2Ms3OjJux4yprcI9OtQpReDK/tfzCrsjRI/27VryyEgc4wpr1vsm9liHbZ9778OcRidGo3C4jJ3MH98x/sotCxT991JT6K0tBQZA9QIIiIiatMYOEeIIfNly+YhTDBago30B6mmBnu1VlA1TRv0lIcW06Mr0rTgsQZbi0XsfVAPNKsONyAtoYc+TwTQc7i7Il6VrWpQdVBMttdXbpvYv1UOU0K0i5bC97FVm1/ujwYsHMPWZiIiogsdA+cIIoNnd/oAdiLRaNWNi8NARJvSCzxDi92Ap9VBkGkJfcYgO7UBW8v0QHTglc15p2FotJZxvy3UcYjvIyYfrlZlpboOhWL/xjvejGSMzlTpGnJ/YChmMG4mIiK64DFwjkh6gOehB2qh5fo2Um0R7ktJQUpKDirUKF0PxKeJYHnN+xg4Jhmxw67F3i0ysBcBZ0gNznI5wGLtvc0geYCWwjLBTyqJlnaRtcV0c18ZsicdQlrejzBEjXFiSPpQoLgMu3a8D6SK/aHGm/HmQCIiogsLA+egPseOOapHjR//R5T/g3Lt5r9KmO8PaxrvXiC0GwFNebpaKkcf00192uC5OdDzUBNrrxUz1oerkjKYb8DirGiMltWKS8aUgzsxq9DTUuusDnGY/vBQpGUVqHnFENZ8aXkT4lQsNC9fDO5eNZLvRGUeTGkvBdibNxf500JsNZfbj52YMCca80J9LxEREbVJUS5BvbaoqKhAQkICOnTooMa0vEioAxERERGRxBZnIiIiIiIH2OJMbYR8IEngnkRk39B8WiERERE1FwbOREREREQOMFWDiIiIiMgBBs5ByFbvL774QpWIiIiI6GLFwJmIiIiIyAEGzkREREREDjBwJiIiIiJygIEzEREREZEDDJzbkLrXfoGM1+q017vzr3C/pghVtgzXLroCeeF8onizqUPhHwOfU/L8u/aPBWJOK3kuXrtoGXarcmuIhDo0nzLktZnziOz8/d00WXUBMsR5cfF+D+h/F/IzVg78PqSWwsCZyActEMtnpEI6ng8XES0g/QUKq1W5jbrwz9lkzFn0Kd5f9E8s6axGEbUABs5tyJH619SrOhw5AfTr1lWVKSIlzxMf6p9izgX+NMPBM+SX1zwMVuXWEAl1IGpRPaYiR3y+5Ezk9wBRS+KTA4OIiKcXyp/8C7NUwS4TLzgJGOQytl2Bt0d9ipHGsjovw9u/mgrPx6786WsqnlIlx8s2s9f16gK8P8MUOcrWnD/PQ4kqmtchf9IcubO/bZ16nZAmAlDo27Ckyzzc+xEwYWgBbqicintPAvfI6cly3uXoNbQ/7t0p6iC274XEYtyyU1xwmOthq8OEof90f/nIVppbxLK92epZfxfe7/uOZ1sDLF+vmyqY2NdlrkdgMq3iv3Bk1D/Ra9t/adsveb0/5GNhX4a+HmP5GtM5ox8v42LO+1wx9tPbMcs989nr4PPcnoglv/gz0nqoYgBhqUMATs4H7/1kq7+2nz/F/1k0Ajvcf1/edfV/Phh/AwVAofF+5/vILcDfnmTdl7ZzIcjnh/5e33+7+x2f14Gocz5xGfbvlNsg6p4G3CLr4q6H6bPCOLza+QVLvfzuZx9/Dwavv62AAv/dBD1fgtK30/icttfN2TkbXNDzwdd+hedvS5b/X8w/8Tv81r2cYHX12s+2zwffn6X6/nw90fpep+ektQ4+9pH9M8pyLOmiJANnX8rLy12nT59WpdbBOpjVujY81cuV+658/a4r93ezXBuOahOceff/uq75XS/XNU+tF0vSRohl9HL9slgveZfFGotniff8X9c/VTk4sYxntQrqjq53/VIsU6+zpK/DU7bznq7Vwaiz2gZZR71u+rz/fFZsl7Ze/f3a/Grd2njtfWo7/NTJvN2SZ5nejHV79o2/7fK/vdry3cciVPq5YGy/RttG8zkh1h3oWHjtB32Znv2g1mFahuVYmJn3r4l7PxnLCFYHrRzieW1obB0c8n8+eO8nr2Oh1mk+XvblBT4f1HltWmbI50+Q7db3k3n/2f4utG0yr9M23de57ueYNI5xzsvlqf0h62I5Z4LXwe85bNaU89Cop+nYWtfp4HxxTF+W/bPL4P+cDc7Z+WA9tj7PaeM4yRG2/Rr0WNj3i99z2N9+CH4+2P+OvLa7SecCXaiYqtFmfIIjJyeiV5x4Wf0p9qM/eoXS2qQRV9PuK+VkDLsaKKn/RCuh7B08Jab/H9MVe9eJd+EeZGGH4zS5ZMwxt+T1GIkbOgP7a603bTx1wN8C9Tp5ptdhR+VrmJA40nR1b6qjuPK/WayuV8xEvazcM8rYxolYMk7MEHcFJmhlscS9xSi5usDUapGMm4dOREnl22JtoTC3TFyJXj6206/qAvy/j0TdftK0VgvZOuPejuRbsaTzazhSo8pBjoX3frCpfhuvnxTb6LBl1i/ZOmMsw34+1HyKEnUMNdp08zaESaA6NJW2n9R5ZlDH4vW91nWYW8u0c/bEp/o55/B8uCfN0yo5uG8mcPJTHNGLQe1+c16A463+zobeampp8/V3EeDzw+tvV6zzQJZtmU1nXp72d97jCvRTZcdOFmNHc+UvB/u7CeF8aT1OzwcHzK2z2rGy/X0HOBb6+fMHT0t8j6n4P7ZzLLBg52QZdtj+7nx/50XSsaFIwMC5DZA/JV2r/TT3Gu79s3it/ZyYhVvCeCdxXW25+JC7Ar1UWRdiQCjodTUG28+V4oNszqIC3PPRVPc89voPHrcMEz56R+8dQX0JmYP5ptLyxE3rl4P550jHLPuqK9J+FUKuoQwYG3XhE5z5WAU6Fp58eT+0OjYzeUFzch5eMr6kytaKOqqLw7bC57Hsil5dzEGlZN2urhP/jPeNgKIZzwedfk/EhJgrVdlOXpR73zPRtVv/kIJzy9+uCkpuGBi+v91wkPv97aHQP0e1v4sw98QS7O/G8fnSmsJzPmi6XOEOSvXPf8/FY+BjoZ+zJTv/S03TB98pKP4FPCe1Bij1nepehzlVUZB55L9YBpjqwd5tiIFzG6Dd+CT+eCdorZzidVqmfiUfxhtDfH8o+v4A9UfmlN3ykaqjNvi629m4E1rfJvmBZPkg0loE9St+2SqKMLdYaS19MsfVXUc1tGTOmtYCXo4jYW31sh4rZ8ciMjxVqL60CrMsraptgs9jGSxQtWmW88EsWGDm+wLZ98V0AKa/Xe0XrKvvishjqV20qL+LF67Owi3N0VWcP+E4X5pdmM4HB/wfC/2clb+qGdPdQyi/ggU6J7UW8IlY8gvb8sVg+WVG3YSpTRPfvU8Vtv0eV6hpGDi3JWH+0LJIHqH9RPX/TC3Au/PF1bf5p/QgtFZMUx3rXvutrcXZxufPrF2RNkp8OG37BX6/s39YW5ulrgNTMeGjqUFbDbQA291SEWYqJeHeF8P3hV332nIt1WaYOlbBjoX2U797+3zczKTOB+MnS/uNQuFgpIv4/cKKIH7PB+NYvuk5ofR9HcIvJc1wPtjpx9vfed8VwxInomTnWs/2VReIv7/XTGlPTqi/3QNl2k/i9/T1dTDlzVnyQqk5+ty2BXzyZj/zTV0+2NO8NCqloFE/zwf7uwnH+eJQ4z/DHJwPtgsA/UJdf91Y9mMhz9mSnb9tYpAa6JyUqRwh/t1p200XOwbObYXpJ0Dtyt/yE1g4JGOO7SepW06Edvfw4BkFuOfkPIxU75e9GbxwtZooyS8yNU0f9LubvYIl+eVz8jURVI0Ia2uzRv30tt9o5VSDPWWk68Q/YElnPR1Gn8f5F738EjG2T/7sZ7SoetYhUzv+iSXw7CtfdQjG/DPmyMpUvG26GzzosUiep7fwaNP1O9It0+X5oLWumJYvf+lwk8G2Pk2/49xYlvPWGC2f0JY2Iwfn+6HpdXDK//kgj6U1/cj7Tv5gwnM+BCS7RjQdT33wnNOy5c9zPojhz/PQz09vMAHJv12xL+Rnh+8Lbj3vVB4r80V6eOhBkvvvQvZkov1S52FNX1LHyuszTj/3zX9fzo9FsL+bMJwvspcH7b36xa67nrY+m5vyGRb0fNDyjUXQqdIctJ5rhvq4CAkg6LHQztn+tlQKU6qEw/0Q6JyUv+a+0MX6d2fZT+51qEHbD23sVzEKO3ZHF0REdEd30fHRrRSZ+O5+qa2RX5zm7qs0WtdP5aF3tUZth+rey183jUREkYwtzhRxtBSRQD0+0AVAz+u0035NadYb5ah1iYu+bfLXAU9aERFRW8LAmSKE52d3LUUklBtAqA3y/slaDqGnOVCbof3s/V+4F/LGZh5jImqbmKoRBFM1iIiIiEhiizMRERERkQMMnImIiIiIHGCqRhBM1SAif86ePateUWtr3769ekVE1HzY4kxERERE5AADZyIiIiIiBxg4ExE5dgbLR/8be1SJiIguLgycLxplyO7+IDqrYcb6GjXeh5oizHA6L7WCehTlPIMFW+pVOZLpdR25yBgKUaGmtJSKdaGsP9C+lUHzWRx4oD0GqTFmla+txMqVxahU5ZZzAu+sXYkXtvt4okwkqX8HL6yU+0gfit9T45vBrqXys2sVdqlyy6nBullt4DPT9hmfbXtKNRH5x8D5opGMBccewcljc7EiTY3ySQTYg3cCeXPFvHL+R5A/LU5NI8OJLX/DyJxSEbKQfzIIfQmPIQkbFs3G29pwDTava8aIye5gIe7CWLXu2Vje7yjuauRx25N3Fk+nt8fTqbwJrVFiRuCWmTMxc+Yo8MGQrSxuMvK1z/epWKhGEZEzDJzJqqYGexGNKcMYLFPTnNjyOh6r74nlGSnoosYB1yFj+nXqdQvok4a3TetLuj4Jw+ursD3Uxvq6L7FqTRSybr5MjfCWOFEGhalIVGVqPUPmy6DwTgxRZSKicGF3dEFEUnd08ufHCVmqIKTlzbW2BpetQudJh1QBWLjxESzwenK1/CkxFxtSbe81yJ/wBr+PKbvnY3qjYmd9+bMKVVGw1MNWR2ROxcn57onI7r4F8bvHoGpwARZr46KxwqiL9t4GT1mj1tfHvJzmI1uap7x1SpXMOuLXGT/F5Bi9ZJ9v+PU3I3uMmoj3kLOoDFdl3ACsfUkEl3Kc9f2ag4UY+cJRVRBikrBBC0L1ltzN/cdibPlm9X4g/ZbZyOijvw5KLvvNaGwY14Apxjrcy5eMOibj45zNWKON81FHv4w6mrfbB/s29htrCnSD1EF7779sdVKt3LHm5ZjUl2JBThXGmt+jjavAdlWUrMdLzFL8BUZXXYoDc6yBs+yO7sT2F7B+v3Gse2CULXjWpp8chGmd93jm6zkKMyeGGGK/V4yVpdWqIFzeF9NuHSGOl0zVWI9P40fhiqptOHBan9wjZSZSzbvA/n5zHeS0PZ0xbdBJrDfmcS9fqkTxyj3oPHUQThZsgz5HR/SdegtGmA6vTFfZ5j6c3vtCJ5e1DbDXT5LpHAUH4PnL8bcMb7I7uuPrlyJxToMa0xsltuBZm354DCoTtnjms3wGOWT/HEsbisoVkxHr/nydiinFBe7PQa/P4kCfg3LaM11RObsOicY87uVLQT4nFev3hfe+0MllFQC+viu074Kd8HyU+1sG0UVGBs6+lJeXu06fPq1KrYN18Dj2yhJXp5mFrmOq7OXdv7g6xS5xvVitytWFrttjF7qefFeV3apdL85c6Lr9FWNGnbZ8Mb/38BfXTjVPcPqyOy3xWqnOXkev+d91Pamt0zPPziWi7N5uH3XXttO8zMBqnr9RXih6D9P/5qpR8zhRv/k514hl21z1qmymTfvdBle5KrtcB13LfpfnundznaU8wjTOa3kHNojpz7kKjbdY1LkKl+nvX3ZAH+O9ziC05YtluNfpr46eOpS/aJ4/GPvyfPDaRrVdLx5U5WB10Oe3rKNum+tev/vNxzZo83v2o89lur5yFd53yvU/G79SZY+vvvrKM+wrcOXmFrjKzePEULMlX4zPdeW+Wq6Pq97syhflgn3W+QIO2rLzXZurfUz7qsa1+VmxfNMy9XWa61LuKjDWLwd7HbTli2U8u9lVY8wvyvlbatR79LK5DuWvmuf3LnvXwRj0ZXlvv7/xalB11uppGfQ6WWifNd6fXe7POeMzx+/nZABen2Nm6jPNtEx9nea6iM8582ekvQ7a8s2fe/rnoudzL9jnpHfZuw4GfVne2+9vPBExVaMtKXwfW/3cc7JryyGk5aV7WhziJmNeJrB4i7O7PmKnzddzmncPRZrWeqHnN4f0c2fZ/2JWYW+U+Gm9kXVE5hhTq0gcps/uDWTts9zEs3Cjp+VkyBgxvbAOVVopDqNTo1FYXIbjWhk4vuN9FFqWGVj39JflxaL38OJt6K7maZp6bC8/heHXD0eSGiPTE9Kv7yjGv2fJrTW3anbp9h3x1gboh7ceRW8eFdNvCNi6K99vtDB36ReP4fgXPg4pBcGcRnEdxvYDttdaF5B+i6dlNimpp6mOTVdRcRTol2zaxhhMHifWsf8Dyw18/usQg+H9rfv1xP4qbLcs00TmO+8XyxvnSR3R5x8bpKX+PI7uAPr2akJus2y9NVp3YxJxxeXAqQanmdYn8M6eanTs90NL665dx37T3C24Xa65Ah1xCifchzMRqeYWbp916IFR7hbmRFwtdvWpk9bzoUeKp4U5MaEHcPqkOFulSnx0tCP6/tB4v6jD8EFiidX4KMSU9urDfm6vdOdI2wdrq3dQsvXW+IyKS8aUNGDvJ07P6hqse8b2WeuD/DXQaMGNHXat+ExtQJV7FclYYP6M9FkH8TnqbmFOxmjxWV542PRrgeD/c7IMW7PEZ/jDxvvl5/sYLMQhbA3xJkCn3x9EFxMGzm2EDGwr84BZg407oc13jNeg6qD43JyT675LWg7mtI6WcPyTBvGN0RXxqmyl1zFNftma9ehq+1IJTPsCcF9A1GBrcQMWjvEdqPtybM1NiIqK8h5+8jyOqXmapl4LXq/qZv0mtwbGOss8Mhd3UZoKtn0vo22JwVUBqy+2UVz9DLdvY9fokC4Auohjn+7OWdYvWtKTfKRoqJQQ88WGVFPrK+0m0tTj5GkRGEcbIWnj6L1+GMN6d0pHWNSfEGH6KRwoMK/DSOlwSgT38sbBo9vcy7D0FGLrlcMzvIB3HJ4vTVeNqkJg4JUOr9T90Hv9MAZraluTafepNJi+K+RgpHQ4JW8mn4qFWQXuZbB3JSIdA+c2xN0qLIaSzEOYMKtItbzGIV4EA7KVw5juHkLN3WuC2CujTa0ednod7a0mqK5DIaIR7/h7SLa+NGDDDvEhXlOGDRiKGSFsYvO3OOsB48e2ltsTtf8Sk6LFXnDC9zLaFrENsfBqZfdQ0+3bWNeA7fhOkKDbTLaUn8Lm/WI59e9hs7j0SLe3HsscZhU0B8y39usS9BwGHDjSWo/XjkHnkFqovck8621HZb6w0Uo7DX3FMsMmpgs6ajnP5pZgffDKYw5IBs/qvVP7AvvXe7qtC1eLc5P0QHxILdTeZJ71hCyZL2x8Tgfr6ShEcXEYaPnV0DN43/MSiNETkxh2DwXm5LLbOiKBgXMbFZ8gglQT+VNd4Zw1WNfsjQIVyElJQUrKfSiqVaMMyQO0nwMnLPX96ar9nJi1xVTHMmRPkj97/iikG06GpIsP8eIy7NrxPpCa7P45siXpLci+emdQ6QNvbfekG4jA7bG3TllSBAIzlvE6ipoYO1fkymOVgvs2fqbGhJv/80HvwaICUyzdz72HHFXW0i72l5m2UUzTAlxzmktwcj0QAXrFfnHJ1v862z4Wy5Q3/vUb6zNo1utgpIaoGwu99nl7DBsbhU2bvxZztIYuSIzviFP732h0y2r9yVPA5Z3FmaU7sf2N8LY4a6kdp3DgjXf8XCg1ghaMRxqVLtaEz9qqw9Zf5o6vXxPeFmfVuDDrIaNhJQy0YNyH2iLcJ//+FxShuT5hiCINA+c2wvrT3oNInBNtyoETku/EyY3Rtp/nTB3byzu1tXH6z4LutA4/QW7jeP+8Z6mDqKM13aQAe+09gzghcwKxExPEPpjXWn1M90nD8n6n8Jj74R5/cweAXcb8VO8v2HjohgjcrgqlxwtBLmPD9TAtXy6njfUbHZOC7EVjkb5/s2cbFn2AsUZvF2IfWrdxMz5uTKtwzHUYK0Lfu976Dn5ue2/FOtUbh6UOYjCCee04GsdK7wVkeT99klnM9y/B+B3nsaNOjXDTHz6ipQxovVFUY1szpA90GX4Lpol6WVIh1joPUhMnjkKP0wewXr1X9vIxSlwzhJPsjm9UJ8869MHzQBjZ6q2P01M4qkv1edzpGF6pGNtwypS3HZzs0UJ9tmi9UYiLeO1zZmlYGxS80+bE4P71L7gh88VnZOFOJKr3yl4+SjLVxDCR3fGV9PGsQx886X2y1Vsfp6dwLJ6kz+NOx7A9IMX4rPZqse42AmOGiX93PI7n9+mjiC507I4uiEjqjo6IWs+evNO47XA7bM36lrvlVnZHR5FBdkdHLe+zjfdhymPAA688icnd1EiiCxhbnImIHBg0pz3u3nEOjxQzWCbSVeD5x7YDw8ZgBINmukiwxTkItjgTkccZLB99DkO3fhuDRKmpLc7Wh6f4YHkICQXS1BZn68NTfLA8hIT0lmYRNN/2DErnhnJXAlHbxsA5CAbOROQPUzUiB1M1iKglMHAOgoEzEREREUnMcW4DZPD+xRdfqFLrYB10rIOOdSAioosRA2ciokaSqRoc2sZARBQODJyJiIiIiBxg4ExERERE5AADZyIiIiIiBxg4ExFd4LTHXYfwiO5WYXvkdrF6Knpz2LVUPkba8wjqlqM/Ftz9aOtIZXvkdnaZGk9EDJyJiFpfJYqbOViMeDEjcMvMmZg5cxR6qFHUSuImI//YIzh5bCoWqlFEpGPgTEREF5Uh82VQeCeGqDIRkVN8AEoQrIOOddCxDjrWQad3c3YC76xdjwOn9XFAR/SdegtGxOgl7bHaVVeYHp2tz/9p/DTcMrwexSu3oVobb9NzFGZOTFQFB2SqQ8EBeB7g3QOjZqZCLsGow6j4T7HNeMS3ffnvFWNlqakm5uly2p7OmDboJNYb81geBy5bzPeg89RBOFlgbI91P0iVr63EtqOqYKqflVzWNiBlJlKvU6MMAbYxGPlkQetjtXujxBY8a9MPj0FlwhbPfJlTcXJ+sv7aqbJV6DzpkCoI7sd1y1SNXGxInYopxQWYVahPXrjxESwwr8L+fnMd5LRnuqJydh0SjXksjwMvQ3b3LYjfPQZVgwuwWBsXjRW752N6nFbQyHSVCVmq4GNf6OSyCgB7/SSZzjF4J9QmCP6WQXRhYYszEVGjqaC5kwgytTQDMaR0xIGCF/BOvZoloESkmtITeohg0b2cRgTNHc3vtweUpw9g28lB+rSpfdHx6DZTaogIVg9f7Xmv13RBvH+9DJ61eUR9RfmN7eas6VNiu2XwrC9jVE9RfsOTV60FzZ+LYFutY1q/U9i2slis2SlRx0DbaMuR9gyeYxE7bT5OyhSEjb31Eb5kFWjBszbf7qFIE+WQcny1oLdBBKqyVVsN7qBWVzinAFWz9WmVedFYPMmcby2C1S0DPO/1VYfCnUiUwbM2z1QsFOUFlrzpBswaLINnfRklmaL8UBGOq6la0HxQBNtqHZV5DZgQUs63qKMImgeKgNpdTwbNdJFg4ExE1Fj1lfj0dEf0/b4pRL1uKPpefgqfftByt+JV/uMATvUc5d1CayZbiI1gPCYRV1wuQt0Go44igDcH6l7TpR4Y5W5hTsTVPcX0k9argx4pnhbmxARxKXD6JPQ5KvHRUbGffmi8H+gyfJBYYjU+CjGvu/qwn1DbnSNtH6yt3kHJ1lujdTcuGVPSgL2fOL2ZrwbrnjmEtLx0S+uuXVreXHcLbuywa5EmAt0q9yqSscDcwu2zDr1R4g7GkzE6U8TSh62/Wyzc6GlhHjJGXCgU1qFKK5Vha1Y0VjzsCeZjp43BQhzC1hBvAly8hXcN0sWHgTMRUWPVn8QpdEQXS2DWBV06eQeVzecETnwOdOwcSnToTbYIe1ppzaknYVB/Quwn2SJtXoefFBW/ZOv8KPQ4us29jBfMLd4OWpybXzWqCoGBVwaImh3Qe/0whlx3SkdY1NRgr9YibV6HkdLhlAjuZUt3VoF7GRHfUwhRmDBwJiJqrJjOImw+hROWwCw8gaxzTQ/UZQ70tqMyX9hopZ2GvperieEQ00XsJ5nzbG4J1oeAreRejNQWMUztC+xf70knCVeLc5P0QHxILdTeZJ71hCyZL2ykQMzFCrHMsImLw0At59mcZqEPXnnMAcngWb1391BgTi67raOLAgNnIqLG0lIaTuHAPzzpAye2v4EDp3tg0HA9KaFLdEdTyoJs2fXVmhuDziJQ9ZuGEISWFmHPSQ5B/clTwOWdRS10+jaoQljI1A5rznOTacF4pInD6NRoFM5Zg3WNjJ2rDjcAaV0Rr8rH168Jb4uzltphzXluMi0Y96G2CPelpCBlQRE+U6OI2joGzkREjdYFI261pg+s39/R2tODlvNcjW1q+p7O0zCqp5rmJpbzQ/2GPHeKwWshBNHXpWJmSg9Ul6r3aoPzG+8SJ+o3+61X711/cpCPOjZN4sSZGNXJsw57HbWHtGjj9BQOY1vc6RheqRjbcKrftBBarPWHj2ipBVpvFIcwQUszWNroINcXeQNiZR6sqRCznAepQ+brN/slqvfKGxVLMtXEMJHd8ZX08axDHzw3B8pWb32cnsKxeJI+jzsdw/aAFDnfXlPetlu3ERgzTPy743E8v08fRdTWsTu6IFgHHeugYx10rINO746O2gLZHR21vM823ocpjwEPvPIkJndTI4naMLY4ExERUTOowPOPbQeGjcEIBs10gWCLcxCsg4510LEOOtZB1+wtzl4P/LDzfsgI+dbUFmfrw1N8sDyEhPSWZhE03/YMSucmqbFEbR8D5yBYBx3roGMddKyDjqkabQdTNYgoHJiqQUTUSDIY49A2BiKicGDgTERERETkAANnIiIiIiIHGDgTERERETnAwJmIiIiIyAEGzkREREREDjBwJiJqgl1LH0TnpWWqFKFsj0jObrbqqsdah/CI6XDau+Z29H/UNKw5oKYQEYUHA2ciogtd3GTkH3sEJ49NxUI16kI0MP05lP/GGH6DeYcfxZ/3qIlERGHAwJmIiMIkDtNXiAA9Ip6g1xW9OgEHa+tUmYio6Rg4ExGFkZa6YU+HKFvlTpPwTpUoQ3b3pVhXo9IctHlkWU12T5f/+pquM9arD6uwS40PG1u6h30dlvX7SNWw1s/PfAH3U4hq9mDT59dgfP+uagQRUdMxcCYiChMZHE44OBSVxx7BgmQ1UgaDkxqwYrdMlRDD7qHYO8keFDZg1uBcbEidq81TmQfMesgcVMrpWxCvllGSKcqm6eb16u9vwISwBs8iaB+8EwM3qm3QhjsxRE2Vhsw31h2txlgZ0/VBpoxEY8XDppbpIPvp2JqbEBUV5T385Hkc02cR6lD8J5XfvGo1+qT+DqlxahIRURgwcCYiajK9tVgLXm1pCru2HEJaXjqmGwFc3GTMywQWb7E2p6blzUX+NH2m2CtF8FlYhyqtpFu4cb57GUPG9DZNL8PWLGsQGjttjAhMD2FrU1psfbDXuXHkvioATNsjBdtP3dNfhsvl8h5evA3dtTmkrkj9pZHj/BR6vc0bBIkovBg4ExE1VdZOzCoUwe1se25vDaoOihh3Tq4lBWFClppsMvBKUxSZfCfsLbp+1dRgr9Yi7Vl+5+4FWKwmh0cyFshW4qwC9zpmrLflijh0fP0azOoz1dMirwm+n5y1OJuJIHrkeODwP8T+ISIKDwbORERNlTnVTwpGHOL76K3JnjQFNcy3RI6NFxeHgTLtwUhxMA3W4LSpZPCsli22FSLIDTkHuaYIC4qvRaXXtgffT85anH3o1AM91UsioqZi4ExEFA6yy7eNvbHYFjzLtIrCOWu8buYLn2SMtuU8NzstWA+VzJN+H1PMec0m4d9PB/Dn4k344TWDEKPG6CqQk5KClJQc8YqIKDQMnImIwiX5Tu3mOBk8ux+KItMuNkbbUima2GOEjbzxrqTPTiSalm/u9eL4+qVqnJ7CodVPlB2nW3j1qFGAvXlzTS3anh4/Euc0AIVGXTx12LVUrtueUmLqHaTJ+0kEyuaHnzz6KJD6HJ6aYO9VIwljb5P/rsXqjZ9pY4iInIpyyd+6fKioqEBCQgI6dOigxrQ81kHHOuhYBx3roIuEOlAbtS8HKXPX4tbcUmQMUOOIiBxgizMREV1EPkPRs2vFv7diLINmIgoRA2cioouYzweTmAcj5eRCIFuaU6bgcTyADaUZSFKjiYicYuBMRHQRsz6YxMcQrt4/IsGADJSWlqI0ezK+q0YREYWCgTMRERERkQMMnImIiIiIHGDgTERERETkAANnIiIiIiIHGDgTERERETnAwJmIiIiIyAEGzkREbUIN1s16EJ1nFeG4GuNX2SqYH3cdFjWbcI/pkdb3lNSpCUREFw8GzkREza2mCDO6L8W6GlVuc+pQ/Mo7GH/ncyj/jRjuvAN49x78eY+aTER0kWDgTETUJsRh+opHcHLFZMSqMS2nK1J/+Tukxqli3Hj8PAFYdvCAGkFEdHFg4ExE1ET2x1bPWK+alrWWZjFu8E4UogGzBvuYB2XI1lqjVSqGNt3aOm1Zvp9UDcs8kw6psSZa+oZnnuwL6EnaREQthYEzEVETHF+/FBMODkWl6THV+dNU02zcZOTLcbuHIg3RWLHbxzwaGVTnYkPqXG1aZR4w6yFPgGw8FrsyL1qNsZJBs6UOG3urKYoMmic1eNYv6rN3kid4PrbmJkRFRXkPP3kex/RZrGo24a+HgXl9+qoRREQXBwbORERNVfg+tjYxfzktb647mI69UgTIhXWo0krBlGFrlgjKH/afwrFryyGx/HRMd6daTMa8TGDxFj1y7p7+Mlwul/fw4m3ors1hJvOdV+ONTnfgxkFqFBHRRYKBMxFRE8ROm6+3ELvTMBrXm8XAK00t0Ml34uSxOzFEFQOqqcFe9dK3GlQdFHH4nFxLqsaELDVZcN7iLILmP92D+z8fj+d+OR4xaiwR0cWCgTMRURPJ4FlLgRBDSeYhTHDSZVyLiUN8H71F26ije5ifrM3htMV57xoVNP/mDgxU44iILiYMnImIwig+wUceclycCDQbsGFHM/RHF5eMKWmmZWv5zNabA4eM6Y3COWua1B1efcnvcfvha/DEnYGC5grkpKQgJSVHvCIiuvAwcCYiagJ7jxqJc6JR4tVlXDIWbJTBqyddwtOrRjCy1w1j2Q1A4U4kamUjJSQO0x8eChjLngSUaDcjmsjUj43Rll495OC4Z42aTfjDux+IFx/g/lWeh6D0f/T3KLZsRhLG3ib/XYvVGz/TxhARXUiiXPL3OB8qKiqQkJCADh06qDEtj3XQsQ461kHHOugioQ7kw74cpMxdi1tzS5ExQI0jIrpAsMWZiIjC5DMUPbtW/HsrxjJoJqILEANnIiJqOtnSnDIFj+MBbCjNQJIaTUR0IWHgTERETTcgA6WlpSjNnozvqlFERBcaBs5ERERERA4wcCYiIiIicoCBMxERERGRAwyciYiIiIgcYOBMREREROQAA2ciImoR9cVf4O7is6pERNT2MHAmIoooNVg3K/AjuY+vX4rOs4pwXJUN+uO/jUdxt7y9a8yP416NvWq8ISb1UvR9/AyW71MjiIjaGAbORETUZPUlv8ftn92Bt37zHMrF8FzCJtz+p02oV9N1l+GunEvwdMYXKKpTo4iI2hAGzkREF4gh8x/ByWN3Yogqt5wDeOXdDzBv5HjEqDEDx96BH36+Gq/sUSMMA76N59NdyHzpjBpBRNR2MHAmImo0Pa0iu0z/t3N3ffBKsyhb5Z6mDUvL1ASlpggz3NNzMatQjXezLj9xToMar9NSN9zv907V0KaLdVrms9XBugxjcJj2secfWIbxGDpIlYW9m1fjDfHvwVrvpuVBI8VXz5pzsMfURESRjoEzEVETLZ6Ui6rZsrVXDBt7o3DOGqxzx85lyN4yQJ8mh91DkZZVIIJtNVkGzYN3YuBGNf3YXKxIU9M0MmgWwXSfqe5lVOZFq2m62Gnz9Wli3X6JdSYeHqPPZ6+DCOwT5wArdqs6aMvpjRKj9frI87gpKgpRXsNNeP6InEHo1AM9tRcH8OdHb8dfuzyF5xKAN074yMkY0A53w4UjTNcgojaGgTMRUROl5c3FgmRVSP6RCHwbUFWtykjGgvnGRCEuGVNEYLz3Ez2yPr7jfRRmTvW8366mDBsKRRBrXkZjpA1FpbEMex0+aQAyx2B6nFYUVR6AhRDbYAT/vW7Dyy4XXF7Dy7itl5pH2rMa/R9dh153PoenJnTVRv2wi/6vNxeO2hrmiYgiHQNnIqJmYASlkt7bhTFYUzGqDlvTLrxU18ErcyPMYq+MBrK2uFvJj6/fgsWIRrwRSDtpcf58Na5/uwfe+s3vkKq9rw5HP9OmEBFdMBg4ExGFVTWqRKQ78Eo96pS5wxOyZNqDSoPwSsWIFA2YNVgP7vW0DdNNhsFanAd9H/PEP+abA2XgfOTzazC+v78W5yj0NAJzIqI2goEzEVEY6a21vTFaZUVoLcppXRGvF8X0NZYW5yFjegNZ+9RNeCqf2dzErKVNHMJWlY8sA3H7zYFNtWvLIS3dRA/s5TDfk7bhSF8MTQCWFXv6bt675lEs6zQCQ3wtZ985PC0C517+YmoiogjFwJmIqIkK5+S6UzESi69FpalLuCHzp2Jh4U4kGtMPj0FJppooJd8pyocwQZueiw2pc63TZY70xt5YPMm0fMtNgKYeNyYdEmVjWUtNNygGNiR9KGDaBmNw3zzowMB01XezegCK1qfzL80t0B573j4PpLeDqRMOIqI2Icolf2/zoaKiAgkJCejQoYMa0/JYBx3roGMddKyDLhLqYLQQy2A3f1pbzTvwvQ16y3a0p2eNcNn3b/TNAJ7f+m0GzkTU5rDFmYjooqbnZNvZU0zC4wyWZ5zH3TkMmomobWLgTER0UUvGgt3eqRoTDg5F5YrJiFVzhUN98dc48MBluGuAGkFE1MYwcCYiarQ4TF/xSBtO01DiJiPffWOgGsIcNEsxqR3wdGp7VSIiansYOBMRERERORDRNwcSEREREUUKtjgTERERETnAwJmIiIiIyAEGzkREREREDjBwJiIiIiJygIEzEREREZEDDJyJiIiIiBxg4ExERERE5AADZyIiIiIiBxg4ExERERE5wMCZiIiIiMgBBs5ERERERA4wcCYiIiIicoCBMxERERGRAwyciYiIiIgcYOBMREREROQAA2ciIiIiIgcYOBMREREROcDAmYiIiIjIAQbOREREREQOMHAmIiIiInIgyiWo1xYVFRVISEhAhw4d1BgiOnv2rHpFBLRv3169IiKiiwFbnImIiIiIHGDgTERNcmL7C1j5WqUqERERXbgYOJMfZ7B89L+xR5UuLhfzthMREZE/bS/Hec9XSLwZWPvhNzBYjXKqvvAMRt6jCkJ26WVI664KjuxF/s9moEKVMC4fT9wxUBXamnr8/eEfYPfwv+Pe8TFqnEEGjmdx4IHL8HRqOHM4y5DdvQCLVSktby7yp8Wpkk1NEWYM3olCVQw4bzOoL/4Cozdfgq1Z34J570RWjvMJvLN2PQ6c7oi+U2/BCPthbCGyxXn9yUGYOTFRjXHCqLsqWrTu9oSCOc5ERBeXi6fFWQTcMmiWwXLlh/oQWtAsA00RNMtg+dl9+tBmg+bA9uSdxdPp7cMcNEvJWHDsEZw8Nhcr0tQon0SALYJmiGD5pDb/Iy0aNEsxqd9AFs5hdN4ZNSYC1VfiU/RF356n8OkHJ9TItqILRtw6EzNnymEUeogxPVKMctsImomI6OJz0QTO9Z+6gImXYHhIwbLZURz9EEhKvjCDZbe6L7FqTRSybr5MjWgFNTXYi2hMGdaywbJVe0y+rx3Gr/kaRXVqVNjI1taVeGF704LdEx98CsQnYkRCD5yqqhRLJSIioubUJgLn3TlnkPg9NdzsI7NEpm8Y08WQ1wrJqbWbfon7fzbAPSzZVK+mSDLF45f4e71stTbmkWU5TR9nnV+nLXP1XlUCKlZ7li+HfHfOiFD/Cpb8bAkqtHUZ88iyiTaPMe0HeF1cCNjV/+M8NqVfisld1QibXUsfROfunmHG+ho1RSlbZZmeXabGRwi9/kuxzlRtfdwq7FJlt66XYvwwFzb9I9zpGbK1dRQ67l/fhJvqTqCy6hQ6RncBYjqj4+lPUWk6hYwb9rR/V67UB/e69MDda93vFYv5ihFZt/mpuhrbsPYd0wWCPq34Pes8xe+pyQZtu/wtQ7BPt+2Xytf0ixzzvvS+6PkMRQtSkJKSY/2bIyKiC0rEB84yaL618hK8rdIrKl+KUlMULefZ5UnBKL0EB242gudzKJynB9NabvNr5zHSCLBzvpYzBFexRAWaem5zRZYReBqBrx7gLsnvjRlGCsez+eiW/wNbMLwNr8/Xc4rlPPfOAF7PfQW1iEG3eDWLTW31NnTr0VMviHrsTjaWL98/StTFFhhjtZaDjUx9nhnjRNkIvGXQPH8RuqlpTzz7d9zwPX2Sx1ns2OzC+Hjfp8Xx9Usx4eBQVKr0Ca8UChk0T2rAit1q+u6h2DvJefAsl68F3FpucwNmDTYCcB9BbSMNmf8ISjLFsh8qwnFR1rYpqzdKjt2JIfosJu0xbGwUNlWdV+VwSkTqzGno+/k2EYg1IliVaRqne+Dq68TrmERccbmPdI2j2/TcY5n+MLUvOoqyHlSKwH1QDzH9I9N6RfC5pxod+w0VNYsUMiBejwOdRqkUjpkY1ekA1tsC3+rS9Tg5SJ8+rV9HUTbtz/p38ELpKfSdaqSBiOHWEWIPKDJotkxXx8QWPJ8SFznrq67ANDmP2JfY/wbe8b7WJSKiC1yEB85fY8cfgezftrfcoGW2u9SFCU9d6slX7t4e/9+vgD+WysC4HdKW6QH120+J4kRTAJ5xqTZ7UEn3qkAzH0my6A48/4QfaJWqR8V2EeDOuEObrhuIG0RgW7t9qwiMPbrN8NyI1y2uN/DhYW16tx5i3uqj2njZquyr9VnWY4ZnBeg2eBy64RBqbbPK+hnzyeWi6iNtHbW730TtuHzLMrydx9EdQN9eAXKbC9/HVlsjs2HXlkNIy0vHdCOWjpuMeZnA4i3OIufYafPdAXcaoj0BuM+gtvGGzJ+LFdiJBUtXYcEciPUEWf7h8+IoNwc9z3dUz2psW/lCSIGYTNM41fNqFeR2QWJ8R+90jcv7Yppxw54WXIsAsEHNcd3V6IFqfGS0zmqBeEdccY07pGx96uJglOmmw8TviwsAW+t6x37TkCovIIQu11wBsSdwwrIv/eeAVx6uBnoOMuVU+7qoEOS+NALumC7aOk5a1vFdTM4uRWlphulzgIiILjSRHTgfc+GAeunbORwR324l93xtSdW4VQTbLUfPfe4WZw3tzYGxwTKPFpDfq33JavNqAe5e7K4Swa4WcNejtsr8HnMKhhjmL7IsWzcKPU053N3G/wlPPHSjCLD11uumkoFtZR78tATXoOqgiKvn5Kpp+jAhS02OKHGY/vBQIOsQYA70w0j+vB/o53+zmM4dxf9P4cA//M9jpdI0OnvOpy7RYhmnT4YQ4CdiqGydPayvUw/EzQFkBKg/KfaKvKgw7ceCA2JcCGJG4BathXi9exmeVI4TOPG5CLxN+1EjU1/EWizBd6cunlZq7deCme5gnYiILh5tIsfZv3bolQitxVlrRTYPTluUm6wnen5PBKY11pCltkYEZd9L0ILWoLqr+SreQO3w3+OG+DdRUS8DciMQ9tGjx9JFzpYdkkvQcxhw4Ij/nF53q7AYSjIPYcIsPeVBBqPxffRu44zp7mF+sjZH5NB77Ri4cSoGikA/aCpJwiV+f/HwJ3Gi8dO/Gnx21abn5q7f3xGj/M7jg9YSq6cPuAPK0moxwdSC7IDWOqu1rMpAHOj7fYfrbylaANtD3zeWIcReN2TwbLw3pQeqS43WfREMdxL70dp0rAL2jugSSRcRREQUESI7cO5+CSZMBEr+cU4vq3xms8EpUVqLc+ExNaLFxSBp+CjU5q/25BvXv4L8/G1IulFv7Q0q5mp0+/AwXi87hMGDxfKSe2P37o/EhN7opn15q1ZtI99ZBtK5vlqc/UtKvgN48w1VRxmI+7o5UOX0bv7aUctlfEK0eqUbMqY3Cuessdx41zwqkJPS2BuxarBuVgEWZ07FguRkLNjYG4snWW8W9Aic8900lSheaeTvpoaUV6y1DsvUAUswKVM+ROisWpAdEQHloJ7V2LP2DVGPCGttlrT0kmpsC9BaHzItGPdITJBpGXtMaTLiuIiLkNBzvXlzIBHRxSDCW5zbIe23oopGKoZ88EmpCKbVVM2gb2g3DC5I8aRqyKEle9aQKRHajXimNAp5E17gfGIz2WotAu+qcUiSwUvSD9EtfxEq3C3WAzEj8w4RnP9ApWr8AEdv1HOuHZM50u466jcpzhinppnEfP8SjN9xHjt8dMFm71EjcU40SlZMRqyajuQ7cXJjtCmVQx/cLbruHjdyMavQlNaxNNSuN5Iw9jb571qs3viZNsYZGTTLdfdGidEKLuqs3Sw42EfwXPc1Nu2Iwvjvh7s/a9nSvA2n+k0L8aEhuvqTp9AxPtGUOqDTg0Bbbm4Q8j2nTp9Cj4QIa23WyBxw4wZK1bIuB3uvGIHYe8woOICOKaYW6+tSMa0fcKDAmEc/LrcMj6BcbyIiihht78mB1Oz25J3GbYfbeT01L6Lsy0HK3LW4NbcUGQPUuLA6i6LMM9g01vr0xMh6cmAYaL1KAKNCbPU2a9yTAy8MfHIgEdHFpY3nOFNzGDSnPe7ecQ6PFEdqkPgZip5dK/69FWObJWgG6ou/Qiba4cGwPz0xkuhpCT1SGh80ExERXUwYOJMPl+Gure3R9/GzaIVnyQQmW5pTpuBxPIANzdb11xm8/HgUno/kFvemkH0bm9IS2DsEERGRM0zVIArBBZeqQU3CVA0ioosLA2ciIiIiIgciOlVDBu9ffPGFKhERERERtR7mOBMREREROcDAmYiIiIjIAQbOREREREQOMHAmIiIiInKAgXMIDj59AC9ecQgHVdkXfR5jCDxvWNUUYYavx1z7cHz9Uvd8nbv7eNR0U6lHaweqg29lyG7U+4iIiIiaHwPnMKp9tRLl2d9E/0/74ifa0Bt91LRmFzcZ+ccewcljU7FQjfJJBLWJc4AVu+W8cpiP6XFqWotgcExERERtEwPnEPS5O3AwfOLjc8CCDi0XLDfC8U8agLRrMbo5g+XkO7WgfEGyKhMRERFdABg4OyBbkps//aIG62Z5Ui18pTrsWmqevgq71PiWoK17qY9mYpmWMasIx+XrgOkiektz5+4FWCxKiyd55vNerjGvHBqTShJkX6pUEvdgWb9ct1ynnzpo77XXSa3Pth2fbbwPKSkpyNmnRhAREVGbxsDZgW4/TtRTL179phpjdhxvqqC6PFsUs0+4g+wNr36uz+LArqW5mNVnqkqf0Adzi60MXCccHIpKNa0yrwETHAfPnkAycU4DULgTiT6DRv/iE6LVKyutBbtPHGJlIWC6SDIWmKYt3OjZzpPzrU3TiydtQbxKJSnJbMCsh1Rg7ojc1gD7Uga+kxpMqSpzseJggW0/iHUO9lOH5B9hRVoDNuwwRc4iyN5QGI0V6WxiJyIiupAxcG6yWIxTOc39F4jigi4qv7kvpvy4kz6LU1n7/ATCZdiaJQKzhyfrAaoQO22MCEAPYaujuDcO01foQWBlngiA0zwBuD1o9Sf2SvG+gzVa8KjdXOgw4G6MhRs9eddDxvQWgX4dqvRicGX/i1mFvVHiZ7t2bTkEZI4x5XWLfTNbrMO27/3XIQ6jU6NRWFzmDuaP73gfhZZl6r476UmUlpYiY4AaQURERG0aA+cIMWS+bNk8hAlGS7CR/iDV1GCv1gqqpmmDnvLQYnp0RZoWPNZga7GIvQ/qgWbV4QakJfTQ54kAeg53V8SrslUNqg6Kyfb6ym0T+7fKYUqIdtFS+D62avPL/dGAhWPY2kxERHShY+AcQWTw7E4fwE4kGq26cXEYiGhTeoFnaLEb8LQ6CDItoc8YZKc2YGuZHogOvLI57zQMjdYy7reFOg7xfcTkw9WqrFTXoVDs33jHm5GM0ZkqXUPuDwzFDMbNREREFzwGzhFJD/A89EAttFzfRqotwn0pKUhJyUGFGqXrgfg0ESyveR8DxyQjdti12LtFBvYi4AypwVkuB1isvbcZJA/QUlgm+Ekl0dIusraYbu4rQ/akQ0jL+xGGqDFODEkfChSXYdeO94FUsT/UeDPeHEhERHRhYeAc1OfYMUf1qPHj/4jyf1Cu3fxXCfP9YU3j3QuEdiOgKU9XS+XoY7qpTxs8Nwd6Hmpi7bVixvpwVVIG8w1YnBWN0bJaccmYcnAnZhV6Wmqd1SEO0x8eirSsAjWvGMKaLy1vQpyKhebli8Hdq0bynajMgyntpQB78+Yif1qIreZy+7ETE+ZEY16o7yUiIqI2KcolqNcWFRUVSEhIQIcOHdSYlhcJdSAiIiIiktjiTERERETkAFucqY2QDyQJ3JOI7BuaTyskIiKi5sLAmYiIiIjIAaZqEBERERE5wMA5CNnq/cUXX6gSEREREV2sGDgTERERETnAwJmIiIiIyAEGzkREREREDjBwptaz79/om3dGFS4yF/O2ExERtVEMnC9a+mO+w/dI7hDJwDHDhaybL1MjDHUo/tPt6P+oGv60CfVqSijqS36vvf+ekjo1JhQtUIcB7ZF1+CzuLj6rRhAREVGkY+BMreAMlmecx905HTC5qxql7F1zD+7/7m9Q/pvnxPAUnsBqXL/mgJrqhB70/gEjME+NCVXL1KE9Jt/XDnhc7It9ahQRERFFNAbO1OLqi7/G08Pa4aYBaoShZhP+evgaPDG2rxrRFakjxwOH16HYYcN4fUkujox8Dk9N6KnGhKgl69D1W3jwgSg8/dyXjWrRJiIiopbFwLlN0NMqssv0fzt31wevNIuyVe5p2rC0TE1Qaoowwz09F7MK1fgWdRY7Nrtw9+3fQowaY6gvfwdvdBqBIXFqhGy5fXuT+PcDHDmujwkmZsLv8ItBqtAILV2HmO9fgvE7zmNHYzJKiIiIqEUxcG5DFk/KRdXsR3DymBg29kbhnDVY546dy5C9ZYA+TQ67hyItq0AE22qyDJoH78TAjWr6sblYkaamObIdf4iKQpSP4Q871CxO1H2NTTui0NMdmNp8t6ceUNdswj2P3oMjI5/CE52Ag7UtGFm2ZB26Xorxw1w42kqp5kREROQcA+c2JC1vLhYkq0Lyj0Tg24CqalVGMhbMNyYKccmYIgLjvZ/oEdnxHe+jMHOq5/0hG47fulxw+Rh+O0zN4kSNC5sQhV623GYz7aa6VdX4+W+ec7fc9ukW4A3NoKXrcOAIbxIkIiKKdAyc2zgjMJZ2LTWladhSMaoON6hXjRWmFudgDj+K609MR/lv7sBAbUQdjnyuvWg5kVAHIiIiijgMnNusalSJwHjglXrOw/H1SzEhqzdKjFSNkFMxgglTi3NcFMbDhSM+sh5i+o/AD2G+MU+oOYqD4h1Dm5C3HIrWqkPfXu3VKyIiIopUDJzbqOPrt2AxemO0Sr3QWpTTuiJeL4rpaywtzkPG9Aay9mGXVpI3GbbSzYEqp3fTP3ykJsQNwvhOH+D+V4x+k+tQ/MpqvJHwfdXya6hATkoKUlJyxKvG+WzjfeL9Kbhv42dqjNKCddAEy/kmIiKiiBHlkk2GPlRUVCAhIQEdOnRQY1oe62DwEeimDUXlismIVUXt5sDuBSKYVjKnogQFWJYwF/nT9KhMpnJMyNJeavnS8w7nWqa3lPriLzB68yXYmuXds4YWqP7pHtxvpEYk/Abl6abWX6UiNwWznweG/3oDnpz0XTVW2LMa/YtlLxg29uXUFuG+Gx/HdtyKZ0ozkKRG61qoDkLgfUFERESRhIFzEJEUOG9Ibfkgt3mcwfLRZ3HggcvwdGojUxT25SBl7lrcmluKDHt/0I58hqIFU/A4HsCG7Mkwhb3ONbUOdV/i7pvOY/zL3g+CISIiosjDVA1qBZfhrpxLsOnxr1DUqB7eRND77Frx760Y26igWdj3PB7fAQy/fkTjguYm1+Esip48BzzwDQbNREREbQQDZ2odA76NAzlRyHzpjBrhkGzlTVEtxV4pFk7IluYUd0uxJcXCqSbXQdh3FpkJ7Rvf4k5EREQtjqkaQURGqgYRERERtTa2OBMREREROcDAmYiIiIjIAaZqBMFUDSLy5+zZtv+o9Pbtmz/PPhL2U0tsJxFd+NjiTERERETkAANnIiIiIiIHGDgTETkmH97zb+xRJSIiaiH7/o2+eSF2YdsMGDhTG1KPopxnsGBLvSpHvop1z2DkImMoRIUaHzHqS7FA1K119ul7yHHvm0g5rvX4+8MDsGSTr7oYT7xsj0FqjFnlayuxcmUxKlWZmt+J7S9g5dp3cEKVW8Px9UvReVYRjqtyRCpbhc7dV2GXKoZF2f/Fym69sKHM9pqsqgvwN7Fv/vZKnfV1JKkpwozuD4pzRB+yW+s47lmN/o/e7h7+bG+hGNAeWYfP4u7i1r1ngoEzheTElr9hZE5pq35RtRVyX921vyeWL5qNt7UhrXEPS2ksLSj+G4oi9jrjOmRo++Vm/DpGjYpge/LO4un0yH1oTSQEkXSxmYiOceql5XXkqH5lFlbOLEC1KjeHPUt6YeWSwNFmx3jPI2LNryNC3GTkH3sEJ49NxUI1qsXVbMI9xR/jiTufQ/lvxJA6HsuKf4/iGjVd0x6T72sHPH4Gy/epUa2AgTNRM6mpPQX0u6Zlg+VQxaQgWwSv2WPaQOTamuq+xKo1Uci6+TI1wlvixJmYOTMViapMdEGLuxLfUi8tr8mqxxXoqF5aXpPF3s2r8UbCdKQaF1+DUvFEpw9w/+YDaoTS9Vt48IEoPP3cl2itNiF2RxdERHRHJ39GGbwThZlTcXJ+smUc8uYif1rzX+bL1tMpb4lA0EtH/Drjp5is4i77fMOvv9kUlMmf5stwVcYNwNqX8Jh21lvfrzlYiJEvHFUFISYJGzJS0EVL1XgJm/uPxdjyzer9QPots5HRR38dlFz2m9HYMK4BU4x1uJcvGXVMxsc5m7FGG+ejjg7INI27MBZvT79OjVG07QOWm1qgrfM6rINsUc6pwHZVBGTrtlim13gPz/GQ6zCWbT9OBus87uVrr/Vj8fG4m3HVm8ax9HEs7Meyn4/94T6uvuoQiEyr+AGO3vh39HzlB3j9Q31stxl/x73jTcupWIL7s1argjAuH0/cMVAVhPpXsGT+ItSqomRfRn3xFxhddSkOzLEGzrKbNdnSu36/cc73wChb8KxNPzkI0zrv8czXcxRmTlRzvVeMlXs6Y9qgk1hfarSLmZdTieKV24CUmUg1dp18Tym0eWIs6zfriL5Tb8GIILtUdtO2a+mDmJAVjRW752O6+jjRx/VGybE7MUQf1Wju/WTfD5f3xbRbR6i/PaH+HbxQcADurbFPxwm8s3Y9DpxWRclrHt/kdsq0isTDY1CZsAWJcxr0CWlDUbliMmL1kufzVhW9pqMG62blYpZ7BsFrnsbSl12VOhR758g6iP2/EZgw6ZBtHWXI7l6Axdpryfs46cdPFTS2eWT6hlyusnDjI1igvl7CRqYmDMrAl6oIZOK/a//HneokW4OLZ7+mSsC3ntmNn96oWmNl+kfelUid8wmKJ6oNmZKD1JVTxV+HoQ5vzRyMjzaootDttSOYIrbDvmyPibh6zwpcbyxErsdYvnT/q5h5r9oRQeogW5rffUIfbWXdzuakndNzom3HXz8/9priA/v54Pt46++DfZp2rsCyDm15MMUk9r+LkP4mDuDPjz4KpD6HXxg7TaZtFG8COt2Bt345HpaPsbovcfdN5zH+5Q6Y3BqN9zJw9qW8vNx1+vRpVWodrINJdaHr9tiFrifflYV3XU+K17e/Uq1NcqLm+RvlBZL3MP1vrho1jxP1m59zjVi2zVWvymbatN9tcJWrsst10LXsd3muezfXWcojTOO8lndgg5j+nKvQeItFnatwmf7+ZQf0Md7rDEJbvliGe53+6uipQ/mL5vmD8WyjfXCvQ6uDtc7aOl48qEoO6lC3zXWvmMfYDz5p8/jblwZ9n3q232DfL/Z97eRYiGW4t0nwW2d/dQimzvXm7/u7Mmf0dz1rrLQ8W5Tnut50L2qP69m/7lGvhbqXXdnm+e1ltczsEnNdvnIV3nfK9T8bv1Jlj6+++soz7Ctw5eYWuMrN48RQsyVfjM915b5aro+r3uzKF+WCfWoe7X1i+rObXTXae2pcm581zf9VuavAPL/7PdZ1aetxL8M6lL8qlifXYR/EOgw7lyx0dZpZ6DomXh97ZYmrU+xfXDv1SU3mrp9ap14vfbvyt9SostjuV8319zHdsl/s26zP77WNYpD7TtK3S2znEu2DVLB/lla7Xlyi7wOdj+kzze9Xy1T7renU8rV9r69bW7b2+b/E9aJWDe/Pf/vxMh9Lzbt/sR5PrWwsT7B8v4Tp++LoetdzXXu6XvXsKoujL890rej6tGu3KsvtelXM/9zLtar4tJje07Xi/6x3HdVHWKcLu7PF9Gw/K1C09biXYSeWaX6/vc4O6iA5qUfz0c8H49hpfBxv83T/f98+liXZlydo55j778D778J6Dr7jEhd5Ps+pxdvl9P2u5X9Y5Nqozsc9z//UlZRT4qrb/VdX0h/+Kj7F7fTP5Gf2qmILY6pGWxE3Gfkbe2PxpFXIXlqAxZlTQ2pp7p7+srxI8h5evA3d1TxNU4/t5acw/PrhptSE65B+fUcx/j1L3qW5dbNLt++ItzaIa1WpHkVvHhXTbwjYuivfb7RqdukXj+H4Fz4O6TebnljubmG+DmP7AdtrrQtIv8XTupuU1NNUx2CMvN3ZWC6Wq7WwqnJoramB61DxVgW2i2U7bmkP1cEPsEbsp5+b6txlTDLScRSbD6oRQuBjIfaFuXU5RuxrsbiPbfu6qWTr8AzjpEu6Azd8bxuOHlNlDMQMc+tyzGgM/h5QW6PXoXb3m6gdl+95v0/ncXQH0LdXE3KbZauo0cIck4grLgdONZj/KnpglLvVtAtGDOoBfH4ibPnKehqJj8GokzBk/lyswE4sWLoKC+YAK3Y3vaXZi3k/IBFD+3XEqZPG+SC2e6K55TgRV4vT3j29vhKfnhb7yVRnq0Sk+tpGMbhb6iXZEuZuJUvGjLxoFB42WvrjMH2+uZUsGaMz4ZleU4YNhb1R4n5/80jL+5F73y+cLeoTFyfOZKVsHxajN+aZPv9jp43BQhzCVi3Ntgxb5a8HD/tv7du15ZBYR7r71wX5/TJPbOfiLXqebji+L/asycCX97+qtf56q0Nl8Wv41jPpplbZZPz3MxPxZfHbpnzkTPy3u4U5GVfeD3x5+BOt5PbE203o5SYZU4zWZanHSPSYIs65KvPNew7q0Kr0c9Q4dpJ+fD3nEJLvtLQgxw67FmloQJWzL7XgfPxdDEkfirTC97FVW8dw/NbX+SSG3w7TZldky/Pt+GuXp1ButDJ36iG+iXw7cKR1bhJk4NyWiJO/JPMQFsufT0P84D625iZERUV5Dz95Hu4Yo0nqtYDpqm7W4NAaGOss8/RJM90053sZZCf203HxUdSM++lE7b9EgBctwgizGFwlVhlK4GvtVcST0tHcjMBYqlg9APf/zBg8KR1SbfU29SoCnT4pjnR46D1++BheM/cBIoLGh4cCWYcAc1DV3EwXCNoNjqb6bTNl+aD+pCeFwyeZ0mLaNtNQ/J6axZ+DNe5eMbReMkw9DFjSHarrPCkcreT4Jw0isu6KeFXW9UB8GrD3E/FJW1ODvWqsbzWoEhe/hXNy/W5n078v6tAg1vGthCtV2e4TnNoAr5vkesT3BzZ8YkmbCmTQvUfw3/dn4d1uvbRePRpzE6B2Y5/x/m7WtI+2QgtSs/apXlP0C6cpw8x/wDIFw3OsO5tTkcJB+7s4hAl+17Edf/B1PonhDzvULPgA969ah153PoenJujnRX3tx9q/kYaBcxsiP9AnHByKkrwGTAix+6Pmb3H2HVT5DsD8CT0wuziJ/RTr3UoeTr4ueEK9sPHuVaQles84iqMiMO4Wp6+odtMvkf/mHZjx7D48oQ1/xw3f0yaF4BL0HNayrRsnGkSIeHlnvcUlDJy0OGtfruLLbuDGqRgogqqW6JKq/qTYzk5d9Fbm94qxfj/Qd6qnfqP8NTX55LDF2abqsAhE+8TprbNlq5CotbbLHgb0oSRTmy1ixF4ZLaLeOlSpsq4aVSJKGXilk0/aOMT3ka3ac93b6B5Ug0zTvy+6Ilqsw3/L7JXo6NWyK7aiqhyYciW6qbITMnieWSuH3bgaGSgO0ruFmcyDfvcJmY9sWoaoV5sTl4wpaeoXB/mLROYY04WvzD3Wf6V2H+fdItBWU8OiR1exvN4oMZ9L2mDcMxGsxbkvhiaIf8w3BwpHT3yAH14zyO/nYJN+BWwCBs5thfGB/vBkDJmWrv2kmri0Bb7ZbPSAqgrbvWK2GAzv3xHb39ru6au4vhSPvXUK6eOMtIhgjGW83uQu1CpyU5CSkoL7Nn6mxoRbBXLE8lNS7kOR0+YRQ9doS0qDHmDqr53SUjf2b0aOKW3CS4wIsHEKm/c3Ymf2uUZLy/irqW/linWbsSYmCekO00O0XkVMF00ntrzeuBbn2iLcp+3rnKD9YNdu+rOY5w4MVqkXWovy9xLcX8S1m35naXFOSr4DePMNtVz9ZkPzdF17DBsbhU2bvw5bC3Bgldi5/xQ6xieqv5sYdDandsgb6Nw3EXp0ie4InP4UlY2qpOfLdUFyMhZoaWFLsc7+U65xLBYUocl/WWI79hwV37kJevCuXSygI7oY35IikLa0OF93NXqIAPEj1XpsvSmzkWqKsCwLWDhGDxi11lxEI944acXnrqXFOXmAKSXCuDFL3WRoYXw+BD9nQ6bqsGy95+Dskul7aUMxQ26GFkQ1YMMONd12E6A0ZExvFM5Z4318w2jQWHHF8cSP/fTt3BWJqRPx5ew1njSL6gK8Nfs1dJtjvvkvFHqwbqe3Ym9EpY+m6NrDr1kC9epXftOoFuduCRObmDLi+c7KaVQ3a3GYPlv8zW4p09I0jPNZp19UpSUYe1X8rT8UYouzFhh7Uju0Rjzz34UK3Cc0ISYZ2Gc8cPhRT9/Ne1bj9sPXYHx/H3f/1X2NTTui0NMUZLckBs5tgfrg8+Sk6T+ppmUVoHNLB8990rC83yk8lmP8/O7pJ7jLmJ+KaUdxl/HTfE4FrgqlxwtBLmPD9TAtXy7nAus3OiYFPzftwym1yWKbQ+ykSKa43NITa14w7SevB6xchwwxz/a3XnLP437IiOztQhunp0+451ln/KYt3pshok/Te+86bu59JLik6WORXl+BKer9cju1vG9D0Do4U5v/A3cqxpLt43Dvs/e68+yT7shH0oeLsMSYXv0LzBinJkpJ94ryauSrNI7dw/9una7EfP8SjN9xHju8nlsge3lQKQFaMFuNbVp6wAt4J6QA1nifHESwnzITtww39rSe83xq/3p9esFJDJraV4SYNtelYlTPUzhQYCzHaR2Mu+FNKWBaWlgDZg22Bc/dRmCMbCHa8Tieb8wX/OkDWG9sZ8GnuGKqpzW4y/Afou/lpv2wpzNG9TNvZSJSU0ToXKpPX191BaaJcsgKdyLR/XPy+5iy29ODQKxslJABgDH9ma4oyYvWJ2qMiwp9emLxtagUZW9JGHub/HctVof94l3UYfdQwJRqIX+J9PRgoFJujOmyNwR7C6M4vic3Rovjq7ZTDWH9lSH5fzDztUzUTjSnQvxfd3DZ48YV1jSLQRnoqHrEcEb2qGFedi+8ezAHqeacZUnU47/vfw0fDTLmm4W3VBA96N5X0W1DBorV+4sPzxbz6tNC0ePGR3H1FNO2mLbTqaSUW7V/1z7byItSeUElYgJ5LmgXUG76OetJzclF1Wxrf82e9CS9pxbj/J5hXJxpOfDy80Afr/VMY/m7EOfcirlYcVDEJNpy1BDKL+OD7lB9N6sHoGh9Ov/O0gJtqP/HeWwadgmGtUaPGgK7owsiIrqjIyIf9BZiGexaup9rJnvyTuO2w+2wNetb7p8OZTdrTWbqWs7fbW/NSXbTForPNt6HKY8BD7zyJCY7/E3d3R2dDHYddB3XHNzd0clgNyxdxwWxLwcpc9fi1txSZAxQ44j8kr9SzMba255B6dyAdytf3Fq7KzqBLc5ERA4MmtMed+84h0da+XGvrasCzz+2HRg2BiNCSUS96HyGomfXin9vxVgGzeTAZxtXQztjUhg0+3cWRU+eE1ft32i1oFli4ExE5MhluGtre/R9/GyTchnbKtnSnGK0iGVPxnfVeLKRLc0pU/A4HsCG0gxT95xEvuj58PqvOPx1IqB9Z5GZ0B5Pp7bOTYEGpmoEwVQNIvInLKkarSzUVI3GiIT91BLbSUQXPgbOQTBwJiIiIiKJqRpERERERA4wcCYiIiIicoCBMxERERGRAwyciYiIiIgcYOBM1Mzqi7/A3SH3/XsGy0f/+6Ls9oyIiChSMXCmFlSGbNPjON2P8/SlpggznM4bwWTQPPrxKNwZcr+Tl+GmB1y4LfNLhPTkZiIiImo2DJypBSVjwbFHcPLYXKxIU6N8EgH24J1A3lwxr5z/EeRP8/HA+khX9yUeeRzIevnbGKRGhSIm9RvIwjmMzjujxhAREVFrYuBMkaemBnsRjSnD2mCwbLLnpXPYlH5pEx4N2h6T72uH8Wu+RlGdGkVERESthoFzW2CkLSwtUyMENa6lUxh2LfWkT/hMoShbZZmebapyy6nBulnWelrqYaujZb9q6SRLsa7GnFYiy8Zk+V5TWaPWZ1nOGexcE4Wsmy9TZQ99H1qXoY9bhV2q7Nb1Uowf5sKmf7T9J9QRERG1dQyc24K4ycjfPRRpWQUqAPSkMjhNYTi25iZERUV5Dz95HsfUPMEcX78UEw4ORaVKn/BKoZBB5aQGrNitpos6753kPHiWy9cCVbFthWjArMEymPQTUPolg9hczOoz1V1HOSxIVpPtdZRpIwcLbEGvXPcWxKt5SjJF+aEiHJeTkn+EFWkN2LDDFPWKIHtDYTRWpBsrEfadw9OIQi8frc1D5luXqe3XrN4oOXYnhuizmLTHsLFR2FR1XpWJiIiotTBwbitk8LyxNxZPWoXspQVYnDk1pLzf7ukvQz5d3Wt48TZ0V/M4Uvg+ttoamQ27thxCWl46phvVEnWelwks3uIsco6dNl8PZuVFAkQg6g5ufQWUfpT9L2YViiB0vimINZF1ROYYTx0Rh+mzewNZ+yzB+cKN893zDBkjphfWoUorxWF0ajQKi8v0QFo4vuN9FFqWCdQfcQHDROCsynZD5ouAHTuxYOkqLJgDsa1BtvHwed4kSERE1MoYOLclyXeiJPMQFsvWST+BoT/haHGWgW1lHvy0BNeg6qCIL+fkqmn6MCFLTW4hxz9pANK6Il6VrfQ6piX0UGWlR1cRqDegys8FgV3stDFY6L6AqMHW4gYsHBPa8dAC9oeHioBdBPLmiw0iIiKKWAyc2xAjVaIkrwETZqnUAYfC1eLsbhXWUhgOmeoRh/g+Iig19YThHkIM8psi9spoU+uwnV7HwsPVqqxU16EQ0Yh3HLwmY3SmSteQaRoYihm2TYzpFQXscOGIKnvT020GbpyKgeJiI2g6S8IliFEviYiIqHUwcG4rylYhUf6k//BkDJmWrv3Mn2jJy2158QkiSDWRKQ2Fc9bYbpxrDhXISUlBSsp9KKpVowzJA7AQIqD3s2+0tIusLaY6igB2kkwx+ZHzdBBhSPpQoLgMu3a8D6QmI1aNdxvQDnfjPHbuU2ULmYetp9ssSE7GAi0Fx37DoeEsdmx2YXw8/1SJiIhaG7+N2wLthjZz/rD+M39alv2mtuZl71EjcU40SlZM9gSNyXfi5MZoUyqHPrhbU7UeKeS4XMwqNKV1hHUbZF/RU7FQ7htfdRB1tKabFGBvCDdZusUlY4q4eJkg9sE8n++9DEPTgafftvfBrG5eNOdhayk48oZEH8Fz3dfYtCMK478f6gNUiIiIKNyiXPL3eh8qKiqQkJCADh06qDEtj3WgNq3uS9x90zn0zbkcdw1Q40JyFkWZZ7Bp7GV4OuQnDxIREVG4scWZqLl0/RYefCAKT2f8G3vUqFDUF3+FTLTDgwyaiYiIIgIDZ6JmFJPaAVsfcGFVcagPMDmDlx+PwvNZ3+JNgURERBGCgTNRM5PBc+ipFpfhrq3fxiBVIiIiotbHwJmIiIiIyAEGzkEkJSXxxkAiIiIiYuBMREREROQEA2ciIiIiIgcYOBMREREROcDAmYiIiIjIAQbO4VDzCTZccQAvquHNf6rxRERERHTBYOAcDnFXYsqnffGTT7ugixpFRERERBcWBs5ERERERA4wcHbo4NOeVIwXrziEg2q8Y7Z0Du9lfI4dc0zT53yCWjXF4zMULUhBSkoOKtQYIiIiImoZDJwdkEFz+XuXY6yWjtEXY3POojyk4Pk43hxyGh1e1d+vD73RR03Vg+aj+OS6Lu7p/a87jc0+g2ciIiIiag0MnIM6jursdrjyoSvRTY3p9uPO6IL/oDrEmwBPbDuuXtnUfI7aom+i/92xagTQ5yeX45tFX+JQjRqh+S4mZ5eitDQDSWoMEREREbUMBs7B1JzBFziHT4aY0iiuOIETarIzsRgnbxzMPuFexoZXP1fThJqvRRj+H5S7ly+GIafFGCIiIiKKFFEuQb22qKioQEJCAjp06KDGtLxIqIOWZnHFSXTYlYhhcWqUX3JeEVK/2hfj/kuN8kXmO6vUDW0+rfw1rrGkbxARERFRJGGLc1Cx6LHgHD55OIz5xnGXwXIpENcJ3Sb/B+VP+0nlcOPNgURERESthS3ODmk3CGarguab6K9aiGtfrcTmjHP6aJNv5vTElB93crcwm1Mv3NPc1A2CRaooTb4cY/M8udV64DwFj++4Fc8wz5mIiIioRTFwJiIiIiJygKkaREREREQOMHAmIiIiInKAgTMRERERkQMMnImIiIiIHGDgHIS8QfGLL75QJSIiIiK6WDFwJiKigM6ePdvmByKicGDgTERERETkAANnIiIiIiIHGDgTEZHVvn+jb94ZVSAiCuYMlo/+N/ao0oWMgTO1IfUoynkGC7bUq3Lkq1j3DEYuMoZCVKjxEaO+FAtE3Vpnn76HHPe+aVvHtaVVrB6A+3+mhodfQa0a77EX+cZ0Oazeq8b7o8+f7+uElEFzhgtZN1+mRpidwDtrV2Ll2nfEK/Jl19IH0XlpmSpFqJoizOgu6qmG7GasrrY/uq/CLlVuWQfw50dvR39jWHNAjW+D1DGbsb5GjfDv+Pql6DyrCMdVORzqS37v2Y+P/h7FXtW4DDc94MJtmV+Kb+oLGwNnCsmJLX/DyJxSfmk6IPfVXft7Yvmi2XhbG9KQpKa1CC0o/huKIvZT7DpkaPvlZvw6Ro0in5Lu2Icnnt2He2eMUmOsKlbPADL1eZ54Nh9Jb87Akk2NOfBnsDzjPO7O6YDJXdWoCFP5mgjcX6tUJWqUuMnIP/YITh6bioVq1IVo75pHgdTnUP4bOfwG8w4/intK6tTUltMcgWyLqtmEP3wwAm9p+/E5vPXfwP2rVovLb6uY1G8gC+cw+gL/tYqBM1Ezqak9BfS7pmWD5VDFpCBbBK/ZYxi5tmUysJ7hPtEG4gYRYNdu3+qjZTqw+uKv8fSwdrhpgBrhpQtG3DoTM28dIV4RBTdkvgzQ78QQVW5JA9Ofwy8GqQL64sb/vgZvfLCnbbaIqoud/GlxakQLihuPp345Hsa3RMyE6ZiHTdjplZfRHpPva4fxa75GUctfn7SYKJegXlvI/osTEhLQoUMHNablsQ6K/Ilm8E4UZk7FyfnJlnHIm9sif0iy9XTKWyIQ9NIRv874KSarvyj7fMOvv9kUlMmf5stwVcYNwNqX8Jj26WV9v+ZgIUa+cFQVhJgkbMhIEV/UMlXjJWzuPxZjyzer9wPpt8xGRh/9dVBy2W9GY8O4Bkwx1uFevmTUMRkf52zGGm2cjzo6INM07sJYvD39OjVG0bYPWG5qgbbO67AOskU5pwLbVRGQrdtimV7jPTzHQ67DWLb9OBms87iXr73Wj8XH427GVW8ax9LHsbAfy34+9of7uPqqQ3AyjSH/TVUQkjKNIFKmI8xA7Yy/497xnuXWbvolluT3xoxn79W3pWIJ7s9arU3zGIUblv4JPwhanXr8/eEf4OiNf0fPV36A1z/Ux3bzuc5tquQ93asO4/LxxB0DVcFDW872cbj3oRvRTY3zxed8PrbTs6+ksyjKPIOjt1+Ou2yBs+zOTbb0bjMO5eV9Mc0SPMsUjvU4OWgaOu9ZjwOn9bE9UmYiVR3uE9tfwPqTgzCt8x6s368+I8zLea8YK0vFnp+ZikRtot66vE0ci5kTE63rt+hheY8/7dvXY92sXMwq7I0SdyBXo4/DUFSumIxYbVzTyNSECfB8VmvlLGDhxkewQH18o2wVOk86pAq2aShDdvctiN+dDjwk6yvHRWPF7vmYrn3UG9PHoGpwARbLUZbpOmO9OvM2m8llFQCW9Tul9p1WP515O2Qra+KcBr3ga/22faCzbYfx3aeKaU38vpPpBtfLllNTENh0/veDdR+YmbZT28Y6zDs2AFvFsdCPp3l/6cdIH+9vH3jXAWnWc9rZ+eCUTIHRW/M9FyYG/XNk09jL8HRqezXuAiMDZ1/Ky8tdp0+fVqXWwTqYVBe6bo9d6HryXVl41/WkeH37K9XaJCdqnr9RXiB5D9P/5qpR8zhRv/k514hl21z1qmymTfvdBle5KrtcB13LfpfnundznaU8wjTOa3kHNojpz7kKjbdY1LkKl+nvX3ZAH+O9ziC05YtluNfpr46eOpS/aJ4/GM822gf3OrQ6WOusrePFg6rkoA5121z3inmM/eCTNo+/fWnQ96ln+w32/WLf106OhViGe5sEv3X2VwcHyrNdz5p25PGSua7MGdnuOmjl37/sOq7Kcl1v/r6/K7tEravuZVf2jP6eZWjlua43HVdFX16meRmiTpmmZdjr5HLtcT0r5nfXwTa/e5l/3aPKHt7b44tt+ZLXOvR5zPvOVftv1/+MOu0qrFVlk6+++so91GzJd+U+u9lVYxr31Vc1rs3P5rpyc3NdBftM8+UWuMrVPHpZzPNquXpPuatAlPO31OjlfQWW+eVQ/qp5fv/j9EFfnrYO2yDrpKt2vThzoavTEu2D1LVziXg9s9B1TCuFh7bMQMt/9y+uTrFLXC8aH9+Wz3ZJ/3zvZPqMP/bKEtNyjOmeZdjXYy9r74/9i2unKnvoy/Ks2znzdgakba+vdVvJ5Vm+0/zsF/c8n/7NdaOv7zTc6Prbp/osVvtdy//wU9evXvdxgjeBk/1gPX42ajvl8Ta21fcy9XPX+3vfek5L9vUFOx/eedjXfhTDw++oOazqXl/kSvrDX8WniG91G0+7+uT+R5UuPEzVaCviJiN/Y28snrQK2UvF1Wfm1JCuvLunvywvkryHF29DdzVP09Rje/kpDL9+uCk14TqkX99RjH/PkhNtbt3s0u074q0N4npZqkfRm0fF9BsCtu7K9xutml36xWM4/oWPQ/rtrSeWu1uYr8PYfsD2WusC0m/xtO4mJfU01TEYI293NpaL5WotrKocamtqoDpUvFWB7WLZjlvaQ3XwA6wR++nnpjp3GZOMdBzF5oNqhBD4WIh9YW5djhH7WizuY9u+bpKke00tpkC3wePQDYdgrEIrf/gmKoxV1m/F7g/vwA1Ga++xw6j93iLcYCwjZjQGf28bjh5TZYdkC7K7Hkli+e5l1KNi+zYx/Q7T34U1laKibDUw7hem1u0Y/ODGO4A332jUzaQy37kCpm0U5Dq6zfh94Bb0Ghc2IQq9mpDb3LHfNHcLc5drrkBHnMIJ8+GWLcwTjbbhRAztJ+Y4Ga7zIRGpM2dipo/BqJP4IMX0FVOxMKtAfI6uwoSs3igJU0uzlWwBfBATDnq3ZO/acghpeemeVlXx2T4vE1i8xXqHnrllMfbKaKCwDlVaSbdwo6dldsiY3qbpZdiaFY0VD3vWGzttDBaKv4ut4b4JMGtfWG76ky2zspXe/J12fMf72q+snpbwZMzIi0ZhcZmeK9zrNrzs6zvN9TJu66W9wULmOy/DePx8QjMk74dhP5hb6+MTxPE+WOMsJ7qmDBvkryjGr9Fegp8Pwx/0tR/F8OBwfQYzme/87gf44X+nik+yAA6fF59+FyYGzm1J8p0oyTyExfLD3u8fiW/H1tyEqKgo7+EnzyPEGMGPei1guqqb9ZvZGhjrLPP0STPdNOd7GWQn9pP4RB3ejPvpRO2/RPwWLcIMsxhcJVYZSuBr7VXEk9IRPrbeJOYvsub1xtyIG8Ztw+7d+oprd7+J2nE/9ASx3RNEYL0IrxsRasVqvP7hKPQMw9VkbY1c51Ec/VAE1nHWY9UtTgQ6H4qgXRzLWhHtdOshLozMZL1MFwBO6WkrMs1EpaFo9HVErM9PhOlm40oUr1yJlT6G4vfULJpkLJCNEFmHRLDSlJ+rA8jaqf1svnC2PSivQZW48Cyck+vu0UIOnp/QPQZeafrrE5/9jvOEa2rEX0UDZg32LL+z6af+cJG5y/L7aIKxjsbe/FZThAVzor2+06oON4j9WGDahgetaQ9HnsdNvr7Tom7C80fUPMreNbfj9sPX4Ik77wgc7DVCePZDNOJ7qJdC7LT5OOn0gq66zp3K4pOD82H7I772oxgesSX8iaD5nlWr8UbCb/BUc1yAtBEMnNsQ7ar84FCU5DVgQoh/nM3f4uw7qPIdgPkTemB2cRL7SXyi2lvJw8nXBU+oFzbevYqEu/cMmV88AxUyH1jrTUIMSxd55f4mJd+hWndl6y9wwyTvr86KLBV4Z61GUqaT3OZAzMFyT/T8nhFEe9TWHAK+J4PjGHSLF+VqW/KubAlHb4RybSTzmvWguZH1j4vCeLhwpAVv6qk/eQro1MWUK90UTlqcBZlTOqkBKzYOxd5JS7HO2U9JoZH3o+yWy7d39RaH+D56a/JJrVcL0xBiY4hfcXEiOJQ5tLbliyH0PObA9Bv/5DAXK7ATiSF3w1eDdQ+9jym7vS8KtFZXuR9t2+AOKB22OMu8Zj1o/h1SnX0Rhazp+6EZOTgfnLU4H8CfVdBcnt5XjQsg4RLx6XZhYuDcVpStElfb0H5uGTItvdX+OPWAqgrbvWK2GAzv3xHb39ru+Xm5vhSPvXUK6eOMtIhgjGW83uQu1CpyU5CSkoL7Nn6mxoRbBXLE8lNS7kNRqF0XdI22pDToAab+2iktdWP/ZuSY0ia8xIgAG6eweX8jdmafa7S0jL+a+lauWLcZa2KSkO4wPUTrVcR00XRiy+uNa3GuLcJ92r7OsaUuqADV3VorAulcW4uzJFMn8CYqKrZiN8YhyfRprrdAmwJvMZhTPxqjdtOftVSJwdpyYpA0fBRq81eb/i5eQX7+NiTdqN+4JwN7vPln/N29b/YiXwTw1vSOICqWaDcf+g76VR3cvWzoN016pYF0vRTjh7mw6R9n1YhmVv8O9ojrhR4JKnUjprMltUPeTOjrZsCYzh3Fof8IjeuQrgzZ2k3V6ZiePBnZecCswd59DH+28b6mf3640+uswbNMqyics6Z5AnZNMkZnNmDWQy3Z/Zl+QRCqXUtzsSHVlLZiEjvsWqTJlJqmfM3tWY3r3/0A81IDB83G90XOPjWi0XzvBz3V5n1sbY5jnjzAknbhfUNiOM6HOhT/6VEs63QH3goaNJ/Fjs0ujI+/cMNL9qoRRET0qqHuPrbcTWvcbWzuaaOFaD1AuAM9a28P1mn2Xhb0XhoQpBcMrx48vHrVMPW+oPUgUYWxth4n5Afh7OfFlfSvN+DJSd9VYwVHPVrY6ujjPeJdInCejbUiBH7glScx2UcXB9blWln2U7+x2NCtDFNqk0Org73HCkuvF4ptHnd+udd7FXOvF/beOSy9jzg5FrZeOcSyl2Mz/tothDpIMnC+8XFRj1vxTGmGdftsPUUkZeYDWX9GT1urq9GrhbUXCcl3EOnV64Vfeq8aRm8amu8t8ur1wn/PH7rAvW74CXRFcK73DOJvunk91nomZeq9gBy90VqP+uIvMHrzJdia9S1La9HZsxUoXrkN1arsYfRoofeq8Wn8NNwyXF0mi8D4hYJPccXUWzBCLEzrVcPoTUPTEX3VNIOl54yeo/QeOE4O0nrV8NDXZfTc4bxXjX167wSW3gaM3gh6W3sZCHTOBWHvVcMdyJg/q330KOHJcQ3W04WP6dryYNkGay8Kkmcb/fX24LzXimC9OPiYrjH1JuGzVw1bHWy9akjO66j3/LBMlczm2XuD2JeDlLlrgWEPYEP2ZJi+MYIIth88rMfDtB+0bZSt7qbeRMz87Ce/55Nc/+w6JD7TNUCvGpLtnA9A641EXIB4kYG0vYeSui9x903nMf7lyO0LvqkYOAcREYEzETULLaAV/1m6ftOC8UMhdUe3e7jTQDvSycfmnsWBB6xdScnu6JpKC5yrrrB1Y9dy2rcPpWusz1C0YAoeR6iBFLVNqiHktmdQOjeUyySyugi6ohOYqkFEFynfN81p+cch5hdfOC7DXTmXYNPjX13QDzAIat/zeHyH/IVmBIPmi8BnG1djrfj31hQGzU1RX/wVMtEOD17AQbPEFucg2OJMdCHzleagUiDqX8ESey8dFvJGvN8DuRdSi7Oy79/o+3Y7HJhzmVa8eFqcVUuzCJpvzS1Fht8nKF64/KVxuPlJRWibgqfckVPy16pzGLr12/B6JsoFhoFzEAyciehiF47AubWFlqpBROQbUzWIiCggGXS29YGIKBwYOAeRlJTE1mYiIiIiYuBMREREROQEA2ciIiIiIgcYOBMREREROcDAmYiIiIjIAQbOREREREQOMHBuMcfx5hUH8OY/VZGIiIiI2hQGzkREREREDjBwdqD21Uq8+PRx4J+H8OIVB/RBls3M0ywty3pL84tXnMAJUTrxY888nmX4aI3WlncIB1UxWB2M6dq/PqYHVbYKnbs/iBnra9QIQY3LLlNlIiIioosYA2ensk/gxR8D/T/ti5982gVdRNkd6Mpg9sdnceUuOU0Muy7HFyJA1qfHYpzxHlHq8qqaRw53h/i0/0B1kER588ed3XX4pn16IMl34uTG3iicswbrZOxcU4QZkw5h4cZHsCBZn4WIiIjoYsbA2bFvioC1N/qo1x0mA198+rlWOrjtP/hmTncMi9OKQNyVuGYBcGJbCC2+jvivg2by5RhrBONxndDNPj0YETxX5gGzHlqF7Id2AnlzGTQTERERKQycnZp8qdZirOuEYXl9MeXHncTrz/H5e8B/Mo56UiTEUJ6tzxlWfusQPrHT0rECh7AYQ5E9zbgSICIiIiIGzk3WCZ2uA76Z09OTgmEMoaZiRIBdS3Mxq89UlPTZicSlTG4mIiIiMjBwDoM+o76J/2Qcww7TfXXe9NQK3+kbtrSLmk+w4cf/0V+3oOPrl2JCVm+UzE/GkPlTsTCrwHqzIBEREdFFjIFzOPxXb/zk1fb4ZIgnVUMO1hvzOmHYQ/oNe+553L1eiGmzZPCt0j2GfI1r5M19ampLkEFz4pwGLNx4J4ZoY5KxQLtZMJfBMxEREZEQ5RLUa4uKigokJCSgQ4cOakzLi4Q6EBERERFJbHEmIiIiInKAgTMRERERkQMMnImIiIiIHGDgTERERETkgN+bA4mIiIiIyIMtzkREREREDjBwJiIiIiJygIEzEREREZEDDJyJiIiIiBxg4ExERERE5AADZyIiIiIiBxg4ExERERE5wMCZiIiIiMgBBs5ERERERA4wcCYiIiIicoCBMxERERGRAwyciYiIiIgcYOBMREREROQAA2ciIiIiIgcYOBMREREROcDAmYiIiIjIAQbOREREREQOMHAmIiIiIgoK+P8BpmUWDyTVAaMAAAAASUVORK5CYII=;" parent="1" vertex="1">
                    <mxGeometry x="-1420" y="875" width="495.77" height="290" as="geometry"/>
                </mxCell>
                <mxCell id="UrZrE4dEw9ymg7tauEkW-134" style="edgeStyle=none;html=1;exitX=0.5;exitY=0;exitDx=0;exitDy=0;entryX=0.5;entryY=1;entryDx=0;entryDy=0;" parent="1" source="UrZrE4dEw9ymg7tauEkW-116" target="UrZrE4dEw9ymg7tauEkW-129" edge="1">
                    <mxGeometry relative="1" as="geometry"/>
                </mxCell>
                <mxCell id="UrZrE4dEw9ymg7tauEkW-116" value="Upsample: &lt;b&gt;2，128，64，64&lt;/b&gt;" style="rounded=0;whiteSpace=wrap;html=1;" parent="1" vertex="1">
                    <mxGeometry x="-80" y="965" width="240" height="40" as="geometry"/>
                </mxCell>
                <mxCell id="UrZrE4dEw9ymg7tauEkW-117" style="edgeStyle=none;html=1;exitX=0.5;exitY=0;exitDx=0;exitDy=0;entryX=0.5;entryY=1;entryDx=0;entryDy=0;" parent="1" source="UrZrE4dEw9ymg7tauEkW-118" target="UrZrE4dEw9ymg7tauEkW-116" edge="1">
                    <mxGeometry relative="1" as="geometry"/>
                </mxCell>
                <mxCell id="UrZrE4dEw9ymg7tauEkW-118" value="&lt;span style=&quot;color: rgb(0, 0, 0);&quot;&gt;ResnetBlock: &lt;b&gt;2，128，64，64&lt;/b&gt;&lt;/span&gt;" style="rounded=0;whiteSpace=wrap;html=1;" parent="1" vertex="1">
                    <mxGeometry x="-80" y="1045" width="240" height="40" as="geometry"/>
                </mxCell>
                <mxCell id="UrZrE4dEw9ymg7tauEkW-119" style="edgeStyle=none;html=1;entryX=0.5;entryY=1;entryDx=0;entryDy=0;" parent="1" source="UrZrE4dEw9ymg7tauEkW-120" target="UrZrE4dEw9ymg7tauEkW-118" edge="1">
                    <mxGeometry relative="1" as="geometry"/>
                </mxCell>
                <mxCell id="UrZrE4dEw9ymg7tauEkW-120" value="ResnetBlock：2，128，64，64" style="rounded=0;whiteSpace=wrap;html=1;" parent="1" vertex="1">
                    <mxGeometry x="-80" y="1125" width="240" height="40" as="geometry"/>
                </mxCell>
                <mxCell id="UrZrE4dEw9ymg7tauEkW-121" value="" style="shape=curlyBracket;whiteSpace=wrap;html=1;rounded=1;labelPosition=left;verticalLabelPosition=middle;align=right;verticalAlign=middle;" parent="1" vertex="1">
                    <mxGeometry x="-100" y="1045" width="20" height="120" as="geometry"/>
                </mxCell>
                <mxCell id="UrZrE4dEw9ymg7tauEkW-122" value="&lt;b&gt;num_res_blocks&lt;/b&gt;&lt;div&gt;&lt;br&gt;&lt;/div&gt;" style="text;html=1;align=center;verticalAlign=middle;resizable=0;points=[];autosize=1;strokeColor=none;fillColor=none;" parent="1" vertex="1">
                    <mxGeometry x="-210" y="1095" width="120" height="40" as="geometry"/>
                </mxCell>
                <mxCell id="UrZrE4dEw9ymg7tauEkW-123" value="" style="shape=curlyBracket;whiteSpace=wrap;html=1;rounded=1;labelPosition=left;verticalLabelPosition=middle;align=right;verticalAlign=middle;rotation=-180;" parent="1" vertex="1">
                    <mxGeometry x="160" y="965" width="20" height="200" as="geometry"/>
                </mxCell>
                <mxCell id="UrZrE4dEw9ymg7tauEkW-124" value="&lt;b&gt;ch_mult&lt;/b&gt;&lt;div&gt;&lt;br&gt;&lt;/div&gt;" style="text;html=1;align=center;verticalAlign=middle;resizable=0;points=[];autosize=1;strokeColor=none;fillColor=none;" parent="1" vertex="1">
                    <mxGeometry x="180" y="1055" width="70" height="40" as="geometry"/>
                </mxCell>
                <mxCell id="UrZrE4dEw9ymg7tauEkW-125" value="Upsample: &lt;b&gt;2，64，128，128&lt;/b&gt;" style="rounded=0;whiteSpace=wrap;html=1;" parent="1" vertex="1">
                    <mxGeometry x="-80" y="730" width="240" height="40" as="geometry"/>
                </mxCell>
                <mxCell id="UrZrE4dEw9ymg7tauEkW-126" style="edgeStyle=none;html=1;exitX=0.5;exitY=0;exitDx=0;exitDy=0;entryX=0.5;entryY=1;entryDx=0;entryDy=0;" parent="1" source="UrZrE4dEw9ymg7tauEkW-127" target="UrZrE4dEw9ymg7tauEkW-125" edge="1">
                    <mxGeometry relative="1" as="geometry"/>
                </mxCell>
                <mxCell id="UrZrE4dEw9ymg7tauEkW-127" value="&lt;span style=&quot;color: rgb(0, 0, 0);&quot;&gt;ResnetBlock: &lt;b&gt;2，64，128，128&lt;/b&gt;&lt;/span&gt;" style="rounded=0;whiteSpace=wrap;html=1;" parent="1" vertex="1">
                    <mxGeometry x="-80" y="810" width="240" height="40" as="geometry"/>
                </mxCell>
                <mxCell id="UrZrE4dEw9ymg7tauEkW-128" style="edgeStyle=none;html=1;entryX=0.5;entryY=1;entryDx=0;entryDy=0;" parent="1" source="UrZrE4dEw9ymg7tauEkW-129" target="UrZrE4dEw9ymg7tauEkW-127" edge="1">
                    <mxGeometry relative="1" as="geometry"/>
                </mxCell>
                <mxCell id="UrZrE4dEw9ymg7tauEkW-129" value="ResnetBlock：2，64，128，128" style="rounded=0;whiteSpace=wrap;html=1;" parent="1" vertex="1">
                    <mxGeometry x="-80" y="890" width="240" height="40" as="geometry"/>
                </mxCell>
                <mxCell id="UrZrE4dEw9ymg7tauEkW-130" value="" style="shape=curlyBracket;whiteSpace=wrap;html=1;rounded=1;labelPosition=left;verticalLabelPosition=middle;align=right;verticalAlign=middle;" parent="1" vertex="1">
                    <mxGeometry x="-100" y="810" width="20" height="120" as="geometry"/>
                </mxCell>
                <mxCell id="UrZrE4dEw9ymg7tauEkW-131" value="&lt;b&gt;num_res_blocks&lt;/b&gt;&lt;div&gt;&lt;br&gt;&lt;/div&gt;" style="text;html=1;align=center;verticalAlign=middle;resizable=0;points=[];autosize=1;strokeColor=none;fillColor=none;" parent="1" vertex="1">
                    <mxGeometry x="-210" y="860" width="120" height="40" as="geometry"/>
                </mxCell>
                <mxCell id="UrZrE4dEw9ymg7tauEkW-132" value="" style="shape=curlyBracket;whiteSpace=wrap;html=1;rounded=1;labelPosition=left;verticalLabelPosition=middle;align=right;verticalAlign=middle;rotation=-180;" parent="1" vertex="1">
                    <mxGeometry x="160" y="730" width="20" height="200" as="geometry"/>
                </mxCell>
                <mxCell id="UrZrE4dEw9ymg7tauEkW-133" value="&lt;b&gt;ch_mult&lt;/b&gt;&lt;div&gt;&lt;br&gt;&lt;/div&gt;" style="text;html=1;align=center;verticalAlign=middle;resizable=0;points=[];autosize=1;strokeColor=none;fillColor=none;" parent="1" vertex="1">
                    <mxGeometry x="180" y="820" width="70" height="40" as="geometry"/>
                </mxCell>
            </root>
        </mxGraphModel>
    </diagram>
</mxfile>